<svg width="333" height="332" xmlns="http://www.w3.org/2000/svg" xmlns:xlink="http://www.w3.org/1999/xlink" xml:space="preserve" overflow="hidden"><g transform="translate(-75 -323)"><path d="M166 0C74.285 0 0 74.285 0 166 0 239.455 47.5175 301.497 113.502 323.492 121.802 324.945 124.915 319.965 124.915 315.608 124.915 311.665 124.708 298.592 124.708 284.69 83 292.367 72.21 274.522 68.89 265.185 67.0225 260.413 58.93 245.68 51.875 241.737 46.065 238.625 37.765 230.948 51.6675 230.74 64.74 230.532 74.0775 242.775 77.19 247.755 92.13 272.862 115.993 265.807 125.538 261.45 126.99 250.66 131.348 243.397 136.12 239.247 99.185 235.098 60.59 220.78 60.59 157.285 60.59 139.232 67.0225 124.292 77.605 112.672 75.945 108.522 70.135 91.5075 79.265 68.6825 79.265 68.6825 93.1675 64.325 124.915 85.6975 138.195 81.9625 152.305 80.095 166.415 80.095 180.525 80.095 194.635 81.9625 207.915 85.6975 239.663 64.1175 253.565 68.6825 253.565 68.6825 262.695 91.5075 256.885 108.522 255.225 112.672 265.807 124.292 272.24 139.025 272.24 157.285 272.24 220.987 233.438 235.098 196.503 239.247 202.52 244.435 207.708 254.395 207.708 269.958 207.708 292.16 207.5 310.005 207.5 315.608 207.5 319.965 210.612 325.152 218.913 323.492 284.483 301.497 332 239.247 332 166 332 74.285 257.715 0 166 0Z" fill="#FFFFFF" fill-rule="evenodd" transform="matrix(1.00301 0 0 1 75 323)"/></g></svg>