<?xml version="1.0" encoding="utf-8"?>
<!-- Generator: Adobe Illustrator 25.0.0, SVG Export Plug-In . SVG Version: 6.00 Build 0)  -->
<svg version="1.1" id="Ebene_1" xmlns="http://www.w3.org/2000/svg" x="0px" y="0px"
     viewBox="0 0 342.97 128.29" style="enable-background:new 0 0 342.97 128.29;" xml:space="preserve">
<style type="text/css">
	.st0{fill:#3F454D;}
</style>
<path class="st0" d="M54.98,53.61c-0.79,0-1.43,0.64-1.43,1.43c0,0.79,0.64,1.43,1.43,1.43c0.79,0,1.43-0.64,1.43-1.43
	C56.41,54.25,55.77,53.61,54.98,53.61"/>
<path class="st0" d="M58.58,52.81c0-0.79-0.64-1.43-1.43-1.43c-0.79,0-1.43,0.64-1.43,1.43c0,0.79,0.64,1.43,1.43,1.43
	C57.94,54.24,58.58,53.6,58.58,52.81"/>
<path class="st0" d="M58.58,57.27c0-0.79-0.64-1.43-1.43-1.43c-0.79,0-1.43,0.64-1.43,1.43c0,0.79,0.64,1.43,1.43,1.43
	C57.94,58.7,58.58,58.06,58.58,57.27"/>
<path class="st0" d="M59.62,53.54c-0.79,0-1.43,0.64-1.43,1.43c0,0.79,0.64,1.43,1.43,1.43c0.79,0,1.43-0.64,1.43-1.43
	C61.05,54.18,60.41,53.54,59.62,53.54"/>
<path class="st0" d="M62.31,51.29c-0.79,0-1.43,0.64-1.43,1.43c0,0.79,0.64,1.43,1.43,1.43c0.79,0,1.43-0.64,1.43-1.43
	C63.74,51.93,63.09,51.29,62.31,51.29"/>
<path class="st0" d="M62.28,55.88c-0.79,0-1.43,0.64-1.43,1.43c0,0.79,0.64,1.43,1.43,1.43c0.79,0,1.43-0.64,1.43-1.43
	C63.72,56.53,63.07,55.88,62.28,55.88"/>
<path class="st0" d="M59.52,60.97c0.79,0,1.43-0.64,1.43-1.43c0-0.79-0.64-1.43-1.43-1.43c-0.79,0-1.43,0.64-1.43,1.43
	C58.09,60.33,58.73,60.97,59.52,60.97"/>
<path class="st0" d="M58.72,62.31c0-0.79-0.64-1.43-1.43-1.43c-0.79,0-1.43,0.64-1.43,1.43c0,0.79,0.64,1.43,1.43,1.43
	C58.08,63.74,58.72,63.1,58.72,62.31"/>
<path class="st0" d="M55.06,66.78c0.79,0,1.43-0.64,1.43-1.43c0-0.79-0.64-1.43-1.43-1.43c-0.79,0-1.43,0.64-1.43,1.43
	C53.63,66.14,54.27,66.78,55.06,66.78"/>
<path class="st0" d="M65.33,53.54c-0.79,0-1.43,0.64-1.43,1.43c0,0.79,0.64,1.43,1.43,1.43c0.79,0,1.43-0.64,1.43-1.43
	C66.76,54.18,66.12,53.54,65.33,53.54"/>
<path class="st0" d="M65.18,58.32c-0.79,0-1.43,0.64-1.43,1.43c0,0.79,0.64,1.43,1.43,1.43c0.79,0,1.43-0.64,1.43-1.43
	C66.61,58.96,65.97,58.32,65.18,58.32"/>
<path class="st0" d="M68.52,56.17c-0.79,0-1.43,0.64-1.43,1.43c0,0.79,0.64,1.43,1.43,1.43c0.79,0,1.43-0.64,1.43-1.43
	C69.95,56.81,69.31,56.17,68.52,56.17"/>
<path class="st0" d="M69.57,62.44c0-0.79-0.64-1.43-1.43-1.43c-0.79,0-1.43,0.64-1.43,1.43c0,0.79,0.64,1.43,1.43,1.43
	C68.92,63.87,69.57,63.23,69.57,62.44"/>
<path class="st0" d="M66.1,64.58c0-0.79-0.64-1.43-1.43-1.43c-0.79,0-1.43,0.64-1.43,1.43c0,0.79,0.64,1.43,1.43,1.43
	C65.46,66.01,66.1,65.38,66.1,64.58"/>
<path class="st0" d="M59.74,66.59c0.79,0,1.43-0.64,1.43-1.43c0-0.79-0.64-1.43-1.43-1.43c-0.79,0-1.43,0.64-1.43,1.43
	C58.31,65.95,58.95,66.59,59.74,66.59"/>
<path class="st0" d="M57.5,69.94c0.79,0,1.43-0.64,1.43-1.43c0-0.79-0.64-1.43-1.43-1.43c-0.79,0-1.43,0.64-1.43,1.43
	C56.07,69.3,56.71,69.94,57.5,69.94"/>
<path class="st0" d="M55.04,73.49c0.79,0,1.43-0.64,1.43-1.43c0-0.79-0.64-1.43-1.43-1.43c-0.79,0-1.43,0.64-1.43,1.43
	C53.61,72.85,54.25,73.49,55.04,73.49"/>
<path class="st0" d="M63.42,61.98c0-0.79-0.64-1.43-1.43-1.43c-0.79,0-1.43,0.64-1.43,1.43c0,0.79,0.64,1.43,1.43,1.43
	C62.78,63.41,63.42,62.77,63.42,61.98"/>
<path class="st0" d="M71.87,58.79c-0.79,0-1.43,0.64-1.43,1.43c0,0.79,0.64,1.43,1.43,1.43c0.79,0,1.43-0.64,1.43-1.43
	C73.31,59.42,72.66,58.79,71.87,58.79"/>
<path class="st0" d="M71.34,63.94c-0.79,0-1.43,0.64-1.43,1.43c0,0.79,0.64,1.43,1.43,1.43c0.79,0,1.43-0.64,1.43-1.43
	C72.77,64.58,72.13,63.94,71.34,63.94"/>
<path class="st0" d="M74.86,67.01c-0.79,0-1.43,0.64-1.43,1.43c0,0.79,0.64,1.43,1.43,1.43c0.79,0,1.43-0.64,1.43-1.43
	C76.29,67.65,75.65,67.01,74.86,67.01"/>
<path class="st0" d="M70.52,69.03c-0.79,0-1.43,0.64-1.43,1.43c0,0.79,0.64,1.43,1.43,1.43c0.79,0,1.43-0.64,1.43-1.43
	C71.95,69.67,71.31,69.03,70.52,69.03"/>
<path class="st0" d="M68.96,67.52c0-0.79-0.64-1.43-1.43-1.43c-0.79,0-1.43,0.64-1.43,1.43c0,0.79,0.64,1.43,1.43,1.43
	C68.32,68.95,68.96,68.31,68.96,67.52"/>
<path class="st0" d="M65.4,72.76c0.79,0,1.43-0.64,1.43-1.43c0-0.79-0.64-1.43-1.43-1.43c-0.79,0-1.43,0.64-1.43,1.43
	C63.97,72.12,64.61,72.76,65.4,72.76"/>
<path class="st0" d="M60.21,73.3c0.79,0,1.43-0.64,1.43-1.43c0-0.79-0.64-1.43-1.43-1.43c-0.79,0-1.43,0.64-1.43,1.43
	C58.78,72.65,59.42,73.3,60.21,73.3"/>
<path class="st0" d="M63.87,68.15c0-0.79-0.64-1.43-1.43-1.43c-0.79,0-1.43,0.64-1.43,1.43c0,0.79,0.64,1.43,1.43,1.43
	C63.23,69.57,63.87,68.93,63.87,68.15"/>
<path class="st0" d="M73.85,72.38c-0.79,0-1.43,0.64-1.43,1.43c0,0.79,0.64,1.43,1.43,1.43c0.79,0,1.43-0.64,1.43-1.43
	C75.28,73.02,74.64,72.38,73.85,72.38"/>
<path class="st0" d="M68.42,73.4c-0.79,0-1.43,0.64-1.43,1.44c0,0.79,0.64,1.43,1.43,1.43c0.79,0,1.43-0.64,1.43-1.43
	C69.86,74.05,69.21,73.4,68.42,73.4"/>
<path class="st0" d="M66.08,77.57c-0.79,0-1.43,0.64-1.43,1.43c0,0.79,0.64,1.43,1.43,1.43c0.79,0,1.43-0.64,1.43-1.43
	C67.51,78.21,66.87,77.57,66.08,77.57"/>
<path class="st0" d="M63.03,73.99c-0.79,0-1.43,0.64-1.43,1.43c0,0.79,0.64,1.43,1.43,1.43c0.79,0,1.43-0.64,1.43-1.43
	C64.45,74.64,63.81,73.99,63.03,73.99"/>
<path class="st0" d="M60.54,78.29c-0.79,0-1.43,0.64-1.43,1.43c0,0.79,0.64,1.43,1.43,1.43c0.79,0,1.43-0.64,1.43-1.43
	C61.97,78.93,61.33,78.29,60.54,78.29"/>
<path class="st0" d="M57.63,74.35c-0.79,0-1.43,0.64-1.43,1.43c0,0.79,0.64,1.43,1.43,1.43c0.79,0,1.43-0.64,1.43-1.43
	C59.06,74.99,58.42,74.35,57.63,74.35"/>
<path class="st0" d="M55.06,78.57c-0.79,0-1.43,0.64-1.43,1.43c0,0.79,0.64,1.43,1.43,1.43c0.79,0,1.43-0.64,1.43-1.43
	C56.5,79.21,55.86,78.57,55.06,78.57"/>
<path class="st0" d="M52.32,74.35c-0.79,0-1.43,0.64-1.43,1.43c0,0.79,0.64,1.43,1.43,1.43c0.79,0,1.43-0.64,1.43-1.43
	C53.75,74.99,53.11,74.35,52.32,74.35"/>
<path class="st0" d="M49.45,78.31c-0.79,0-1.43,0.64-1.43,1.43c0,0.79,0.64,1.43,1.43,1.43c0.79,0,1.43-0.64,1.43-1.43
	C50.88,78.95,50.24,78.31,49.45,78.31"/>
<path class="st0" d="M44.06,77.57c-0.79,0-1.43,0.64-1.43,1.43c0,0.79,0.64,1.43,1.43,1.43c0.79,0,1.43-0.64,1.43-1.43
	C45.49,78.21,44.85,77.57,44.06,77.57"/>
<path class="st0" d="M75.45,61.59c-0.79,0-1.43,0.64-1.43,1.43c0,0.79,0.64,1.43,1.43,1.43c0.79,0,1.43-0.64,1.43-1.43
	C76.88,62.23,76.24,61.59,75.45,61.59"/>
<path class="st0" d="M79.03,64.54c-0.79,0-1.43,0.64-1.43,1.43c0,0.79,0.64,1.43,1.43,1.43c0.79,0,1.43-0.64,1.43-1.43
	C80.46,65.18,79.82,64.54,79.03,64.54"/>
<path class="st0" d="M79.75,59.1c-0.79,0-1.43,0.64-1.43,1.43c0,0.79,0.64,1.43,1.43,1.43c0.79,0,1.43-0.64,1.43-1.43
	C81.18,59.74,80.54,59.1,79.75,59.1"/>
<path class="st0" d="M75.78,56.26c-0.79,0-1.43,0.64-1.43,1.43c0,0.79,0.64,1.43,1.43,1.43c0.79,0,1.43-0.64,1.43-1.43
	C77.21,56.9,76.57,56.26,75.78,56.26"/>
<path class="st0" d="M79.99,53.56c-0.79,0-1.43,0.64-1.43,1.43c0,0.79,0.64,1.43,1.43,1.43c0.79,0,1.43-0.64,1.43-1.43
	C81.42,54.2,80.78,53.56,79.99,53.56"/>
<path class="st0" d="M75.78,50.97c-0.79,0-1.43,0.64-1.43,1.43c0,0.79,0.64,1.43,1.43,1.43c0.79,0,1.43-0.64,1.43-1.43
	C77.21,51.61,76.57,50.97,75.78,50.97"/>
<path class="st0" d="M78.31,49.46c0,0.79,0.64,1.43,1.43,1.43c0.79,0,1.43-0.64,1.43-1.43c0-0.79-0.64-1.43-1.43-1.43
	C78.95,48.03,78.31,48.67,78.31,49.46"/>
<path class="st0" d="M74,46.99c0,0.79,0.64,1.43,1.43,1.43c0.79,0,1.43-0.64,1.43-1.43c0-0.79-0.64-1.43-1.43-1.43
	C74.64,45.56,74,46.21,74,46.99"/>
<path class="st0" d="M79.03,45.39c0.79,0,1.43-0.64,1.43-1.43c0-0.79-0.64-1.43-1.43-1.43c-0.79,0-1.43,0.64-1.43,1.43
	C77.6,44.75,78.24,45.39,79.03,45.39"/>
<path class="st0" d="M73.42,41.62c0,0.79,0.64,1.43,1.43,1.43c0.79,0,1.43-0.64,1.43-1.43c0-0.79-0.64-1.43-1.43-1.43
	C74.06,40.19,73.42,40.83,73.42,41.62"/>
<path class="st0" d="M73.84,37.7c0.79,0,1.43-0.64,1.43-1.43c0-0.79-0.64-1.43-1.43-1.43c-0.79,0-1.43,0.64-1.43,1.43
	C72.41,37.06,73.05,37.7,73.84,37.7"/>
<path class="st0" d="M69.12,39.58c0,0.79,0.64,1.43,1.43,1.43c0.79,0,1.43-0.64,1.43-1.43c0-0.79-0.64-1.43-1.43-1.43
	C69.76,38.15,69.12,38.79,69.12,39.58"/>
<path class="st0" d="M67.5,41.1c-0.79,0-1.43,0.64-1.43,1.43c0,0.79,0.64,1.43,1.43,1.43c0.79,0,1.43-0.64,1.43-1.43
	C68.93,41.74,68.29,41.1,67.5,41.1"/>
<path class="st0" d="M63.23,45.44c0,0.79,0.64,1.43,1.43,1.43c0.79,0,1.43-0.64,1.43-1.43c0-0.79-0.64-1.43-1.43-1.43
	C63.87,44.01,63.23,44.65,63.23,45.44"/>
<path class="st0" d="M62.46,40.46c-0.79,0-1.43,0.64-1.43,1.43c0,0.79,0.64,1.43,1.43,1.43c0.79,0,1.43-0.64,1.43-1.43
	C63.89,41.11,63.25,40.46,62.46,40.46"/>
<path class="st0" d="M60.19,36.77c-0.79,0-1.43,0.64-1.43,1.43c0,0.79,0.64,1.43,1.43,1.43c0.79,0,1.43-0.64,1.43-1.43
	C61.62,37.41,60.98,36.77,60.19,36.77"/>
<path class="st0" d="M57.52,40.08c-0.79,0-1.43,0.64-1.43,1.43c0,0.79,0.64,1.43,1.43,1.43c0.79,0,1.43-0.64,1.43-1.43
	C58.95,40.72,58.31,40.08,57.52,40.08"/>
<path class="st0" d="M52.43,40.11c-0.79,0-1.43,0.64-1.43,1.43c0,0.79,0.64,1.43,1.43,1.43c0.79,0,1.43-0.64,1.43-1.43
	C53.86,40.75,53.22,40.11,52.43,40.11"/>
<path class="st0" d="M50.28,43.47c-0.79,0-1.43,0.64-1.43,1.43c0,0.79,0.64,1.43,1.43,1.43c0.79,0,1.43-0.64,1.43-1.43
	C51.71,44.11,51.07,43.47,50.28,43.47"/>
<path class="st0" d="M51.25,47.77c0,0.79,0.64,1.43,1.43,1.43c0.79,0,1.43-0.64,1.43-1.43c0-0.79-0.64-1.43-1.43-1.43
	C51.89,46.34,51.25,46.98,51.25,47.77"/>
<path class="st0" d="M46.61,48.05c0,0.79,0.64,1.43,1.43,1.43c0.79,0,1.43-0.64,1.43-1.43c0-0.79-0.64-1.43-1.43-1.43
	C47.25,46.62,46.61,47.27,46.61,48.05"/>
<path class="st0" d="M44.85,48.87c-0.79,0-1.43,0.64-1.43,1.43c0,0.79,0.64,1.43,1.43,1.43c0.79,0,1.43-0.64,1.43-1.43
	C46.28,49.51,45.64,48.87,44.85,48.87"/>
<path class="st0" d="M41.5,53.95c0.79,0,1.43-0.64,1.43-1.43c0-0.79-0.64-1.43-1.43-1.43c-0.79,0-1.43,0.65-1.43,1.43
	C40.07,53.31,40.71,53.95,41.5,53.95"/>
<path class="st0" d="M40.43,47.59c0,0.79,0.64,1.43,1.43,1.43c0.79,0,1.43-0.64,1.43-1.43c0-0.79-0.64-1.43-1.43-1.43
	C41.08,46.16,40.43,46.8,40.43,47.59"/>
<path class="st0" d="M36.71,49.81c0,0.79,0.64,1.43,1.43,1.43c0.79,0,1.43-0.64,1.43-1.43c0-0.79-0.64-1.43-1.43-1.43
	C37.35,48.38,36.71,49.02,36.71,49.81"/>
<path class="st0" d="M34.22,53.8c0.79,0,1.43-0.64,1.43-1.43c0-0.79-0.64-1.43-1.43-1.43c-0.79,0-1.43,0.64-1.43,1.43
	C32.79,53.16,33.43,53.8,34.22,53.8"/>
<path class="st0" d="M30.26,50.88c0.79,0,1.43-0.64,1.43-1.43c0-0.79-0.64-1.43-1.43-1.43c-0.79,0-1.43,0.64-1.43,1.43
	C28.83,50.24,29.47,50.88,30.26,50.88"/>
<path class="st0" d="M34.59,48.44c0.79,0,1.43-0.64,1.43-1.43c0-0.79-0.64-1.43-1.43-1.43c-0.79,0-1.43,0.64-1.43,1.43
	C33.16,47.79,33.8,48.44,34.59,48.44"/>
<path class="st0" d="M31.01,42.51c-0.79,0-1.43,0.64-1.43,1.43c0,0.79,0.64,1.43,1.43,1.43c0.79,0,1.43-0.64,1.43-1.43
	C32.44,43.15,31.79,42.51,31.01,42.51"/>
<path class="st0" d="M35.21,43.06c0.79,0,1.43-0.64,1.43-1.43c0-0.79-0.64-1.43-1.43-1.43c-0.79,0-1.43,0.64-1.43,1.43
	C33.79,42.42,34.42,43.06,35.21,43.06"/>
<path class="st0" d="M38.68,43.2c-0.79,0-1.43,0.64-1.43,1.43c0,0.79,0.64,1.43,1.43,1.43c0.79,0,1.43-0.64,1.43-1.43
	C40.11,43.84,39.47,43.2,38.68,43.2"/>
<path class="st0" d="M41.11,42.51c0,0.79,0.64,1.43,1.43,1.43c0.79,0,1.43-0.64,1.43-1.43c0-0.79-0.64-1.43-1.43-1.43
	C41.75,41.08,41.11,41.72,41.11,42.51"/>
<path class="st0" d="M43.91,45.44c0,0.79,0.64,1.43,1.43,1.43c0.79,0,1.43-0.64,1.43-1.43c0-0.79-0.64-1.43-1.43-1.43
	C44.55,44.01,43.91,44.66,43.91,45.44"/>
<path class="st0" d="M37.96,56.4c0.79,0,1.43-0.64,1.43-1.43c0-0.79-0.64-1.43-1.43-1.43c-0.79,0-1.43,0.64-1.43,1.43
	C36.53,55.75,37.17,56.4,37.96,56.4"/>
<path class="st0" d="M55.07,43.3c-0.79,0-1.43,0.64-1.43,1.43c0,0.79,0.64,1.43,1.43,1.43c0.79,0,1.43-0.64,1.43-1.43
	C56.5,43.94,55.86,43.3,55.07,43.3"/>
<path class="st0" d="M65.39,37.25c-0.79,0-1.43,0.64-1.43,1.43c0,0.79,0.64,1.43,1.43,1.43c0.79,0,1.43-0.64,1.43-1.43
	C66.82,37.89,66.18,37.25,65.39,37.25"/>
<path class="st0" d="M67,35.16c0,0.79,0.64,1.43,1.43,1.43c0.79,0,1.43-0.64,1.43-1.43c0-0.79-0.64-1.43-1.43-1.43
	C67.64,33.73,67,34.37,67,35.16"/>
<path class="st0" d="M63.04,36.03c0.79,0,1.43-0.64,1.43-1.43c0-0.79-0.64-1.43-1.43-1.43c-0.79,0-1.43,0.64-1.43,1.43
	C61.61,35.39,62.25,36.03,63.04,36.03"/>
<path class="st0" d="M66.09,32.44c0.79,0,1.43-0.64,1.43-1.43c0-0.79-0.64-1.43-1.43-1.43c-0.79,0-1.43,0.64-1.43,1.43
	C64.66,31.8,65.3,32.44,66.09,32.44"/>
<path class="st0" d="M60.56,31.75c0.79,0,1.43-0.64,1.43-1.43c0-0.79-0.64-1.43-1.43-1.43c-0.79,0-1.43,0.64-1.43,1.43
	C59.12,31.11,59.77,31.75,60.56,31.75"/>
<path class="st0" d="M55.05,31.46c0.79,0,1.43-0.64,1.43-1.43c0-0.79-0.64-1.43-1.43-1.43c-0.78,0-1.43,0.64-1.43,1.43
	C53.62,30.82,54.26,31.46,55.05,31.46"/>
<path class="st0" d="M49.44,31.73c0.79,0,1.43-0.64,1.43-1.43c0-0.79-0.64-1.43-1.43-1.43c-0.79,0-1.43,0.64-1.43,1.43
	C48.01,31.09,48.65,31.73,49.44,31.73"/>
<path class="st0" d="M44.05,32.46c0.79,0,1.43-0.64,1.43-1.43c0-0.79-0.64-1.43-1.43-1.43c-0.79,0-1.43,0.64-1.43,1.43
	C42.62,31.82,43.26,32.46,44.05,32.46"/>
<path class="st0" d="M52.28,35.69c0.79,0,1.43-0.64,1.43-1.43c0-0.79-0.64-1.43-1.43-1.43c-0.79,0-1.43,0.64-1.43,1.43
	C50.85,35.05,51.49,35.69,52.28,35.69"/>
<path class="st0" d="M46.98,36.04c0.79,0,1.43-0.64,1.43-1.43c0-0.79-0.64-1.43-1.43-1.43c-0.79,0-1.43,0.64-1.43,1.43
	C45.55,35.4,46.19,36.04,46.98,36.04"/>
<path class="st0" d="M44.63,37.27c-0.79,0-1.43,0.64-1.43,1.43c0,0.79,0.64,1.43,1.43,1.43c0.79,0,1.43-0.64,1.43-1.43
	C46.06,37.91,45.42,37.27,44.63,37.27"/>
<path class="st0" d="M39.46,41.02c0.79,0,1.43-0.64,1.43-1.43c0-0.79-0.64-1.43-1.43-1.43c-0.79,0-1.43,0.64-1.43,1.43
	C38.04,40.38,38.67,41.02,39.46,41.02"/>
<path class="st0" d="M36.44,37.67c0.79,0,1.43-0.64,1.43-1.43c0-0.79-0.64-1.43-1.43-1.43c-0.79,0-1.43,0.64-1.43,1.43
	C35.01,37.03,35.65,37.67,36.44,37.67"/>
<path class="st0" d="M41.62,36.61c0.79,0,1.43-0.64,1.43-1.43c0-0.79-0.64-1.43-1.43-1.43c-0.79,0-1.43,0.64-1.43,1.43
	C40.19,35.97,40.83,36.61,41.62,36.61"/>
<path class="st0" d="M46.14,41.88c0,0.79,0.64,1.43,1.43,1.43c0.79,0,1.43-0.64,1.43-1.43c0-0.79-0.64-1.43-1.43-1.43
	C46.78,40.45,46.14,41.09,46.14,41.88"/>
<path class="st0" d="M49.78,36.75c-0.79,0-1.43,0.64-1.43,1.43c0,0.79,0.64,1.43,1.43,1.43c0.79,0,1.43-0.64,1.43-1.43
	C51.22,37.39,50.57,36.75,49.78,36.75"/>
<path class="st0" d="M57.62,35.69c0.79,0,1.43-0.64,1.43-1.43c0-0.79-0.64-1.44-1.43-1.44c-0.79,0-1.43,0.64-1.43,1.44
	C56.19,35.05,56.83,35.69,57.62,35.69"/>
<path class="st0" d="M55.06,36.53c-0.79,0-1.43,0.64-1.43,1.43c0,0.79,0.64,1.43,1.43,1.43c0.79,0,1.43-0.64,1.43-1.43
	C56.49,37.17,55.85,36.53,55.06,36.53"/>
<path class="st0" d="M63.37,48.04c0-0.79-0.64-1.43-1.43-1.43c-0.79,0-1.43,0.64-1.43,1.43c0,0.79,0.64,1.43,1.43,1.43
	C62.73,49.47,63.37,48.83,63.37,48.04"/>
<path class="st0" d="M59.55,49.07c-0.79,0-1.43,0.64-1.43,1.43c0,0.79,0.64,1.43,1.43,1.43c0.79,0,1.43-0.64,1.43-1.43
	C60.98,49.71,60.34,49.07,59.55,49.07"/>
<path class="st0" d="M55.88,47.71c0,0.79,0.64,1.43,1.43,1.43c0.79,0,1.43-0.64,1.43-1.43c0-0.79-0.64-1.43-1.43-1.43
	C56.52,46.28,55.88,46.92,55.88,47.71"/>
<path class="st0" d="M55.05,48.98c-0.79,0-1.43,0.64-1.43,1.43c0,0.79,0.64,1.43,1.43,1.43c0.79,0,1.43-0.64,1.43-1.43
	C56.48,49.62,55.83,48.98,55.05,48.98"/>
<path class="st0" d="M51.37,52.81c0,0.79,0.64,1.43,1.43,1.43c0.79,0,1.43-0.64,1.43-1.43c0-0.79-0.64-1.43-1.43-1.43
	C52.01,51.38,51.37,52.02,51.37,52.81"/>
<path class="st0" d="M50.51,49.1c-0.79,0-1.43,0.64-1.43,1.43c0,0.79,0.64,1.43,1.43,1.43c0.79,0,1.43-0.64,1.43-1.43
	C51.94,49.74,51.3,49.1,50.51,49.1"/>
<path class="st0" d="M50.38,56.43c0.79,0,1.43-0.64,1.43-1.43c0-0.79-0.65-1.43-1.43-1.43c-0.79,0-1.43,0.64-1.43,1.43
	C48.95,55.78,49.59,56.43,50.38,56.43"/>
<path class="st0" d="M47.71,54.19c0.79,0,1.43-0.64,1.43-1.43s-0.64-1.43-1.43-1.43c-0.79,0-1.43,0.64-1.43,1.43
	S46.92,54.19,47.71,54.19"/>
<path class="st0" d="M47.72,58.78c0.79,0,1.43-0.64,1.43-1.43c0-0.79-0.64-1.43-1.43-1.43c-0.79,0-1.43,0.64-1.43,1.43
	C46.29,58.14,46.93,58.78,47.72,58.78"/>
<path class="st0" d="M44.7,56.39c0.79,0,1.43-0.64,1.43-1.43c0-0.79-0.64-1.43-1.43-1.43c-0.79,0-1.43,0.64-1.43,1.43
	C43.27,55.75,43.91,56.39,44.7,56.39"/>
<path class="st0" d="M44.93,61.21c0.79,0,1.43-0.64,1.43-1.43c0-0.79-0.64-1.43-1.43-1.43c-0.79,0-1.43,0.64-1.43,1.43
	C43.5,60.57,44.13,61.21,44.93,61.21"/>
<path class="st0" d="M41.5,59.02c0.79,0,1.43-0.64,1.43-1.43c0-0.79-0.64-1.43-1.43-1.43c-0.79,0-1.43,0.64-1.43,1.43
	C40.08,58.38,40.72,59.02,41.5,59.02"/>
<path class="st0" d="M41.9,63.92c0.79,0,1.43-0.64,1.43-1.43c0-0.79-0.64-1.44-1.43-1.44c-0.79,0-1.43,0.64-1.43,1.44
	C40.47,63.28,41.11,63.92,41.9,63.92"/>
<path class="st0" d="M38.68,66.84c0.79,0,1.43-0.64,1.43-1.43c0-0.79-0.64-1.43-1.43-1.43c-0.79,0-1.43,0.64-1.43,1.43
	C37.25,66.2,37.9,66.84,38.68,66.84"/>
<path class="st0" d="M36,63.05c0-0.79-0.64-1.43-1.43-1.43c-0.79,0-1.43,0.64-1.43,1.43c0,0.79,0.64,1.43,1.43,1.43
	C35.36,64.47,36,63.83,36,63.05"/>
<path class="st0" d="M31.71,60.56c0-0.79-0.64-1.43-1.43-1.43c-0.79,0-1.43,0.64-1.43,1.43c0,0.79,0.64,1.43,1.43,1.43
	C31.06,61.99,31.71,61.35,31.71,60.56"/>
<path class="st0" d="M34.22,59.14c0.79,0,1.43-0.64,1.43-1.43c0-0.79-0.64-1.43-1.43-1.43c-0.79,0-1.43,0.64-1.43,1.43
	C32.79,58.5,33.43,59.14,34.22,59.14"/>
<path class="st0" d="M30.02,56.4c0.79,0,1.43-0.64,1.43-1.43c0-0.79-0.64-1.43-1.43-1.43c-0.79,0-1.43,0.64-1.43,1.43
	C28.59,55.76,29.23,56.4,30.02,56.4"/>
<path class="st0" d="M38.14,61.63c0.79,0,1.43-0.64,1.43-1.43c0-0.79-0.64-1.43-1.43-1.43c-0.79,0-1.43,0.64-1.43,1.43
	C36.72,60.99,37.36,61.63,38.14,61.63"/>
<path class="st0" d="M30.99,64.53c-0.79,0-1.43,0.64-1.43,1.43c0,0.79,0.64,1.43,1.43,1.43c0.79,0,1.43-0.64,1.43-1.43
	C32.42,65.17,31.78,64.53,30.99,64.53"/>
<path class="st0" d="M36.6,68.45c0-0.79-0.64-1.43-1.43-1.43c-0.79,0-1.43,0.64-1.43,1.43s0.64,1.43,1.43,1.43
	C35.96,69.88,36.6,69.24,36.6,68.45"/>
<path class="st0" d="M54.23,57.27c0-0.79-0.64-1.43-1.43-1.43c-0.79,0-1.43,0.64-1.43,1.43c0,0.79,0.64,1.43,1.43,1.43
	C53.59,58.7,54.23,58.06,54.23,57.27"/>
<path class="st0" d="M55.04,61.03c0.79,0,1.43-0.64,1.43-1.43c0-0.79-0.64-1.43-1.43-1.43c-0.79,0-1.43,0.64-1.43,1.43
	C53.61,60.39,54.25,61.03,55.04,61.03"/>
<path class="st0" d="M54.1,62.31c0-0.79-0.64-1.43-1.43-1.43c-0.79,0-1.43,0.64-1.43,1.43c0,0.79,0.64,1.43,1.43,1.43
	C53.46,63.74,54.1,63.1,54.1,62.31"/>
<path class="st0" d="M50.29,66.59c0.79,0,1.43-0.64,1.43-1.43c0-0.79-0.64-1.43-1.43-1.43c-0.79,0-1.43,0.64-1.43,1.43
	C48.86,65.95,49.5,66.59,50.29,66.59"/>
<path class="st0" d="M52.46,69.95c0.79,0,1.43-0.64,1.43-1.43c0-0.79-0.64-1.44-1.43-1.44c-0.79,0-1.43,0.64-1.43,1.44
	C51.03,69.31,51.67,69.95,52.46,69.95"/>
<path class="st0" d="M49.8,73.28c0.79,0,1.43-0.64,1.43-1.43c0-0.79-0.64-1.43-1.43-1.43c-0.79,0-1.43,0.64-1.43,1.43
	C48.37,72.64,49.01,73.28,49.8,73.28"/>
<path class="st0" d="M44.6,72.74c0.79,0,1.43-0.64,1.43-1.43c0-0.79-0.64-1.43-1.43-1.43c-0.79,0-1.43,0.64-1.43,1.43
	C43.17,72.1,43.81,72.74,44.6,72.74"/>
<path class="st0" d="M42.56,68.94c0.79,0,1.43-0.64,1.43-1.43c0-0.79-0.64-1.43-1.43-1.43c-0.79,0-1.43,0.64-1.43,1.43
	C41.13,68.3,41.77,68.94,42.56,68.94"/>
<path class="st0" d="M47.57,69.56c0.79,0,1.43-0.64,1.43-1.43c0-0.79-0.64-1.43-1.43-1.43c-0.79,0-1.43,0.64-1.43,1.43
	C46.14,68.92,46.78,69.56,47.57,69.56"/>
<path class="st0" d="M46.78,64.57c0-0.79-0.64-1.43-1.43-1.43c-0.79,0-1.43,0.64-1.43,1.43c0,0.79,0.64,1.43,1.43,1.43
	C46.14,66,46.78,65.36,46.78,64.57"/>
<path class="st0" d="M48.01,63.41c0.79,0,1.43-0.64,1.43-1.43s-0.64-1.43-1.43-1.43c-0.79,0-1.43,0.64-1.43,1.43
	S47.22,63.41,48.01,63.41"/>
<path class="st0" d="M50.51,60.94c0.79,0,1.43-0.64,1.43-1.43s-0.64-1.43-1.43-1.43c-0.79,0-1.43,0.64-1.43,1.43
	S49.72,60.94,50.51,60.94"/>
<path class="st0" d="M40.88,70.46c0-0.79-0.64-1.43-1.43-1.43c-0.79,0-1.43,0.64-1.43,1.43c0,0.79,0.64,1.43,1.43,1.43
	C40.24,71.89,40.88,71.25,40.88,70.46"/>
<path class="st0" d="M41.58,73.4c-0.79,0-1.43,0.64-1.43,1.44c0,0.79,0.64,1.43,1.43,1.43c0.79,0,1.43-0.64,1.43-1.43
	C43.01,74.05,42.37,73.4,41.58,73.4"/>
<path class="st0" d="M36.4,72.37c-0.79,0-1.43,0.64-1.43,1.43c0,0.79,0.64,1.43,1.43,1.43c0.79,0,1.43-0.64,1.43-1.43
	C37.83,73.01,37.19,72.37,36.4,72.37"/>
<path class="st0" d="M46.96,74c-0.79,0-1.43,0.64-1.43,1.43c0,0.79,0.64,1.43,1.43,1.43c0.79,0,1.43-0.64,1.43-1.43
	C48.39,74.64,47.75,74,46.96,74"/>
<path class="st0" d="M59.74,43.48c-0.79,0-1.43,0.64-1.43,1.43c0,0.79,0.64,1.43,1.43,1.43c0.79,0,1.43-0.64,1.43-1.43
	C61.18,44.12,60.53,43.48,59.74,43.48"/>
<path class="st0" d="M69.87,44.67c0,0.79,0.64,1.43,1.43,1.43c0.79,0,1.43-0.64,1.43-1.43c0-0.79-0.64-1.43-1.43-1.43
	C70.51,43.24,69.87,43.88,69.87,44.67"/>
<path class="st0" d="M68.14,46.17c-0.79,0-1.43,0.64-1.43,1.43c0,0.79,0.64,1.43,1.43,1.43c0.79,0,1.43-0.64,1.43-1.43
	C69.57,46.81,68.92,46.17,68.14,46.17"/>
<path class="st0" d="M71.84,51.24c0.79,0,1.43-0.64,1.43-1.43c0-0.79-0.64-1.43-1.43-1.43c-0.79,0-1.43,0.64-1.43,1.43
	C70.41,50.6,71.05,51.24,71.84,51.24"/>
<path class="st0" d="M72.06,53.53c-0.79,0-1.43,0.65-1.43,1.43c0,0.79,0.64,1.43,1.43,1.43c0.79,0,1.43-0.64,1.43-1.43
	C73.49,54.18,72.85,53.53,72.06,53.53"/>
<path class="st0" d="M67.04,52.49c0,0.79,0.64,1.43,1.43,1.43c0.79,0,1.43-0.64,1.43-1.43c0-0.79-0.64-1.43-1.43-1.43
	C67.68,51.06,67.04,51.7,67.04,52.49"/>
<path class="st0" d="M65.16,51.72c0.79,0,1.43-0.64,1.43-1.43c0-0.79-0.64-1.43-1.43-1.43c-0.79,0-1.43,0.64-1.43,1.43
	C63.73,51.07,64.37,51.72,65.16,51.72"/>
<path class="st0" d="M104.59,56.32c0,1.36-0.15,1.88-0.43,2.29c-0.74,1.16-2.14,1.18-2.61,1.18c-2.81,0-2.92-1.85-2.92-3.32v-8.45
	h-2.89v8.3c0,1.25,0.04,2.29,0.69,3.31c1.27,2.04,3.73,2.33,5.07,2.33c2.72,0,5.9-1.28,5.9-5.29v-8.66h-2.81V56.32L104.59,56.32z"/>
<path class="st0" d="M115.16,51.84c-2.05,0-2.79,1.22-3.06,1.64l-0.08-1.42h-2.64c0.06,0.66,0.06,1.68,0.06,1.72v7.73h2.78V56
	c0-0.73,0.17-1.19,0.33-1.44c0.3-0.45,0.84-0.73,1.43-0.73c0.71,0,1.14,0.39,1.35,0.8c0.15,0.3,0.15,0.64,0.15,1.03v5.85h2.82v-5.09
	c0-1.75-0.06-2.24-0.26-2.81C117.79,52.96,117,51.84,115.16,51.84L115.16,51.84z"/>
<polygon class="st0" points="120.39,61.51 123.14,61.51 123.14,52.09 120.39,52.09 120.39,61.51 "/>
<polygon class="st0" points="129.53,58.49 127.41,52.1 124.46,52.1 127.91,61.52 130.97,61.52 134.36,52.1 131.69,52.1 
	129.53,58.49 "/>
<path class="st0" d="M139.47,51.79c-1.02,0-1.92,0.3-2.64,0.79c-1.58,1.1-1.96,2.92-1.96,4.45c0,1.51,0.35,2.78,1.21,3.67
	c0.98,1.02,2.51,1.17,3.32,1.17c1.38,0,2.6-0.37,3.29-1.1c0.77-0.8,0.86-1.6,0.9-2.05h-2.52c-0.26,1.05-0.95,1.31-1.64,1.31
	c-1.92,0-1.92-1.9-1.92-2.52h6.32c0.04-0.78,0.07-2.16-0.56-3.45C142.42,52.31,140.82,51.79,139.47,51.79L139.47,51.79z
	 M137.61,55.77c0.06-1.1,0.56-2.11,1.77-2.11c1.6,0,1.64,1.68,1.64,2.11H137.61L137.61,55.77z"/>
<path class="st0" d="M148.12,53.88l-0.06-1.81h-2.59c0.06,0.54,0.13,1.9,0.13,2.35v7.1h2.76v-4.64c0-1.17,0.17-2.61,2.96-2.35v-2.48
	C149.09,51.94,148.48,53.07,148.12,53.88L148.12,53.88z"/>
<path class="st0" d="M157.9,55.93l-1.69-0.46c-0.82-0.23-1.28-0.36-1.28-0.99c0-0.58,0.55-0.93,1.3-0.93c0.43,0,1.27,0.08,1.34,1.12
	h2.51c-0.07-1.88-1.64-2.77-3.58-2.77c-2.44,0-4.12,1.12-4.12,2.94c0,1.92,1.62,2.38,2.38,2.61l1.71,0.47
	c1.08,0.3,1.3,0.63,1.3,1.06c0,0.56-0.47,1.12-1.46,1.12c-1.15,0-1.52-0.69-1.56-1.29h-2.59c0.02,0.45,0.08,1.19,0.69,1.84
	c0.86,0.9,2.01,1.16,3.23,1.16c2.93,0,4.32-1.62,4.32-3.24C160.41,57.26,159.61,56.39,157.9,55.93L157.9,55.93z"/>
<polygon class="st0" points="162.17,61.51 164.92,61.51 164.92,52.09 162.17,52.09 162.17,61.51 "/>
<path class="st0" d="M171,48.81l-2.74,0.5v2.85h-1.81v1.82h1.81v5.16c0,0.78,0,2.53,2.78,2.53c0.45,0,1.25-0.06,2.14-0.3v-1.81
	c-0.33,0.04-0.52,0.06-0.93,0.06c-1.23,0-1.23-0.54-1.25-1.4v-4.25h2.24v-1.82H171V48.81L171,48.81z"/>
<path class="st0" d="M183.05,55.35c0-0.43-0.02-1.55-0.65-2.31c-0.94-1.08-2.57-1.21-3.36-1.21c-0.89,0-1.99,0.15-2.85,0.77
	c-0.99,0.71-1.04,1.71-1.06,2.22h2.71c0-0.22,0-0.52,0.2-0.84c0.24-0.35,0.65-0.52,1.04-0.52c0.26,0,0.98,0.09,1.23,0.78
	c0.11,0.33,0.13,0.63,0.13,1.25c-0.91,0-2.57,0-3.73,0.52c-1.73,0.8-1.99,2.18-1.99,2.92c0,0.74,0.26,1.51,0.82,2.07
	c0.37,0.35,0.99,0.74,2.35,0.74c0.52,0,1.77,0,2.81-1.51c0,0.28,0,0.71,0.09,1.29h2.5c-0.17-0.79-0.23-1.58-0.23-2.38L183.05,55.35
	L183.05,55.35z M179.92,59.41c-0.26,0.29-0.67,0.54-1.17,0.54c-0.91,0-1.34-0.71-1.34-1.34c0-1.12,1.27-1.68,3.04-1.53
	C180.44,58.08,180.41,58.81,179.92,59.41L179.92,59.41z"/>
<path class="st0" d="M188.99,49.31l-2.74,1.01v1.85h-1.81v1.82h1.81v5.16c0,0.78,0,2.53,2.78,2.53c0.45,0,1.24-0.06,2.14-0.3v-1.81
	c-0.34,0.04-0.52,0.05-0.93,0.05c-1.23,0-1.23-0.54-1.25-1.4v-4.25h2.24v-1.82h-2.24V49.31L188.99,49.31z"/>
<path class="st0" d="M204.37,53.63c-1.94-0.49-2.92-0.71-2.92-1.96c0-1.1,0.88-1.82,2.22-1.82c1.99,0,2.14,1.59,2.18,2.05h2.78
	c0-0.45,0-1.53-0.76-2.5c-1-1.27-2.66-1.58-4.06-1.58c-3.74,0-5.33,1.96-5.33,4.18c0,2.33,1.75,3.28,4.96,4.08
	c1.71,0.41,2.55,0.62,2.55,1.81c0,1.14-0.99,1.88-2.55,1.88c-2.48,0-2.44-1.92-2.44-2.56h-2.94c0.02,1.31,0.06,4.63,5.22,4.63
	c3.73,0,5.74-1.96,5.74-4.38C208.99,54.82,206.7,54.19,204.37,53.63L204.37,53.63z"/>
<path class="st0" d="M214.5,49.31l-2.74,1.01v1.85h-1.8v1.82h1.8v5.16c0,0.78,0,2.53,2.78,2.53c0.44,0,1.25-0.06,2.14-0.3v-1.81
	c-0.33,0.04-0.52,0.05-0.93,0.05c-1.23,0-1.23-0.54-1.25-1.4v-4.25h2.23v-1.82h-2.23V49.31L214.5,49.31z"/>
<path class="st0" d="M227.02,58.31V52.1h-2.83v4.75c0,1.6,0,2.93-1.77,2.93c-1.47,0-1.47-1.25-1.47-2.07V52.1h-2.8v5.85
	c0,0.46,0,1.77,0.62,2.53c0.52,0.69,1.56,1.26,2.83,1.26c1.79,0,2.5-1.08,2.78-1.49l0.09,1.25h2.68c-0.04-0.26-0.06-0.43-0.08-0.69
	C227.07,60.58,227.05,60.34,227.02,58.31L227.02,58.31z"/>
<path class="st0" d="M239.89,49.31l-2.74,1.01v1.85h-4.04v-2.85l-2.73,1.01v1.85h-1.81v1.82h1.81v5.16c0,0.78,0,2.53,2.78,2.53
	c0.44,0,1.25-0.06,2.14-0.3v-1.81c-0.33,0.04-0.52,0.06-0.93,0.06c-1.22,0-1.22-0.54-1.25-1.4v-4.25h4.04v5.16
	c0,0.78,0,2.53,2.77,2.53c0.45,0,1.25-0.06,2.15-0.3v-1.81c-0.33,0.04-0.52,0.06-0.93,0.06c-1.23,0-1.23-0.54-1.25-1.4v-4.25h2.24
	v-1.82h-2.24V49.31L239.89,49.31z"/>
<path class="st0" d="M250.02,53.39c-0.28-0.41-0.91-1.34-2.63-1.34c-2.7,0-4.02,2.27-4.02,4.66c0,2.27,1.27,4.62,3.97,4.62
	c0.67,0,1.66-0.12,2.53-1.28c-0.02,1.44-0.02,1.77-0.13,2.24c-0.19,0.84-0.9,1.23-1.72,1.23c-1.47,0-1.6-1.02-1.63-1.3h-2.65
	c0.17,2.85,2.8,3.02,4.14,3.02c1.8,0,4.69-0.33,4.69-3.8v-6.95c0-0.95,0.06-1.58,0.13-2.33h-2.59L250.02,53.39L250.02,53.39z
	 M247.97,59.44c-1.84,0-1.84-2.27-1.84-2.74c0-2.01,0.85-2.81,1.9-2.81c1.68,0,1.88,1.81,1.88,2.87
	C249.91,57.17,249.91,59.44,247.97,59.44L247.97,59.44z"/>
<path class="st0" d="M262.55,55.35c0-0.43-0.02-1.55-0.65-2.31c-0.93-1.08-2.57-1.21-3.35-1.21c-0.89,0-2,0.15-2.85,0.77
	c-0.99,0.71-1.04,1.71-1.06,2.22h2.7c0-0.22,0-0.52,0.21-0.84c0.24-0.35,0.65-0.52,1.04-0.52c0.26,0,0.99,0.09,1.23,0.78
	c0.11,0.33,0.13,0.63,0.13,1.25c-0.91,0-2.57,0-3.72,0.52c-1.74,0.8-1.99,2.18-1.99,2.92c0,0.74,0.26,1.51,0.82,2.07
	c0.37,0.35,0.99,0.74,2.35,0.74c0.52,0,1.77,0,2.81-1.51c0,0.28,0,0.71,0.09,1.29h2.5c-0.17-0.79-0.23-1.58-0.23-2.38L262.55,55.35
	L262.55,55.35z M259.42,59.41c-0.26,0.29-0.67,0.54-1.17,0.54c-0.91,0-1.34-0.71-1.34-1.34c0-1.12,1.27-1.68,3.04-1.53
	C259.94,58.08,259.9,58.81,259.42,59.41L259.42,59.41z"/>
<path class="st0" d="M276.73,53.99v-1.82h-2.24v-2.85l-2.74,1v1.85h-1.81l0,0.01c-1.79,0.07-2.35,0.97-2.66,1.71l-0.06-1.81h-2.59
	c0.06,0.54,0.13,1.9,0.13,2.34v7.1h2.76v-4.64c0-1.18-0.04-2.89,2.96-2.89h1.27v5.16c0,0.78,0,2.53,2.78,2.53
	c0.45,0,1.25-0.06,2.14-0.3v-1.81c-0.33,0.04-0.52,0.06-0.93,0.06c-1.23,0-1.23-0.54-1.25-1.4v-4.25H276.73L276.73,53.99z"/>
<path class="st0" d="M177.29,50.76c0.75,0,1.36-0.61,1.36-1.35c0-0.75-0.61-1.35-1.36-1.35c-0.75,0-1.35,0.61-1.35,1.35
	C175.94,50.15,176.55,50.76,177.29,50.76L177.29,50.76z"/>
<path class="st0" d="M180.91,50.76c0.75,0,1.36-0.61,1.36-1.35c0-0.75-0.61-1.35-1.36-1.35c-0.74,0-1.35,0.61-1.35,1.35
	C179.56,50.15,180.16,50.76,180.91,50.76L180.91,50.76z"/>
<path class="st0" d="M163.57,47.92c-0.82,0-1.48,0.67-1.48,1.48c0,0.82,0.66,1.49,1.48,1.49c0.82,0,1.48-0.67,1.48-1.49
	C165.06,48.59,164.39,47.92,163.57,47.92L163.57,47.92z"/>
<path class="st0" d="M121.76,47.92c-0.82,0-1.48,0.67-1.48,1.48c0,0.82,0.66,1.49,1.48,1.49c0.82,0,1.48-0.67,1.48-1.49
	C123.25,48.59,122.58,47.92,121.76,47.92L121.76,47.92z"/>
<g>
	<path class="st0" d="M97.08,71.13v9.39h-1.3v-9.39H97.08z"/>
	<path class="st0" d="M105.05,80.52h-1.25v-4.28c0-0.47-0.15-0.82-0.44-1.07c-0.29-0.24-0.65-0.36-1.07-0.36
		c-0.52,0-0.93,0.18-1.24,0.55c-0.31,0.37-0.46,0.82-0.46,1.36v3.8h-1.22v-6.06c0-0.12,0-0.28-0.01-0.47h1.22
		c0,0.27,0,0.49,0.01,0.66v0.39c0.4-0.79,1.1-1.18,2.09-1.18c0.7,0,1.27,0.2,1.71,0.59c0.44,0.39,0.66,0.93,0.66,1.62V80.52z"/>
</g>
<g>
	<path class="st0" d="M111.94,75.8h-1.25v-0.08c0-0.66-0.42-0.99-1.26-0.99c-0.42,0-0.74,0.08-0.98,0.24
		c-0.23,0.16-0.35,0.39-0.35,0.7c0,0.4,0.26,0.66,0.79,0.79l1.51,0.38c0.57,0.14,1,0.35,1.28,0.63c0.28,0.28,0.42,0.66,0.42,1.14
		c0,0.64-0.24,1.15-0.73,1.53c-0.49,0.38-1.17,0.57-2.05,0.57c-0.83,0-1.47-0.18-1.92-0.55c-0.45-0.37-0.67-0.89-0.67-1.57h1.29
		c0,0.37,0.12,0.66,0.37,0.87c0.25,0.21,0.6,0.31,1.07,0.31c0.44,0,0.78-0.1,1-0.29c0.23-0.19,0.34-0.44,0.34-0.74
		c0-0.39-0.2-0.64-0.61-0.76c-0.41-0.12-0.88-0.24-1.43-0.36c-0.55-0.12-1.01-0.32-1.36-0.58c-0.36-0.27-0.53-0.68-0.53-1.22
		c0-0.59,0.24-1.07,0.71-1.43c0.47-0.36,1.09-0.55,1.84-0.55c0.71,0,1.31,0.14,1.79,0.44c0.49,0.29,0.73,0.74,0.73,1.34V75.8z"/>
	<path class="st0" d="M115.45,73.96h1.46v0.9h-1.46v3.99c0,0.29,0.08,0.5,0.23,0.62c0.15,0.12,0.37,0.18,0.64,0.18
		c0.22,0,0.41-0.02,0.58-0.06v0.95c-0.1,0.02-0.24,0.04-0.42,0.05c-0.18,0.02-0.37,0.03-0.58,0.03c-0.63,0-1.07-0.11-1.31-0.34
		c-0.24-0.23-0.36-0.56-0.36-1.01v-4.39h-1.16v-0.9h1.16V72.6l1.21-0.39V73.96z"/>
</g>
<g>
	<path class="st0" d="M119.75,71.15v1.34h-1.47v-1.34H119.75z M119.63,73.99v6.53h-1.22v-6.53H119.63z"/>
	<path class="st0" d="M123.48,73.96h1.46v0.9h-1.46v3.99c0,0.29,0.08,0.5,0.23,0.62c0.15,0.12,0.37,0.18,0.64,0.18
		c0.22,0,0.41-0.02,0.58-0.06v0.95c-0.1,0.02-0.24,0.04-0.42,0.05c-0.18,0.02-0.37,0.03-0.58,0.03c-0.63,0-1.07-0.11-1.31-0.34
		c-0.24-0.23-0.36-0.56-0.36-1.01v-4.39h-1.16v-0.9h1.16V72.6l1.21-0.39V73.96z"/>
	<path class="st0" d="M132.12,73.99v5.33c0,0.22,0.01,0.62,0.04,1.2h-1.27c-0.01-0.47-0.02-0.84-0.03-1.12
		c-0.23,0.44-0.51,0.75-0.86,0.92c-0.35,0.17-0.75,0.26-1.22,0.26c-0.77,0-1.36-0.2-1.76-0.59c-0.4-0.39-0.6-0.94-0.6-1.64v-4.36
		h1.25v4.24c0,0.49,0.11,0.85,0.34,1.07c0.23,0.22,0.58,0.33,1.05,0.33c0.53,0,0.96-0.15,1.3-0.45c0.34-0.3,0.51-0.72,0.51-1.26
		v-3.93H132.12z"/>
	<path class="st0" d="M135.96,73.96h1.46v0.9h-1.46v3.99c0,0.29,0.08,0.5,0.23,0.62c0.15,0.12,0.37,0.18,0.64,0.18
		c0.22,0,0.41-0.02,0.59-0.06v0.95c-0.1,0.02-0.24,0.04-0.42,0.05c-0.18,0.02-0.37,0.03-0.58,0.03c-0.63,0-1.07-0.11-1.31-0.34
		c-0.24-0.23-0.36-0.56-0.36-1.01v-4.39h-1.16v-0.9h1.16V72.6l1.21-0.39V73.96z"/>
	<path class="st0" d="M146.01,72.04c-0.23-0.02-0.46-0.03-0.68-0.03c-0.35,0-0.6,0.06-0.77,0.17c-0.17,0.11-0.25,0.34-0.25,0.68
		v1.13h1.52v0.88h-1.52v5.64h-1.21v-5.64h-1.29v-0.88h1.29v-1.05c0-0.73,0.17-1.24,0.51-1.53c0.34-0.29,0.81-0.44,1.4-0.44
		c0.17,0,0.34,0.01,0.51,0.03c0.17,0.02,0.33,0.04,0.49,0.06V72.04z"/>
	<path class="st0" d="M152.76,73.99v5.33c0,0.22,0.01,0.62,0.04,1.2h-1.27c-0.01-0.47-0.02-0.84-0.03-1.12
		c-0.23,0.44-0.51,0.75-0.86,0.92c-0.35,0.17-0.75,0.26-1.22,0.26c-0.77,0-1.36-0.2-1.76-0.59c-0.4-0.39-0.6-0.94-0.6-1.64v-4.36
		h1.25v4.24c0,0.49,0.11,0.85,0.34,1.07c0.23,0.22,0.58,0.33,1.05,0.33c0.53,0,0.96-0.15,1.3-0.45c0.34-0.3,0.51-0.72,0.51-1.26
		v-3.93H152.76z M149.36,71.17v1.33h-1.2v-1.33H149.36z M151.83,71.17v1.33h-1.21v-1.33H151.83z"/>
</g>
<g>
	<path class="st0" d="M158.45,73.94v1.2c-0.12-0.04-0.3-0.07-0.55-0.07c-0.66,0-1.13,0.16-1.4,0.49c-0.28,0.33-0.42,0.8-0.42,1.44
		v3.52h-1.23v-5.29c-0.03-0.58-0.05-0.99-0.06-1.24h1.23c0.02,0.52,0.03,0.94,0.03,1.26c0.11-0.44,0.35-0.77,0.72-1
		c0.37-0.22,0.81-0.33,1.33-0.33C158.23,73.92,158.35,73.93,158.45,73.94z"/>
	<path class="st0" d="M167.95,71.13l3.8,9.39h-1.42l-1.01-2.44h-4.35l-1.01,2.44h-1.34l3.95-9.39H167.95z M165.37,77.02h3.55
		l-1.73-4.6L165.37,77.02z"/>
	<path class="st0" d="M176.78,73.94v1.2c-0.12-0.04-0.3-0.07-0.55-0.07c-0.66,0-1.13,0.16-1.4,0.49c-0.28,0.33-0.42,0.8-0.42,1.44
		v3.52h-1.24v-5.29c-0.03-0.58-0.05-0.99-0.07-1.24h1.24c0.02,0.52,0.03,0.94,0.03,1.26c0.11-0.44,0.35-0.77,0.72-1
		c0.37-0.22,0.81-0.33,1.33-0.33C176.56,73.92,176.68,73.93,176.78,73.94z"/>
	<path class="st0" d="M179.48,71.13v3.81c0.22-0.39,0.5-0.67,0.86-0.85c0.36-0.18,0.78-0.27,1.27-0.27c0.92,0,1.62,0.29,2.11,0.87
		c0.49,0.58,0.73,1.38,0.73,2.42c0,1.14-0.27,2.01-0.81,2.61c-0.54,0.59-1.24,0.89-2.1,0.89c-0.44,0-0.84-0.09-1.21-0.27
		c-0.36-0.18-0.66-0.45-0.88-0.83l-0.03,1h-1.18l0.03-1.17v-8.22H179.48z M182.7,75.34c-0.31-0.45-0.77-0.68-1.38-0.69
		c-0.6,0-1.06,0.22-1.38,0.67c-0.32,0.45-0.48,1.09-0.48,1.93c0,0.79,0.15,1.4,0.46,1.83s0.76,0.64,1.36,0.64
		c0.62,0,1.08-0.23,1.4-0.7c0.32-0.46,0.48-1.08,0.48-1.84C183.16,76.41,183,75.79,182.7,75.34z"/>
	<path class="st0" d="M191.73,77.47h-4.69v0.1c0,0.7,0.16,1.25,0.49,1.65c0.33,0.4,0.79,0.6,1.38,0.6c0.44,0,0.8-0.11,1.07-0.34
		c0.27-0.23,0.42-0.57,0.47-1.01h1.22c-0.05,0.68-0.33,1.22-0.83,1.62c-0.5,0.41-1.16,0.61-1.98,0.61c-1.01,0-1.76-0.29-2.27-0.87
		c-0.51-0.58-0.76-1.42-0.76-2.52c0-1.13,0.27-2,0.81-2.6c0.54-0.6,1.29-0.9,2.27-0.9c1.85,0,2.79,1.04,2.82,3.13V77.47z
		 M190.48,76.61v-0.09c0-0.58-0.13-1.03-0.4-1.35c-0.26-0.32-0.67-0.48-1.22-0.48c-0.52,0-0.94,0.17-1.27,0.51
		c-0.32,0.34-0.5,0.81-0.51,1.41H190.48z"/>
	<path class="st0" d="M194.96,71.15v1.34h-1.47v-1.34H194.96z M194.84,73.99v6.53h-1.22v-6.53H194.84z"/>
	<path class="st0" d="M198.68,73.96h1.46v0.9h-1.46v3.99c0,0.29,0.08,0.5,0.23,0.62c0.15,0.12,0.37,0.18,0.64,0.18
		c0.22,0,0.41-0.02,0.58-0.06v0.95c-0.1,0.02-0.25,0.04-0.42,0.05c-0.18,0.02-0.37,0.03-0.58,0.03c-0.63,0-1.07-0.11-1.31-0.34
		c-0.24-0.23-0.36-0.56-0.36-1.01v-4.39h-1.16v-0.9h1.16V72.6l1.21-0.39V73.96z"/>
</g>
<g>
	<path class="st0" d="M206.29,75.8h-1.25v-0.08c0-0.66-0.42-0.99-1.26-0.99c-0.42,0-0.74,0.08-0.97,0.24
		c-0.23,0.16-0.35,0.39-0.35,0.7c0,0.4,0.26,0.66,0.79,0.79l1.51,0.38c0.57,0.14,1,0.35,1.28,0.63c0.28,0.28,0.42,0.66,0.42,1.14
		c0,0.64-0.24,1.15-0.73,1.53c-0.49,0.38-1.17,0.57-2.05,0.57c-0.83,0-1.47-0.18-1.92-0.55c-0.45-0.37-0.67-0.89-0.67-1.57h1.29
		c0,0.37,0.12,0.66,0.37,0.87c0.25,0.21,0.6,0.31,1.07,0.31c0.44,0,0.78-0.1,1-0.29s0.34-0.44,0.34-0.74c0-0.39-0.2-0.64-0.61-0.76
		c-0.41-0.12-0.88-0.24-1.43-0.36c-0.55-0.12-1.01-0.32-1.37-0.58c-0.36-0.27-0.53-0.68-0.53-1.22c0-0.59,0.24-1.07,0.71-1.43
		c0.47-0.36,1.09-0.55,1.84-0.55c0.71,0,1.31,0.14,1.79,0.44c0.49,0.29,0.73,0.74,0.73,1.34V75.8z"/>
	<path class="st0" d="M208.62,73.99l1.57,5.2l1.65-5.2h1.6l1.48,5.15l1.64-5.15h1.26l-2.3,6.53h-1.4l-1.53-5.37l-1.7,5.37h-1.44
		l-2.16-6.53H208.62z"/>
	<path class="st0" d="M220.54,71.15v1.34h-1.47v-1.34H220.54z M220.42,73.99v6.53h-1.22v-6.53H220.42z"/>
	<path class="st0" d="M227.51,75.8h-1.25v-0.08c0-0.66-0.42-0.99-1.26-0.99c-0.42,0-0.74,0.08-0.97,0.24
		c-0.23,0.16-0.35,0.39-0.35,0.7c0,0.4,0.26,0.66,0.79,0.79l1.51,0.38c0.57,0.14,1,0.35,1.28,0.63c0.28,0.28,0.42,0.66,0.42,1.14
		c0,0.64-0.24,1.15-0.73,1.53c-0.49,0.38-1.17,0.57-2.05,0.57c-0.83,0-1.47-0.18-1.92-0.55c-0.45-0.37-0.67-0.89-0.67-1.57h1.29
		c0,0.37,0.12,0.66,0.37,0.87c0.25,0.21,0.6,0.31,1.07,0.31c0.44,0,0.78-0.1,1-0.29s0.34-0.44,0.34-0.74c0-0.39-0.2-0.64-0.61-0.76
		c-0.41-0.12-0.88-0.24-1.43-0.36c-0.55-0.12-1.01-0.32-1.37-0.58c-0.36-0.27-0.53-0.68-0.53-1.22c0-0.59,0.24-1.07,0.71-1.43
		c0.47-0.36,1.09-0.55,1.84-0.55c0.71,0,1.31,0.14,1.79,0.44c0.49,0.29,0.73,0.74,0.73,1.34V75.8z"/>
	<path class="st0" d="M234.1,75.8h-1.25v-0.08c0-0.66-0.42-0.99-1.26-0.99c-0.42,0-0.74,0.08-0.97,0.24
		c-0.23,0.16-0.35,0.39-0.35,0.7c0,0.4,0.26,0.66,0.79,0.79l1.51,0.38c0.57,0.14,1,0.35,1.28,0.63c0.28,0.28,0.42,0.66,0.42,1.14
		c0,0.64-0.24,1.15-0.73,1.53c-0.49,0.38-1.17,0.57-2.05,0.57c-0.83,0-1.47-0.18-1.92-0.55c-0.45-0.37-0.67-0.89-0.67-1.57h1.29
		c0,0.37,0.12,0.66,0.37,0.87s0.6,0.31,1.07,0.31c0.44,0,0.78-0.1,1-0.29c0.23-0.19,0.34-0.44,0.34-0.74c0-0.39-0.2-0.64-0.61-0.76
		c-0.41-0.12-0.88-0.24-1.43-0.36c-0.55-0.12-1.01-0.32-1.37-0.58c-0.36-0.27-0.53-0.68-0.53-1.22c0-0.59,0.24-1.07,0.71-1.43
		c0.47-0.36,1.09-0.55,1.84-0.55c0.71,0,1.31,0.14,1.79,0.44c0.49,0.29,0.73,0.74,0.73,1.34V75.8z"/>
	<path class="st0" d="M241.51,77.47h-4.69v0.1c0,0.7,0.16,1.25,0.49,1.65c0.33,0.4,0.79,0.6,1.38,0.6c0.44,0,0.8-0.11,1.07-0.34
		c0.27-0.23,0.42-0.57,0.47-1.01h1.22c-0.05,0.68-0.33,1.22-0.83,1.62c-0.5,0.41-1.16,0.61-1.98,0.61c-1.01,0-1.76-0.29-2.27-0.87
		c-0.51-0.58-0.76-1.42-0.76-2.52c0-1.13,0.27-2,0.81-2.6c0.54-0.6,1.29-0.9,2.27-0.9c1.85,0,2.79,1.04,2.82,3.13V77.47z
		 M240.26,76.61v-0.09c0-0.58-0.13-1.03-0.4-1.35c-0.26-0.32-0.67-0.48-1.22-0.48c-0.52,0-0.94,0.17-1.27,0.51
		c-0.32,0.34-0.5,0.81-0.51,1.41H240.26z"/>
	<path class="st0" d="M249.12,80.52h-1.25v-4.28c0-0.47-0.15-0.82-0.44-1.07c-0.29-0.24-0.65-0.36-1.07-0.36
		c-0.52,0-0.93,0.18-1.24,0.55c-0.31,0.37-0.46,0.82-0.46,1.36v3.8h-1.22v-6.06c0-0.12,0-0.28-0.01-0.47h1.22
		c0,0.27,0,0.49,0.01,0.66v0.39c0.4-0.79,1.1-1.18,2.09-1.18c0.7,0,1.27,0.2,1.71,0.59c0.44,0.39,0.66,0.93,0.66,1.62V80.52z"/>
	<path class="st0" d="M256.04,75.8h-1.25v-0.08c0-0.66-0.42-0.99-1.26-0.99c-0.42,0-0.74,0.08-0.97,0.24
		c-0.23,0.16-0.35,0.39-0.35,0.7c0,0.4,0.26,0.66,0.79,0.79l1.51,0.38c0.57,0.14,1,0.35,1.28,0.63c0.28,0.28,0.42,0.66,0.42,1.14
		c0,0.64-0.24,1.15-0.73,1.53c-0.49,0.38-1.17,0.57-2.05,0.57c-0.83,0-1.47-0.18-1.92-0.55c-0.45-0.37-0.67-0.89-0.67-1.57h1.29
		c0,0.37,0.12,0.66,0.37,0.87c0.25,0.21,0.6,0.31,1.07,0.31c0.44,0,0.78-0.1,1-0.29s0.34-0.44,0.34-0.74c0-0.39-0.2-0.64-0.61-0.76
		c-0.41-0.12-0.88-0.24-1.43-0.36c-0.55-0.12-1.01-0.32-1.37-0.58c-0.36-0.27-0.53-0.68-0.53-1.22c0-0.59,0.24-1.07,0.71-1.43
		c0.47-0.36,1.09-0.55,1.84-0.55c0.71,0,1.31,0.14,1.79,0.44c0.49,0.29,0.73,0.74,0.73,1.34V75.8z"/>
	<path class="st0" d="M261.74,76.08c-0.03-0.45-0.15-0.79-0.38-1.02c-0.23-0.23-0.53-0.34-0.92-0.34c-0.53,0-0.94,0.2-1.24,0.59
		c-0.3,0.39-0.45,1.02-0.45,1.88c0,1.72,0.54,2.57,1.62,2.57c0.42,0,0.75-0.12,1-0.37c0.25-0.25,0.39-0.6,0.42-1.05h1.24
		c-0.05,0.68-0.32,1.25-0.79,1.68c-0.48,0.44-1.09,0.66-1.83,0.66c-0.91,0-1.63-0.28-2.15-0.83c-0.52-0.55-0.79-1.39-0.79-2.51
		c0-1.11,0.28-1.97,0.83-2.59c0.55-0.62,1.26-0.93,2.13-0.93c0.75,0,1.36,0.2,1.83,0.6c0.46,0.4,0.71,0.96,0.73,1.66H261.74z"/>
	<path class="st0" d="M265.85,71.14v3.81c0.21-0.35,0.5-0.61,0.86-0.8c0.37-0.19,0.79-0.28,1.25-0.28c0.64,0,1.18,0.17,1.62,0.5
		c0.44,0.33,0.66,0.95,0.66,1.84v4.3h-1.25v-3.95c0-0.62-0.12-1.07-0.35-1.35c-0.23-0.27-0.58-0.41-1.05-0.41
		c-0.44,0-0.84,0.15-1.2,0.44c-0.36,0.29-0.54,0.83-0.54,1.61v3.65h-1.24v-9.37H265.85z"/>
</g>
<g>
	<path class="st0" d="M277.56,78.89c0.01,0.4,0.02,0.7,0.04,0.9c0.02,0.2,0.04,0.44,0.06,0.72h-1.1c-0.04-0.15-0.07-0.29-0.09-0.44
		c-0.02-0.15-0.03-0.32-0.03-0.53c-0.2,0.37-0.46,0.66-0.78,0.87c-0.32,0.21-0.74,0.31-1.25,0.31c-0.7,0-1.26-0.18-1.67-0.53
		c-0.41-0.36-0.62-0.82-0.62-1.39c0-0.68,0.27-1.25,0.81-1.68c0.54-0.44,1.37-0.66,2.5-0.66c0.45,0,0.78,0.01,0.99,0.04v-0.55
		c0-0.53-0.13-0.88-0.39-1.06c-0.26-0.18-0.6-0.27-1.03-0.27c-0.38,0-0.68,0.09-0.9,0.28c-0.22,0.19-0.34,0.46-0.36,0.83h-1.22
		c0.04-0.67,0.29-1.16,0.73-1.47c0.44-0.31,1.05-0.47,1.83-0.47c0.72,0,1.32,0.15,1.81,0.45c0.49,0.3,0.73,0.79,0.73,1.46
		L277.56,78.89z M276.39,78.02l0.03-0.68c-0.07-0.01-0.16-0.02-0.28-0.03c-0.12-0.01-0.26-0.01-0.42-0.01
		c-1.57,0-2.35,0.44-2.35,1.31c0,0.33,0.12,0.6,0.34,0.82c0.23,0.22,0.57,0.33,1.01,0.33c0.52,0,0.92-0.16,1.21-0.47
		C276.21,78.98,276.37,78.56,276.39,78.02z"/>
	<path class="st0" d="M283.13,72.04c-0.23-0.02-0.46-0.03-0.68-0.03c-0.35,0-0.6,0.06-0.77,0.17c-0.17,0.11-0.25,0.34-0.25,0.68
		v1.13h1.52v0.88h-1.52v5.64h-1.21v-5.64h-1.29v-0.88h1.29v-1.05c0-0.73,0.17-1.24,0.51-1.53c0.34-0.29,0.81-0.44,1.4-0.44
		c0.17,0,0.34,0.01,0.51,0.03c0.17,0.02,0.33,0.04,0.49,0.06V72.04z"/>
</g>
<g>
	<path class="st0" d="M286.19,73.96h1.46v0.9h-1.46v3.99c0,0.29,0.08,0.5,0.23,0.62c0.15,0.12,0.37,0.18,0.64,0.18
		c0.22,0,0.41-0.02,0.58-0.06v0.95c-0.1,0.02-0.25,0.04-0.42,0.05c-0.18,0.02-0.37,0.03-0.58,0.03c-0.63,0-1.07-0.11-1.31-0.34
		c-0.24-0.23-0.36-0.56-0.36-1.01v-4.39h-1.16v-0.9h1.16V72.6l1.21-0.39V73.96z"/>
</g>
<g>
	<path class="st0" d="M298.42,73.99v5.33c0,0.22,0.01,0.62,0.04,1.2h-1.27c-0.01-0.47-0.02-0.84-0.03-1.12
		c-0.23,0.44-0.51,0.75-0.86,0.92c-0.35,0.17-0.75,0.26-1.22,0.26c-0.77,0-1.36-0.2-1.76-0.59c-0.4-0.39-0.6-0.94-0.6-1.64v-4.36
		h1.25v4.24c0,0.49,0.12,0.85,0.34,1.07c0.23,0.22,0.58,0.33,1.05,0.33c0.53,0,0.96-0.15,1.3-0.45c0.34-0.3,0.51-0.72,0.51-1.26
		v-3.93H298.42z"/>
	<path class="st0" d="M306.37,80.52h-1.25v-4.28c0-0.47-0.15-0.82-0.44-1.07c-0.29-0.24-0.65-0.36-1.07-0.36
		c-0.52,0-0.93,0.18-1.24,0.55c-0.31,0.37-0.46,0.82-0.46,1.36v3.8h-1.22v-6.06c0-0.12,0-0.28-0.01-0.47h1.22
		c0,0.27,0,0.49,0.01,0.66v0.39c0.4-0.79,1.1-1.18,2.09-1.18c0.7,0,1.27,0.2,1.71,0.59c0.44,0.39,0.66,0.93,0.66,1.62V80.52z"/>
</g>
<g>
	<path class="st0" d="M314.36,71.14v8.36c0.01,0.23,0.03,0.57,0.05,1.01h-1.22c0-0.27-0.01-0.62-0.03-1.04
		c-0.18,0.36-0.47,0.65-0.87,0.86c-0.39,0.21-0.83,0.31-1.32,0.31c-0.83,0-1.51-0.29-2.03-0.87c-0.52-0.58-0.79-1.4-0.79-2.44
		c0-1.11,0.27-1.98,0.81-2.61c0.54-0.63,1.25-0.95,2.14-0.95c0.45,0,0.85,0.09,1.2,0.26c0.35,0.17,0.62,0.46,0.83,0.85v-3.73H314.36
		z M312.63,75.28c-0.36-0.4-0.82-0.6-1.39-0.6c-0.57,0-1.01,0.22-1.32,0.66c-0.31,0.44-0.46,1.09-0.46,1.96c0,1.66,0.6,2.5,1.79,2.5
		c0.62,0,1.1-0.22,1.43-0.66c0.33-0.44,0.49-1.1,0.49-1.98C313.17,76.31,312.99,75.69,312.63,75.28z"/>
</g>
<g>
	<path class="st0" d="M102.49,90.13v1.1h-3.15v8.28h-1.29v-8.28h-3.15v-1.1H102.49z"/>
	<path class="st0" d="M108.13,96.47h-4.69v0.1c0,0.7,0.16,1.25,0.49,1.65c0.32,0.4,0.79,0.6,1.38,0.6c0.44,0,0.8-0.11,1.07-0.34
		c0.27-0.23,0.42-0.57,0.47-1.01h1.22c-0.05,0.68-0.33,1.22-0.83,1.62c-0.5,0.41-1.16,0.61-1.98,0.61c-1.01,0-1.76-0.29-2.27-0.87
		c-0.51-0.58-0.76-1.42-0.76-2.52c0-1.13,0.27-2,0.81-2.6c0.54-0.6,1.3-0.9,2.27-0.9c1.85,0,2.79,1.04,2.82,3.13V96.47z
		 M106.88,95.61v-0.09c0-0.58-0.13-1.03-0.4-1.35c-0.26-0.32-0.67-0.48-1.22-0.48c-0.52,0-0.94,0.17-1.27,0.51
		c-0.33,0.34-0.5,0.81-0.51,1.41H106.88z"/>
</g>
<g>
	<path class="st0" d="M113.83,95.08c-0.03-0.45-0.15-0.79-0.38-1.02c-0.23-0.23-0.53-0.34-0.92-0.34c-0.53,0-0.94,0.2-1.24,0.59
		c-0.3,0.39-0.45,1.02-0.45,1.88c0,1.72,0.54,2.57,1.62,2.57c0.42,0,0.75-0.12,1-0.37c0.25-0.25,0.39-0.6,0.42-1.05h1.23
		c-0.05,0.68-0.32,1.25-0.79,1.68s-1.09,0.66-1.83,0.66c-0.91,0-1.63-0.28-2.15-0.83c-0.52-0.55-0.79-1.39-0.79-2.51
		c0-1.11,0.27-1.97,0.83-2.59c0.55-0.62,1.26-0.93,2.13-0.93c0.75,0,1.36,0.2,1.83,0.6c0.46,0.4,0.71,0.96,0.73,1.66H113.83z"/>
	<path class="st0" d="M117.98,90.14v3.81c0.21-0.35,0.5-0.61,0.86-0.8c0.37-0.19,0.79-0.28,1.25-0.28c0.64,0,1.18,0.17,1.62,0.5
		c0.44,0.33,0.66,0.95,0.66,1.84v4.3h-1.25v-3.95c0-0.62-0.12-1.07-0.35-1.35c-0.23-0.27-0.58-0.41-1.05-0.41
		c-0.44,0-0.84,0.15-1.2,0.44c-0.36,0.29-0.54,0.83-0.54,1.61v3.65h-1.23v-9.37H117.98z"/>
</g>
<g>
	<path class="st0" d="M130.26,99.52h-1.25v-4.28c0-0.47-0.15-0.82-0.44-1.07c-0.29-0.24-0.65-0.36-1.07-0.36
		c-0.52,0-0.93,0.18-1.24,0.55c-0.31,0.37-0.46,0.82-0.46,1.36v3.8h-1.22v-6.06c0-0.12,0-0.28-0.01-0.47h1.22
		c0,0.27,0,0.49,0.01,0.66v0.39c0.4-0.79,1.1-1.18,2.09-1.18c0.7,0,1.27,0.2,1.71,0.59c0.44,0.39,0.66,0.93,0.66,1.62V99.52z"/>
	<path class="st0" d="M132.86,98.81c-0.58-0.62-0.86-1.44-0.86-2.48c0-1.09,0.29-1.95,0.88-2.57c0.59-0.62,1.4-0.94,2.43-0.94
		c1.01,0,1.79,0.3,2.35,0.91c0.56,0.61,0.84,1.45,0.84,2.52c0,1.07-0.3,1.91-0.91,2.54c-0.61,0.63-1.4,0.94-2.39,0.94
		C134.22,99.74,133.44,99.43,132.86,98.81z M136.71,94.37c-0.33-0.44-0.8-0.66-1.4-0.66c-0.6,0-1.09,0.22-1.47,0.67
		c-0.38,0.45-0.57,1.06-0.57,1.84c0,0.78,0.17,1.41,0.51,1.88c0.34,0.48,0.82,0.71,1.44,0.71c0.6,0,1.08-0.23,1.44-0.68
		c0.36-0.46,0.55-1.1,0.55-1.94C137.21,95.42,137.05,94.81,136.71,94.37z"/>
	<path class="st0" d="M141.67,90.14v9.37h-1.22v-9.37H141.67z"/>
	<path class="st0" d="M144.42,98.81c-0.58-0.62-0.86-1.44-0.86-2.48c0-1.09,0.29-1.95,0.88-2.57c0.59-0.62,1.4-0.94,2.43-0.94
		c1.01,0,1.79,0.3,2.35,0.91c0.56,0.61,0.84,1.45,0.84,2.52c0,1.07-0.3,1.91-0.91,2.54c-0.61,0.63-1.4,0.94-2.39,0.94
		C145.78,99.74,145,99.43,144.42,98.81z M148.27,94.37c-0.33-0.44-0.8-0.66-1.4-0.66c-0.6,0-1.09,0.22-1.47,0.67
		c-0.38,0.45-0.57,1.06-0.57,1.84c0,0.78,0.17,1.41,0.51,1.88c0.34,0.48,0.82,0.71,1.44,0.71c0.6,0,1.08-0.23,1.44-0.68
		c0.36-0.46,0.55-1.1,0.55-1.94C148.77,95.42,148.6,94.81,148.27,94.37z"/>
	<path class="st0" d="M157.66,92.99c-0.01,0.45-0.02,0.94-0.03,1.46l-0.01,3.73c0,0.93-0.03,1.65-0.1,2.16
		c-0.07,0.51-0.33,0.94-0.79,1.28c-0.46,0.34-1.18,0.51-2.14,0.51c-0.88,0-1.55-0.14-2-0.42c-0.45-0.28-0.7-0.84-0.74-1.68h1.3
		c0.03,0.47,0.17,0.8,0.42,0.99c0.24,0.19,0.61,0.29,1.1,0.29c0.45,0,0.79-0.08,1.03-0.24c0.23-0.16,0.41-0.39,0.53-0.7
		c0.12-0.31,0.18-1,0.18-2.06c-0.15,0.34-0.41,0.61-0.77,0.81c-0.37,0.2-0.83,0.3-1.37,0.3c-0.93,0-1.62-0.29-2.07-0.88
		c-0.45-0.59-0.68-1.37-0.68-2.33c0-1.01,0.27-1.82,0.8-2.41c0.53-0.59,1.23-0.88,2.1-0.88c0.91,0,1.59,0.33,2.05,0.99l0.01-0.9
		H157.66z M155.88,94.29c-0.37-0.35-0.83-0.52-1.36-0.52c-0.56,0-0.98,0.21-1.29,0.62c-0.3,0.42-0.46,1.01-0.46,1.77
		c0,0.75,0.15,1.33,0.45,1.73c0.3,0.4,0.75,0.6,1.35,0.6c0.55,0,1.01-0.18,1.35-0.53c0.35-0.36,0.52-1.01,0.52-1.98
		C156.44,95.2,156.25,94.64,155.88,94.29z"/>
	<path class="st0" d="M161.28,90.15v1.34h-1.47v-1.34H161.28z M161.16,92.99v6.53h-1.22v-6.53H161.16z"/>
	<path class="st0" d="M168.97,96.47h-4.69v0.1c0,0.7,0.16,1.25,0.49,1.65c0.33,0.4,0.79,0.6,1.38,0.6c0.44,0,0.8-0.11,1.07-0.34
		s0.42-0.57,0.47-1.01h1.22c-0.05,0.68-0.33,1.22-0.83,1.62c-0.5,0.41-1.16,0.61-1.98,0.61c-1,0-1.76-0.29-2.27-0.87
		c-0.51-0.58-0.76-1.42-0.76-2.52c0-1.13,0.27-2,0.81-2.6c0.54-0.6,1.3-0.9,2.28-0.9c1.85,0,2.79,1.04,2.82,3.13V96.47z
		 M167.72,95.61v-0.09c0-0.58-0.13-1.03-0.4-1.35c-0.26-0.32-0.67-0.48-1.21-0.48c-0.52,0-0.94,0.17-1.27,0.51
		c-0.33,0.34-0.5,0.81-0.51,1.41H167.72z"/>
	<path class="st0" d="M176.16,94.04c0.47-0.81,1.2-1.22,2.18-1.22c0.74,0,1.32,0.2,1.75,0.59c0.43,0.39,0.65,0.96,0.65,1.7v4.41
		h-1.24V95.2c0-0.48-0.13-0.83-0.4-1.07c-0.27-0.24-0.62-0.36-1.07-0.36c-0.43,0-0.82,0.15-1.16,0.44
		c-0.34,0.29-0.51,0.77-0.51,1.44v3.87h-1.24v-4.33c0-0.42-0.12-0.76-0.36-1.02c-0.24-0.26-0.6-0.4-1.07-0.4
		c-0.46,0-0.86,0.15-1.2,0.46c-0.34,0.3-0.51,0.76-0.51,1.37v3.93h-1.24v-5.66l-0.03-0.87h1.23v0.95c0.21-0.34,0.47-0.61,0.8-0.81
		c0.33-0.2,0.75-0.31,1.27-0.31c0.48,0,0.9,0.09,1.26,0.26C175.65,93.25,175.94,93.57,176.16,94.04z"/>
	<path class="st0" d="M188.02,97.89c0.01,0.4,0.02,0.7,0.04,0.9c0.02,0.2,0.04,0.44,0.06,0.72h-1.1c-0.04-0.15-0.07-0.29-0.09-0.44
		c-0.02-0.15-0.03-0.32-0.03-0.53c-0.2,0.37-0.46,0.66-0.78,0.87c-0.32,0.21-0.74,0.31-1.25,0.31c-0.7,0-1.26-0.18-1.67-0.53
		c-0.41-0.36-0.62-0.82-0.62-1.39c0-0.68,0.27-1.25,0.81-1.68c0.54-0.44,1.37-0.66,2.5-0.66c0.45,0,0.78,0.01,0.99,0.04v-0.55
		c0-0.53-0.13-0.88-0.39-1.06c-0.26-0.18-0.6-0.27-1.03-0.27c-0.38,0-0.68,0.09-0.9,0.28c-0.22,0.19-0.34,0.46-0.36,0.83h-1.22
		c0.04-0.67,0.29-1.16,0.73-1.47c0.44-0.31,1.05-0.47,1.83-0.47c0.72,0,1.32,0.15,1.81,0.45c0.49,0.3,0.73,0.79,0.73,1.46
		L188.02,97.89z M186.85,97.02l0.03-0.68c-0.07-0.01-0.16-0.02-0.28-0.03c-0.12-0.01-0.26-0.01-0.42-0.01
		c-1.57,0-2.35,0.44-2.35,1.31c0,0.33,0.12,0.6,0.34,0.82c0.23,0.22,0.57,0.33,1.01,0.33c0.52,0,0.92-0.16,1.21-0.47
		C186.67,97.98,186.83,97.56,186.85,97.02z"/>
	<path class="st0" d="M195.99,99.52h-1.25v-4.28c0-0.47-0.15-0.82-0.44-1.07c-0.29-0.24-0.65-0.36-1.07-0.36
		c-0.52,0-0.93,0.18-1.24,0.55c-0.31,0.37-0.46,0.82-0.46,1.36v3.8h-1.22v-6.06c0-0.12,0-0.28-0.01-0.47h1.22
		c0,0.27,0,0.49,0.01,0.66v0.39c0.4-0.79,1.1-1.18,2.09-1.18c0.7,0,1.27,0.2,1.71,0.59c0.44,0.39,0.66,0.93,0.66,1.62V99.52z"/>
	<path class="st0" d="M203.19,97.89c0.01,0.4,0.02,0.7,0.04,0.9c0.02,0.2,0.04,0.44,0.06,0.72h-1.1c-0.04-0.15-0.07-0.29-0.09-0.44
		c-0.02-0.15-0.03-0.32-0.03-0.53c-0.2,0.37-0.46,0.66-0.78,0.87c-0.32,0.21-0.74,0.31-1.25,0.31c-0.7,0-1.26-0.18-1.67-0.53
		c-0.41-0.36-0.62-0.82-0.62-1.39c0-0.68,0.27-1.25,0.81-1.68c0.54-0.44,1.37-0.66,2.5-0.66c0.45,0,0.78,0.01,0.99,0.04v-0.55
		c0-0.53-0.13-0.88-0.39-1.06c-0.26-0.18-0.6-0.27-1.03-0.27c-0.38,0-0.68,0.09-0.9,0.28c-0.22,0.19-0.34,0.46-0.36,0.83h-1.22
		c0.04-0.67,0.29-1.16,0.73-1.47c0.44-0.31,1.05-0.47,1.83-0.47c0.72,0,1.32,0.15,1.81,0.45c0.49,0.3,0.73,0.79,0.73,1.46
		L203.19,97.89z M202.02,97.02l0.03-0.68c-0.07-0.01-0.16-0.02-0.28-0.03c-0.12-0.01-0.26-0.01-0.42-0.01
		c-1.57,0-2.35,0.44-2.35,1.31c0,0.33,0.12,0.6,0.34,0.82c0.23,0.22,0.57,0.33,1.01,0.33c0.52,0,0.92-0.16,1.21-0.47
		C201.85,97.98,202,97.56,202.02,97.02z"/>
	<path class="st0" d="M211.12,92.99c-0.01,0.45-0.02,0.94-0.03,1.46l-0.01,3.73c0,0.93-0.03,1.65-0.1,2.16
		c-0.07,0.51-0.33,0.94-0.79,1.28c-0.46,0.34-1.18,0.51-2.14,0.51c-0.88,0-1.55-0.14-2-0.42c-0.45-0.28-0.7-0.84-0.74-1.68h1.3
		c0.03,0.47,0.17,0.8,0.42,0.99c0.24,0.19,0.61,0.29,1.1,0.29c0.45,0,0.79-0.08,1.03-0.24c0.23-0.16,0.41-0.39,0.53-0.7
		c0.12-0.31,0.18-1,0.18-2.06c-0.15,0.34-0.41,0.61-0.77,0.81c-0.37,0.2-0.83,0.3-1.37,0.3c-0.93,0-1.62-0.29-2.07-0.88
		c-0.45-0.59-0.68-1.37-0.68-2.33c0-1.01,0.27-1.82,0.8-2.41c0.53-0.59,1.23-0.88,2.1-0.88c0.91,0,1.59,0.33,2.05,0.99l0.01-0.9
		H211.12z M209.34,94.29c-0.37-0.35-0.83-0.52-1.37-0.52c-0.55,0-0.98,0.21-1.29,0.62c-0.3,0.42-0.46,1.01-0.46,1.77
		c0,0.75,0.15,1.33,0.45,1.73c0.3,0.4,0.75,0.6,1.35,0.6c0.55,0,1-0.18,1.35-0.53c0.35-0.36,0.52-1.01,0.52-1.98
		C209.89,95.2,209.71,94.64,209.34,94.29z"/>
	<path class="st0" d="M218.81,96.47h-4.69v0.1c0,0.7,0.16,1.25,0.49,1.65c0.33,0.4,0.79,0.6,1.38,0.6c0.44,0,0.8-0.11,1.07-0.34
		s0.42-0.57,0.47-1.01h1.22c-0.05,0.68-0.33,1.22-0.83,1.62c-0.5,0.41-1.16,0.61-1.98,0.61c-1.01,0-1.76-0.29-2.27-0.87
		c-0.51-0.58-0.76-1.42-0.76-2.52c0-1.13,0.27-2,0.81-2.6c0.54-0.6,1.29-0.9,2.27-0.9c1.85,0,2.79,1.04,2.82,3.13V96.47z
		 M217.56,95.61v-0.09c0-0.58-0.13-1.03-0.4-1.35c-0.26-0.32-0.67-0.48-1.22-0.48c-0.52,0-0.94,0.17-1.27,0.51
		c-0.32,0.34-0.5,0.81-0.51,1.41H217.56z"/>
	<path class="st0" d="M226,94.04c0.47-0.81,1.2-1.22,2.18-1.22c0.74,0,1.32,0.2,1.75,0.59c0.43,0.39,0.65,0.96,0.65,1.7v4.41h-1.24
		V95.2c0-0.48-0.13-0.83-0.4-1.07c-0.27-0.24-0.62-0.36-1.07-0.36c-0.43,0-0.82,0.15-1.16,0.44c-0.34,0.29-0.51,0.77-0.51,1.44v3.87
		h-1.24v-4.33c0-0.42-0.12-0.76-0.36-1.02c-0.24-0.26-0.6-0.4-1.07-0.4c-0.46,0-0.86,0.15-1.2,0.46c-0.34,0.3-0.51,0.76-0.51,1.37
		v3.93h-1.24v-5.66l-0.03-0.87h1.23v0.95c0.21-0.34,0.47-0.61,0.8-0.81c0.33-0.2,0.75-0.31,1.27-0.31c0.48,0,0.9,0.09,1.26,0.26
		C225.49,93.25,225.78,93.57,226,94.04z"/>
	<path class="st0" d="M238.31,96.47h-4.69v0.1c0,0.7,0.16,1.25,0.49,1.65c0.33,0.4,0.79,0.6,1.38,0.6c0.44,0,0.8-0.11,1.07-0.34
		s0.42-0.57,0.47-1.01h1.22c-0.05,0.68-0.33,1.22-0.83,1.62c-0.5,0.41-1.16,0.61-1.98,0.61c-1.01,0-1.76-0.29-2.27-0.87
		c-0.51-0.58-0.76-1.42-0.76-2.52c0-1.13,0.27-2,0.81-2.6c0.54-0.6,1.29-0.9,2.27-0.9c1.85,0,2.79,1.04,2.82,3.13V96.47z
		 M237.06,95.61v-0.09c0-0.58-0.13-1.03-0.4-1.35c-0.26-0.32-0.67-0.48-1.22-0.48c-0.52,0-0.94,0.17-1.27,0.51
		c-0.32,0.34-0.5,0.81-0.51,1.41H237.06z"/>
	<path class="st0" d="M245.83,99.52h-1.25v-4.28c0-0.47-0.15-0.82-0.44-1.07c-0.29-0.24-0.65-0.36-1.07-0.36
		c-0.52,0-0.93,0.18-1.24,0.55c-0.31,0.37-0.46,0.82-0.46,1.36v3.8h-1.22v-6.06c0-0.12,0-0.28-0.01-0.47h1.22
		c0,0.27,0,0.49,0.01,0.66v0.39c0.4-0.79,1.1-1.18,2.09-1.18c0.7,0,1.27,0.2,1.71,0.59c0.44,0.39,0.66,0.93,0.66,1.62V99.52z"/>
	<path class="st0" d="M249.41,92.96h1.46v0.9h-1.46v3.99c0,0.29,0.08,0.5,0.23,0.62c0.15,0.12,0.37,0.18,0.64,0.18
		c0.22,0,0.41-0.02,0.58-0.06v0.95c-0.1,0.02-0.25,0.04-0.42,0.05c-0.18,0.02-0.37,0.03-0.58,0.03c-0.63,0-1.07-0.11-1.31-0.34
		c-0.24-0.23-0.36-0.56-0.36-1.01v-4.39h-1.16v-0.9h1.16V91.6l1.21-0.39V92.96z"/>
</g>
<g>
	<path class="st0" d="M257.22,90.13v9.39h-1.3v-9.39H257.22z"/>
	<path class="st0" d="M264.01,90.13l3.8,9.39h-1.42l-1.01-2.44h-4.36L260,99.52h-1.34l3.95-9.39H264.01z M261.43,96.02h3.55
		l-1.73-4.6L261.43,96.02z"/>
</g>
<g>
	<path class="st0" d="M274.8,90.13v1.1h-3.15v8.28h-1.29v-8.28h-3.15v-1.1H274.8z"/>
</g>
</svg>
