<svg width="887" height="247" xmlns="http://www.w3.org/2000/svg" xmlns:xlink="http://www.w3.org/1999/xlink" xml:space="preserve" overflow="hidden"><defs><clipPath id="clip0"><rect x="1409" y="1958" width="170" height="248"/></clipPath><clipPath id="clip1"><rect x="1409" y="1958" width="170" height="248"/></clipPath></defs><g transform="translate(-1409 -1958)"><path d="M0 0 143.054 0 143.054 143.054 2.61731e-06 143.054Z" fill="#FFFFFF" transform="matrix(1.00216 0 0 1 1409 1958)"/><path d="M0 142.986C34.0311 125.558 83.8771 97.3935 143.054 56.1582L143.054 42.3331C90.9784 76.2613 38.0106 103.466 0 121.476L0 142.986Z" fill="#FFFFFF" transform="matrix(1.00216 0 0 1 1409 1958)"/><path d="M0 101.716C37.9077 86.3471 90.8755 62.6077 143.054 31.7327L143.054 24.8715C93.9973 49.0913 43.0192 64.2543 0 73.7227L0 101.716Z" fill="#FFFFFF" transform="matrix(1.00216 0 0 1 1409 1958)"/><path d="M143.054 143.054 143.054 73.4825C110.498 100.824 78.251 124.461 51.1496 143.054L143.054 143.054Z" fill="#FFFFFF" transform="matrix(1.00216 0 0 1 1409 1958)"/><path d="M32.8647 143.054C58.5939 127.857 89.812 108.028 120.927 84.8377 128.2 79.4174 135.576 73.8599 143.089 68.0966L143.089 59.4859C97.0162 93.8258 50.0518 122.437 13.3449 143.054L32.8647 143.054Z" fill="#FFFFFF" transform="matrix(1.00216 0 0 1 1409 1958)"/><path d="M0 63.6025C41.8528 56.2611 93.0367 43.0878 143.054 19.4513L143.054 11.6982C92.6594 34.2027 42.1959 43.7396 0 47.1359L0 63.6025Z" fill="#FFFFFF" transform="matrix(1.00216 0 0 1 1409 1958)"/><path d="M0 0 0 39.8631C3.12181 39.6572 6.31223 39.4514 9.57126 39.2113 44.3571 36.5354 91.836 30.429 143.054 8.40487L143.054 0 0 0Z" fill="#FFFFFF" transform="matrix(1.00216 0 0 1 1409 1958)"/><path d="M836.816 143.054 855.135 143.054 855.135 117.222C855.135 107.102 855.135 88.5427 870.024 88.5427 873.317 88.5427 876.61 89.0916 878.223 90.0521L878.223 71.5957C876.302 71.0468 874.381 71.0468 872.597 71.0468 861.653 71.0468 854.175 82.1276 853.351 88.6799L853.077 88.6799 853.077 72.6935 836.85 72.6935 836.85 143.054ZM818.531 124.186C811.704 127.994 804.054 131.287 795.169 131.287 783.848 131.287 775.924 124.872 775.1 113.517L823.711 113.517C823.711 88.9201 816.336 71.0468 790.229 71.0468 768.376 71.0468 757.604 87.8566 757.604 108.2 757.604 131.287 771.121 144.701 794.346 144.701 804.191 144.701 811.807 142.78 818.531 139.109L818.531 124.186ZM775.066 100.961C775.889 91.5273 781.069 84.426 791.327 84.426 801.584 84.426 805.701 92.0762 806.215 100.961L775.066 100.961ZM716.609 143.054 734.928 143.054 734.928 86.0727 750.915 86.0727 750.915 72.6935 734.928 72.6935 734.928 63.9456C734.928 58.491 736.849 53.1393 742.99 53.1393 746.935 53.1393 749.268 54.6488 750.88 55.6093L752.39 40.4463C748.856 39.6229 743.642 38.9368 739.011 38.9368 724.534 38.9368 716.609 48.7825 716.609 62.8478L716.609 72.6935 703.093 72.6935 703.093 86.0727 716.609 86.0727 716.609 143.054ZM643.779 106.141C643.779 95.6439 649.508 85.2494 661.412 85.2494 673.453 85.2494 679.182 95.3695 679.182 106.141 679.182 117.908 675.511 130.464 661.412 130.464 647.449 130.464 643.779 117.771 643.779 106.141M624.636 108.337C624.636 128.543 638.187 144.667 661.412 144.667 684.774 144.667 698.29 128.543 698.29 108.337 698.29 85.1121 682.338 71.0468 661.412 71.0468 640.657 71.0468 624.636 85.1121 624.636 108.337M548.409 143.054 566.728 143.054 566.728 108.611C566.728 99.6234 569.61 85.2494 582.852 85.2494 594.619 85.2494 594.721 96.879 594.721 105.49L594.721 143.054 613.006 143.054 613.006 98.6285C613.006 82.7794 605.768 71.0468 589.095 71.0468 579.524 71.0468 571.599 75.438 566.968 82.2648L566.659 82.2648 566.659 40.5835 548.34 40.5835 548.34 143.054ZM464.943 143.054 483.263 143.054 483.263 108.611C483.263 99.6234 486.144 85.2494 499.386 85.2494 511.119 85.2494 511.256 96.879 511.256 105.49L511.256 143.054 529.575 143.054 529.575 98.6285C529.575 82.7794 522.337 71.0468 505.664 71.0468 496.093 71.0468 488.306 74.203 482.577 82.2648L482.268 82.2648 482.268 72.6935 464.943 72.6935 464.943 143.054ZM446.11 72.6935 427.791 72.6935 427.791 107.136C427.791 116.159 424.943 130.498 411.667 130.498 399.9 130.498 399.763 118.869 399.763 110.258L399.763 72.6935 381.444 72.6935 381.444 117.085C381.444 132.934 388.682 144.667 405.355 144.667 414.926 144.667 422.851 140.275 428.442 133.449L428.717 133.449 428.717 143.02 446.075 143.02 446.075 72.6935ZM321.203 122.677C321.203 111.87 333.347 110.498 341.581 110.498L349.505 110.498C349.505 115.987 348.682 121.03 345.663 124.975 342.781 128.783 338.425 131.253 332.833 131.253 326.28 131.322 321.203 128.715 321.203 122.677M311.941 92.0762C318.081 87.4106 325.869 84.426 333.656 84.426 344.428 84.426 349.505 88.2339 349.505 99.5891L339.385 99.5891C331.735 99.5891 322.713 100.241 315.749 103.671 308.785 107.102 303.742 113.243 303.742 123.74 303.742 137.119 315.886 144.632 328.339 144.632 336.675 144.632 345.835 140.241 350.054 132.488L350.329 132.488C350.466 134.649 350.466 139.315 351.152 142.986L367.276 142.986C366.864 137.497 366.589 132.591 366.452 127.274 366.315 122.094 366.178 116.742 366.178 109.641L366.178 100.618C366.178 79.8634 357.293 70.9782 335.852 70.9782 328.064 70.9782 318.493 73.0366 311.392 76.2956L311.941 92.0762ZM256.88 143.054 275.199 143.054 275.199 117.222C275.199 107.102 275.199 88.5427 290.088 88.5427 293.381 88.5427 296.64 89.0916 298.287 90.0521L298.287 71.5957C296.366 71.0468 294.479 71.0468 292.695 71.0468 281.786 71.0468 274.239 82.1276 273.45 88.6799L273.175 88.6799 273.175 72.6935 256.914 72.6935 256.914 143.054ZM190.739 143.054 209.847 143.054 209.847 101.236 242.094 101.236 242.094 86.2099 209.847 86.2099 209.847 62.7106 243.741 62.7106 243.741 47.6847 190.739 47.6847 190.739 143.054Z" fill="#FFFFFF" transform="matrix(1.00216 0 0 1 1409 1958)"/><path d="M767.69 186.005 776.884 186.005 776.884 231.803 767.69 231.803 767.69 186.005Z" fill="#FFFFFF" transform="matrix(1.00216 0 0 1 1409 1958)"/><path d="M799.835 186.005 810.195 186.005 828.171 231.803 818.016 231.803 814.071 221.305 795.512 221.305 791.498 231.803 781.996 231.803 799.835 186.005ZM804.912 195.164 804.775 195.164 798.154 214.067 811.533 214.067 804.912 195.164Z" fill="#FFFFFF" transform="matrix(1.00216 0 0 1 1409 1958)"/><path d="M831.876 208.749C831.876 201.614 833.797 195.919 837.639 191.7 841.447 187.411 847.005 185.25 854.312 185.216 861.585 185.319 867.142 187.48 870.984 191.768 874.826 196.022 876.748 201.682 876.748 208.749 876.713 215.782 874.792 221.477 871.053 225.799 867.211 230.225 861.619 232.489 854.312 232.558 846.97 232.489 841.413 230.225 837.639 225.868 833.797 221.58 831.876 215.885 831.876 208.749ZM841.447 208.749C841.413 213.038 842.373 216.811 844.397 220.105 846.422 223.501 849.715 225.25 854.312 225.353 856.679 225.353 858.703 224.873 860.35 223.912 861.996 222.952 863.334 221.683 864.295 220.105 866.216 216.811 867.176 213.038 867.176 208.749 867.176 204.496 866.182 200.756 864.226 197.532 862.168 194.204 858.874 192.489 854.312 192.42 849.818 192.489 846.559 194.204 844.535 197.532 842.476 200.791 841.447 204.53 841.447 208.749Z" fill="#FFFFFF" transform="matrix(1.00216 0 0 1 1409 1958)"/><g clip-path="url(#clip0)"><g clip-path="url(#clip1)"><path d="M0 0 143.054 0 143.054 143.054 2.61731e-06 143.054Z" fill="#FFFFFF" transform="matrix(1.00538 0 0 1 1409 1958)"/><path d="M0 142.986C34.0311 125.558 83.8771 97.3935 143.054 56.1582L143.054 42.3331C90.9784 76.2613 38.0106 103.466 0 121.476L0 142.986Z" fill="#179C7D" transform="matrix(1.00538 0 0 1 1409 1958)"/><path d="M0 101.716C37.9077 86.3471 90.8755 62.6077 143.054 31.7327L143.054 24.8715C93.9973 49.0913 43.0192 64.2543 0 73.7227L0 101.716Z" fill="#179C7D" transform="matrix(1.00538 0 0 1 1409 1958)"/><path d="M143.054 143.054 143.054 73.4825C110.498 100.824 78.251 124.461 51.1496 143.054L143.054 143.054Z" fill="#179C7D" transform="matrix(1.00538 0 0 1 1409 1958)"/><path d="M32.8647 143.054C58.5939 127.857 89.812 108.028 120.927 84.8377 128.2 79.4174 135.576 73.8599 143.089 68.0966L143.089 59.4859C97.0162 93.8258 50.0518 122.437 13.3449 143.054L32.8647 143.054Z" fill="#179C7D" transform="matrix(1.00538 0 0 1 1409 1958)"/><path d="M0 63.6025C41.8528 56.2611 93.0367 43.0878 143.054 19.4513L143.054 11.6982C92.6594 34.2027 42.1959 43.7396 0 47.1359L0 63.6025Z" fill="#179C7D" transform="matrix(1.00538 0 0 1 1409 1958)"/><path d="M0 0 0 39.8631C3.12181 39.6572 6.31223 39.4514 9.57126 39.2113 44.3571 36.5354 91.836 30.429 143.054 8.40487L143.054 0 0 0Z" fill="#179C7D" transform="matrix(1.00538 0 0 1 1409 1958)"/><path d="M836.816 143.054 855.135 143.054 855.135 117.222C855.135 107.102 855.135 88.5427 870.024 88.5427 873.317 88.5427 876.61 89.0916 878.223 90.0521L878.223 71.5957C876.302 71.0468 874.381 71.0468 872.597 71.0468 861.653 71.0468 854.175 82.1276 853.351 88.6799L853.077 88.6799 853.077 72.6935 836.85 72.6935 836.85 143.054ZM818.531 124.186C811.704 127.994 804.054 131.287 795.169 131.287 783.848 131.287 775.924 124.872 775.1 113.517L823.711 113.517C823.711 88.9201 816.336 71.0468 790.229 71.0468 768.376 71.0468 757.604 87.8566 757.604 108.2 757.604 131.287 771.121 144.701 794.346 144.701 804.191 144.701 811.807 142.78 818.531 139.109L818.531 124.186ZM775.066 100.961C775.889 91.5273 781.069 84.426 791.327 84.426 801.584 84.426 805.701 92.0762 806.215 100.961L775.066 100.961ZM716.609 143.054 734.928 143.054 734.928 86.0727 750.915 86.0727 750.915 72.6935 734.928 72.6935 734.928 63.9456C734.928 58.491 736.849 53.1393 742.99 53.1393 746.935 53.1393 749.268 54.6488 750.88 55.6093L752.39 40.4463C748.856 39.6229 743.642 38.9368 739.011 38.9368 724.534 38.9368 716.609 48.7825 716.609 62.8478L716.609 72.6935 703.093 72.6935 703.093 86.0727 716.609 86.0727 716.609 143.054ZM643.779 106.141C643.779 95.6439 649.508 85.2494 661.412 85.2494 673.453 85.2494 679.182 95.3695 679.182 106.141 679.182 117.908 675.511 130.464 661.412 130.464 647.449 130.464 643.779 117.771 643.779 106.141M624.636 108.337C624.636 128.543 638.187 144.667 661.412 144.667 684.774 144.667 698.29 128.543 698.29 108.337 698.29 85.1121 682.338 71.0468 661.412 71.0468 640.657 71.0468 624.636 85.1121 624.636 108.337M548.409 143.054 566.728 143.054 566.728 108.611C566.728 99.6234 569.61 85.2494 582.852 85.2494 594.619 85.2494 594.721 96.879 594.721 105.49L594.721 143.054 613.006 143.054 613.006 98.6285C613.006 82.7794 605.768 71.0468 589.095 71.0468 579.524 71.0468 571.599 75.438 566.968 82.2648L566.659 82.2648 566.659 40.5835 548.34 40.5835 548.34 143.054ZM464.943 143.054 483.263 143.054 483.263 108.611C483.263 99.6234 486.144 85.2494 499.386 85.2494 511.119 85.2494 511.256 96.879 511.256 105.49L511.256 143.054 529.575 143.054 529.575 98.6285C529.575 82.7794 522.337 71.0468 505.664 71.0468 496.093 71.0468 488.306 74.203 482.577 82.2648L482.268 82.2648 482.268 72.6935 464.943 72.6935 464.943 143.054ZM446.11 72.6935 427.791 72.6935 427.791 107.136C427.791 116.159 424.943 130.498 411.667 130.498 399.9 130.498 399.763 118.869 399.763 110.258L399.763 72.6935 381.444 72.6935 381.444 117.085C381.444 132.934 388.682 144.667 405.355 144.667 414.926 144.667 422.851 140.275 428.442 133.449L428.717 133.449 428.717 143.02 446.075 143.02 446.075 72.6935ZM321.203 122.677C321.203 111.87 333.347 110.498 341.581 110.498L349.505 110.498C349.505 115.987 348.682 121.03 345.663 124.975 342.781 128.783 338.425 131.253 332.833 131.253 326.28 131.322 321.203 128.715 321.203 122.677M311.941 92.0762C318.081 87.4106 325.869 84.426 333.656 84.426 344.428 84.426 349.505 88.2339 349.505 99.5891L339.385 99.5891C331.735 99.5891 322.713 100.241 315.749 103.671 308.785 107.102 303.742 113.243 303.742 123.74 303.742 137.119 315.886 144.632 328.339 144.632 336.675 144.632 345.835 140.241 350.054 132.488L350.329 132.488C350.466 134.649 350.466 139.315 351.152 142.986L367.276 142.986C366.864 137.497 366.589 132.591 366.452 127.274 366.315 122.094 366.178 116.742 366.178 109.641L366.178 100.618C366.178 79.8634 357.293 70.9782 335.852 70.9782 328.064 70.9782 318.493 73.0366 311.392 76.2956L311.941 92.0762ZM256.88 143.054 275.199 143.054 275.199 117.222C275.199 107.102 275.199 88.5427 290.088 88.5427 293.381 88.5427 296.64 89.0916 298.287 90.0521L298.287 71.5957C296.366 71.0468 294.479 71.0468 292.695 71.0468 281.786 71.0468 274.239 82.1276 273.45 88.6799L273.175 88.6799 273.175 72.6935 256.914 72.6935 256.914 143.054ZM190.739 143.054 209.847 143.054 209.847 101.236 242.094 101.236 242.094 86.2099 209.847 86.2099 209.847 62.7106 243.741 62.7106 243.741 47.6847 190.739 47.6847 190.739 143.054Z" transform="matrix(1.00538 0 0 1 1409 1958)"/><path d="M767.69 186.005 776.884 186.005 776.884 231.803 767.69 231.803 767.69 186.005Z" transform="matrix(1.00538 0 0 1 1409 1958)"/><path d="M799.835 186.005 810.195 186.005 828.171 231.803 818.016 231.803 814.071 221.305 795.512 221.305 791.498 231.803 781.996 231.803 799.835 186.005ZM804.912 195.164 804.775 195.164 798.154 214.067 811.533 214.067 804.912 195.164Z" transform="matrix(1.00538 0 0 1 1409 1958)"/><path d="M831.876 208.749C831.876 201.614 833.797 195.919 837.639 191.7 841.447 187.411 847.005 185.25 854.312 185.216 861.585 185.319 867.142 187.48 870.984 191.768 874.826 196.022 876.748 201.682 876.748 208.749 876.713 215.782 874.792 221.477 871.053 225.799 867.211 230.225 861.619 232.489 854.312 232.558 846.97 232.489 841.413 230.225 837.639 225.868 833.797 221.58 831.876 215.885 831.876 208.749ZM841.447 208.749C841.413 213.038 842.373 216.811 844.397 220.105 846.422 223.501 849.715 225.25 854.312 225.353 856.679 225.353 858.703 224.873 860.35 223.912 861.996 222.952 863.334 221.683 864.295 220.105 866.216 216.811 867.176 213.038 867.176 208.749 867.176 204.496 866.182 200.756 864.226 197.532 862.168 194.204 858.874 192.489 854.312 192.42 849.818 192.489 846.559 194.204 844.535 197.532 842.476 200.791 841.447 204.53 841.447 208.749Z" transform="matrix(1.00538 0 0 1 1409 1958)"/></g></g></g></svg>