<svg width="298" height="84" xmlns="http://www.w3.org/2000/svg" xmlns:xlink="http://www.w3.org/1999/xlink" xml:space="preserve" overflow="hidden"><g transform="translate(-401 -462)"><path d="M54.8554 53.4885C54.0672 53.4885 53.4286 54.127 53.4286 54.9152 53.4286 55.7035 54.0672 56.342 54.8554 56.342 55.6436 56.342 56.2821 55.7035 56.2821 54.9152 56.2821 54.127 55.6436 53.4885 54.8554 53.4885" fill="#FFFFFF" transform="matrix(1 0 0 1.00001 379.904 440.501)"/><path d="M58.4472 52.6903C58.4472 51.9021 57.8087 51.2635 57.0205 51.2635 56.2323 51.2635 55.5937 51.9021 55.5937 52.6903 55.5937 53.4785 56.2323 54.1171 57.0205 54.1171 57.8087 54.1171 58.4472 53.4785 58.4472 52.6903" fill="#FFFFFF" transform="matrix(1 0 0 1.00001 379.904 440.501)"/><path d="M58.4472 57.1402C58.4472 56.352 57.8087 55.7134 57.0205 55.7134 56.2323 55.7134 55.5937 56.352 55.5937 57.1402 55.5937 57.9284 56.2323 58.5669 57.0205 58.5669 57.8087 58.5669 58.4472 57.9284 58.4472 57.1402" fill="#FFFFFF" transform="matrix(1 0 0 1.00001 379.904 440.501)"/><path d="M59.4849 53.4186C58.6967 53.4186 58.0581 54.0572 58.0581 54.8454 58.0581 55.6336 58.6967 56.2722 59.4849 56.2722 60.2731 56.2722 60.9116 55.6336 60.9116 54.8454 60.9116 54.0572 60.2731 53.4186 59.4849 53.4186" fill="#FFFFFF" transform="matrix(1 0 0 1.00001 379.904 440.501)"/><path d="M62.1688 51.1737C61.3806 51.1737 60.742 51.8123 60.742 52.6005 60.742 53.3887 61.3806 54.0273 62.1688 54.0273 62.957 54.0273 63.5955 53.3887 63.5955 52.6005 63.5955 51.8123 62.947 51.1737 62.1688 51.1737" fill="#FFFFFF" transform="matrix(1 0 0 1.00001 379.904 440.501)"/><path d="M62.1388 55.7533C61.3506 55.7533 60.7121 56.3919 60.7121 57.1801 60.7121 57.9683 61.3506 58.6069 62.1388 58.6069 62.927 58.6069 63.5656 57.9683 63.5656 57.1801 63.5756 56.4019 62.927 55.7533 62.1388 55.7533" fill="#FFFFFF" transform="matrix(1 0 0 1.00001 379.904 440.501)"/><path d="M59.3851 60.8318C60.1733 60.8318 60.8118 60.1933 60.8118 59.405 60.8118 58.6168 60.1733 57.9783 59.3851 57.9783 58.5969 57.9783 57.9583 58.6168 57.9583 59.405 57.9583 60.1933 58.5969 60.8318 59.3851 60.8318" fill="#FFFFFF" transform="matrix(1 0 0 1.00001 379.904 440.501)"/><path d="M58.5869 62.1688C58.5869 61.3806 57.9484 60.742 57.1601 60.742 56.3719 60.742 55.7334 61.3806 55.7334 62.1688 55.7334 62.957 56.3719 63.5955 57.1601 63.5955 57.9484 63.5955 58.5869 62.957 58.5869 62.1688" fill="#FFFFFF" transform="matrix(1 0 0 1.00001 379.904 440.501)"/><path d="M54.9352 66.6286C55.7234 66.6286 56.362 65.9901 56.362 65.2019 56.362 64.4137 55.7234 63.7751 54.9352 63.7751 54.147 63.7751 53.5084 64.4137 53.5084 65.2019 53.5084 65.9901 54.147 66.6286 54.9352 66.6286" fill="#FFFFFF" transform="matrix(1 0 0 1.00001 379.904 440.501)"/><path d="M65.1819 53.4186C64.3937 53.4186 63.7552 54.0572 63.7552 54.8454 63.7552 55.6336 64.3937 56.2722 65.1819 56.2722 65.9701 56.2722 66.6087 55.6336 66.6087 54.8454 66.6087 54.0572 65.9701 53.4186 65.1819 53.4186" fill="#FFFFFF" transform="matrix(1 0 0 1.00001 379.904 440.501)"/><path d="M65.0323 58.1878C64.244 58.1878 63.6055 58.8264 63.6055 59.6146 63.6055 60.4028 64.244 61.0413 65.0323 61.0413 65.8205 61.0413 66.459 60.4028 66.459 59.6146 66.459 58.8264 65.8205 58.1878 65.0323 58.1878" fill="#FFFFFF" transform="matrix(1 0 0 1.00001 379.904 440.501)"/><path d="M68.3647 56.0427C67.5765 56.0427 66.9379 56.6812 66.9379 57.4694 66.9379 58.2576 67.5765 58.8962 68.3647 58.8962 69.1529 58.8962 69.7914 58.2576 69.7914 57.4694 69.7914 56.6812 69.1529 56.0427 68.3647 56.0427" fill="#FFFFFF" transform="matrix(1 0 0 1.00001 379.904 440.501)"/><path d="M69.4123 62.2985C69.4123 61.5103 68.7738 60.8717 67.9855 60.8717 67.1973 60.8717 66.5588 61.5103 66.5588 62.2985 66.5588 63.0867 67.1973 63.7252 67.9855 63.7252 68.7638 63.7252 69.4123 63.0867 69.4123 62.2985" fill="#FFFFFF" transform="matrix(1 0 0 1.00001 379.904 440.501)"/><path d="M65.9502 64.4336C65.9502 63.6454 65.3116 63.0069 64.5234 63.0069 63.7352 63.0069 63.0967 63.6454 63.0967 64.4336 63.0967 65.2218 63.7352 65.8604 64.5234 65.8604 65.3116 65.8604 65.9502 65.2318 65.9502 64.4336" fill="#FFFFFF" transform="matrix(1 0 0 1.00001 379.904 440.501)"/><path d="M59.6046 66.4391C60.3928 66.4391 61.0313 65.8005 61.0313 65.0123 61.0313 64.2241 60.3928 63.5855 59.6046 63.5855 58.8164 63.5855 58.1778 64.2241 58.1778 65.0123 58.1778 65.8005 58.8164 66.4391 59.6046 66.4391" fill="#FFFFFF" transform="matrix(1 0 0 1.00001 379.904 440.501)"/><path d="M57.3697 69.7815C58.1579 69.7815 58.7964 69.1429 58.7964 68.3547 58.7964 67.5665 58.1579 66.928 57.3697 66.928 56.5815 66.928 55.9429 67.5665 55.9429 68.3547 55.9429 69.1429 56.5815 69.7815 57.3697 69.7815" fill="#FFFFFF" transform="matrix(1 0 0 1.00001 379.904 440.501)"/><path d="M54.9152 73.3234C55.7035 73.3234 56.342 72.6849 56.342 71.8967 56.342 71.1085 55.7035 70.4699 54.9152 70.4699 54.127 70.4699 53.4885 71.1085 53.4885 71.8967 53.4885 72.6849 54.127 73.3234 54.9152 73.3234" fill="#FFFFFF" transform="matrix(1 0 0 1.00001 379.904 440.501)"/><path d="M63.2762 61.8395C63.2762 61.0513 62.6377 60.4128 61.8495 60.4128 61.0613 60.4128 60.4227 61.0513 60.4227 61.8395 60.4227 62.6277 61.0613 63.2663 61.8495 63.2663 62.6377 63.2663 63.2762 62.6277 63.2762 61.8395" fill="#FFFFFF" transform="matrix(1 0 0 1.00001 379.904 440.501)"/><path d="M71.7071 58.6567C70.9189 58.6567 70.2803 59.2953 70.2803 60.0835 70.2803 60.8717 70.9189 61.5103 71.7071 61.5103 72.4953 61.5103 73.1339 60.8717 73.1339 60.0835 73.1438 59.2853 72.4953 58.6567 71.7071 58.6567" fill="#FFFFFF" transform="matrix(1 0 0 1.00001 379.904 440.501)"/><path d="M71.1783 63.7951C70.3901 63.7951 69.7515 64.4336 69.7515 65.2218 69.7515 66.01 70.3901 66.6486 71.1783 66.6486 71.9665 66.6486 72.605 66.01 72.605 65.2218 72.605 64.4336 71.9665 63.7951 71.1783 63.7951" fill="#FFFFFF" transform="matrix(1 0 0 1.00001 379.904 440.501)"/><path d="M74.6903 66.8581C73.9021 66.8581 73.2636 67.4967 73.2636 68.2849 73.2636 69.0731 73.9021 69.7116 74.6903 69.7116 75.4785 69.7116 76.1171 69.0731 76.1171 68.2849 76.1171 67.4967 75.4785 66.8581 74.6903 66.8581" fill="#FFFFFF" transform="matrix(1 0 0 1.00001 379.904 440.501)"/><path d="M70.3602 68.8735C69.572 68.8735 68.9334 69.5121 68.9334 70.3003 68.9334 71.0885 69.572 71.7271 70.3602 71.7271 71.1484 71.7271 71.7869 71.0885 71.7869 70.3003 71.7869 69.5121 71.1484 68.8735 70.3602 68.8735" fill="#FFFFFF" transform="matrix(1 0 0 1.00001 379.904 440.501)"/><path d="M68.8037 67.367C68.8037 66.5788 68.1651 65.9402 67.3769 65.9402 66.5887 65.9402 65.9502 66.5788 65.9502 67.367 65.9502 68.1552 66.5887 68.7937 67.3769 68.7937 68.1651 68.7937 68.8037 68.1552 68.8037 67.367" fill="#FFFFFF" transform="matrix(1 0 0 1.00001 379.904 440.501)"/><path d="M65.2518 72.5951C66.04 72.5951 66.6785 71.9565 66.6785 71.1683 66.6785 70.3801 66.04 69.7416 65.2518 69.7416 64.4636 69.7416 63.825 70.3801 63.825 71.1683 63.825 71.9565 64.4636 72.5951 65.2518 72.5951" fill="#FFFFFF" transform="matrix(1 0 0 1.00001 379.904 440.501)"/><path d="M60.0735 73.1339C60.8617 73.1339 61.5003 72.4953 61.5003 71.7071 61.5003 70.9189 60.8617 70.2803 60.0735 70.2803 59.2853 70.2803 58.6468 70.9189 58.6468 71.7071 58.6468 72.4853 59.2853 73.1339 60.0735 73.1339" fill="#FFFFFF" transform="matrix(1 0 0 1.00001 379.904 440.501)"/><path d="M63.7252 67.9955C63.7252 67.2073 63.0867 66.5688 62.2985 66.5688 61.5103 66.5688 60.8717 67.2073 60.8717 67.9955 60.8717 68.7837 61.5103 69.4223 62.2985 69.4223 63.0867 69.4123 63.7252 68.7738 63.7252 67.9955" fill="#FFFFFF" transform="matrix(1 0 0 1.00001 379.904 440.501)"/><path d="M73.6826 72.2159C72.8944 72.2159 72.2558 72.8545 72.2558 73.6427 72.2558 74.4309 72.8944 75.0695 73.6826 75.0695 74.4708 75.0695 75.1094 74.4309 75.1094 73.6427 75.1094 72.8545 74.4708 72.2159 73.6826 72.2159" fill="#FFFFFF" transform="matrix(1 0 0 1.00001 379.904 440.501)"/><path d="M68.2649 73.2336C67.4767 73.2336 66.8382 73.8722 66.8382 74.6704 66.8382 75.4586 67.4767 76.0971 68.2649 76.0971 69.0531 76.0971 69.6917 75.4586 69.6917 74.6704 69.7017 73.8822 69.0531 73.2336 68.2649 73.2336" fill="#FFFFFF" transform="matrix(1 0 0 1.00001 379.904 440.501)"/><path d="M65.9302 77.3942C65.142 77.3942 64.5035 78.0327 64.5035 78.8209 64.5035 79.6091 65.142 80.2477 65.9302 80.2477 66.7184 80.2477 67.357 79.6091 67.357 78.8209 67.357 78.0327 66.7184 77.3942 65.9302 77.3942" fill="#FFFFFF" transform="matrix(1 0 0 1.00001 379.904 440.501)"/><path d="M62.8871 73.8223C62.0989 73.8223 61.4604 74.4608 61.4604 75.249 61.4604 76.0373 62.0989 76.6758 62.8871 76.6758 63.6753 76.6758 64.3139 76.0373 64.3139 75.249 64.3039 74.4708 63.6654 73.8223 62.8871 73.8223" fill="#FFFFFF" transform="matrix(1 0 0 1.00001 379.904 440.501)"/><path d="M60.4028 78.1125C59.6146 78.1125 58.976 78.7511 58.976 79.5393 58.976 80.3275 59.6146 80.9661 60.4028 80.9661 61.191 80.9661 61.8295 80.3275 61.8295 79.5393 61.8295 78.7511 61.191 78.1125 60.4028 78.1125" fill="#FFFFFF" transform="matrix(1 0 0 1.00001 379.904 440.501)"/><path d="M57.4994 74.1815C56.7112 74.1815 56.0726 74.82 56.0726 75.6082 56.0726 76.3964 56.7112 77.035 57.4994 77.035 58.2876 77.035 58.9261 76.3964 58.9261 75.6082 58.9261 74.82 58.2876 74.1815 57.4994 74.1815" fill="#FFFFFF" transform="matrix(1 0 0 1.00001 379.904 440.501)"/><path d="M54.9352 78.3919C54.147 78.3919 53.5084 79.0305 53.5084 79.8187 53.5084 80.6069 54.147 81.2454 54.9352 81.2454 55.7234 81.2454 56.362 80.6069 56.362 79.8187 56.3719 79.0305 55.7334 78.3919 54.9352 78.3919" fill="#FFFFFF" transform="matrix(1 0 0 1.00001 379.904 440.501)"/><path d="M52.2014 74.1815C51.4132 74.1815 50.7747 74.82 50.7747 75.6082 50.7747 76.3964 51.4132 77.035 52.2014 77.035 52.9896 77.035 53.6282 76.3964 53.6282 75.6082 53.6282 74.82 52.9896 74.1815 52.2014 74.1815" fill="#FFFFFF" transform="matrix(1 0 0 1.00001 379.904 440.501)"/><path d="M49.3379 78.1325C48.5497 78.1325 47.9112 78.771 47.9112 79.5593 47.9112 80.3475 48.5497 80.986 49.3379 80.986 50.1261 80.986 50.7647 80.3475 50.7647 79.5593 50.7647 78.771 50.1261 78.1325 49.3379 78.1325" fill="#FFFFFF" transform="matrix(1 0 0 1.00001 379.904 440.501)"/><path d="M43.9601 77.3942C43.1719 77.3942 42.5334 78.0327 42.5334 78.8209 42.5334 79.6091 43.1719 80.2477 43.9601 80.2477 44.7483 80.2477 45.3869 79.6091 45.3869 78.8209 45.3869 78.0327 44.7483 77.3942 43.9601 77.3942" fill="#FFFFFF" transform="matrix(1 0 0 1.00001 379.904 440.501)"/><path d="M75.279 61.4504C74.4908 61.4504 73.8522 62.0889 73.8522 62.8772 73.8522 63.6654 74.4908 64.3039 75.279 64.3039 76.0672 64.3039 76.7057 63.6654 76.7057 62.8772 76.7057 62.0889 76.0672 61.4504 75.279 61.4504" fill="#FFFFFF" transform="matrix(1 0 0 1.00001 379.904 440.501)"/><path d="M78.8509 64.3937C78.0627 64.3937 77.4241 65.0323 77.4241 65.8205 77.4241 66.6087 78.0627 67.2472 78.8509 67.2472 79.6391 67.2472 80.2776 66.6087 80.2776 65.8205 80.2776 65.0323 79.6391 64.3937 78.8509 64.3937" fill="#FFFFFF" transform="matrix(1 0 0 1.00001 379.904 440.501)"/><path d="M79.5692 58.966C78.781 58.966 78.1425 59.6046 78.1425 60.3928 78.1425 61.181 78.781 61.8196 79.5692 61.8196 80.3574 61.8196 80.996 61.181 80.996 60.3928 80.996 59.6046 80.3574 58.966 79.5692 58.966" fill="#FFFFFF" transform="matrix(1 0 0 1.00001 379.904 440.501)"/><path d="M75.6082 56.1325C74.82 56.1325 74.1815 56.771 74.1815 57.5592 74.1815 58.3474 74.82 58.986 75.6082 58.986 76.3964 58.986 77.035 58.3474 77.035 57.5592 77.035 56.771 76.3964 56.1325 75.6082 56.1325" fill="#FFFFFF" transform="matrix(1 0 0 1.00001 379.904 440.501)"/><path d="M79.8087 53.4386C79.0205 53.4386 78.3819 54.0771 78.3819 54.8654 78.3819 55.6536 79.0205 56.2921 79.8087 56.2921 80.5969 56.2921 81.2355 55.6536 81.2355 54.8654 81.2355 54.0771 80.5969 53.4386 79.8087 53.4386" fill="#FFFFFF" transform="matrix(1 0 0 1.00001 379.904 440.501)"/><path d="M75.6082 50.8545C74.82 50.8545 74.1815 51.493 74.1815 52.2812 74.1815 53.0694 74.82 53.708 75.6082 53.708 76.3964 53.708 77.035 53.0694 77.035 52.2812 77.035 51.493 76.3964 50.8545 75.6082 50.8545" fill="#FFFFFF" transform="matrix(1 0 0 1.00001 379.904 440.501)"/><path d="M78.1325 49.3479C78.1325 50.1361 78.771 50.7747 79.5593 50.7747 80.3475 50.7747 80.986 50.1361 80.986 49.3479 80.986 48.5597 80.3475 47.9211 79.5593 47.9211 78.771 47.9211 78.1325 48.5597 78.1325 49.3479" fill="#FFFFFF" transform="matrix(1 0 0 1.00001 379.904 440.501)"/><path d="M73.8323 46.8835C73.8323 47.6717 74.4708 48.3102 75.259 48.3102 76.0472 48.3102 76.6858 47.6717 76.6858 46.8835 76.6858 46.0953 76.0472 45.4567 75.259 45.4567 74.4708 45.4567 73.8323 46.1053 73.8323 46.8835" fill="#FFFFFF" transform="matrix(1 0 0 1.00001 379.904 440.501)"/><path d="M78.8509 45.2871C79.6391 45.2871 80.2776 44.6486 80.2776 43.8604 80.2776 43.0721 79.6391 42.4336 78.8509 42.4336 78.0627 42.4336 77.4241 43.0721 77.4241 43.8604 77.4241 44.6486 78.0627 45.2871 78.8509 45.2871" fill="#FFFFFF" transform="matrix(1 0 0 1.00001 379.904 440.501)"/><path d="M73.2536 41.5257C73.2536 42.3139 73.8921 42.9524 74.6803 42.9524 75.4686 42.9524 76.1071 42.3139 76.1071 41.5257 76.1071 40.7375 75.4686 40.0989 74.6803 40.0989 73.8921 40.0989 73.2536 40.7375 73.2536 41.5257" fill="#FFFFFF" transform="matrix(1 0 0 1.00001 379.904 440.501)"/><path d="M73.6726 37.6145C74.4608 37.6145 75.0994 36.976 75.0994 36.1878 75.0994 35.3996 74.4608 34.761 73.6726 34.761 72.8844 34.761 72.2459 35.3996 72.2459 36.1878 72.2459 36.976 72.8844 37.6145 73.6726 37.6145" fill="#FFFFFF" transform="matrix(1 0 0 1.00001 379.904 440.501)"/><path d="M68.9633 39.4903C68.9633 40.2785 69.6019 40.917 70.3901 40.917 71.1783 40.917 71.8168 40.2785 71.8168 39.4903 71.8168 38.7021 71.1783 38.0635 70.3901 38.0635 69.6019 38.0635 68.9633 38.7021 68.9633 39.4903" fill="#FFFFFF" transform="matrix(1 0 0 1.00001 379.904 440.501)"/><path d="M67.347 41.0068C66.5588 41.0068 65.9202 41.6454 65.9202 42.4336 65.9202 43.2218 66.5588 43.8604 67.347 43.8604 68.1352 43.8604 68.7738 43.2218 68.7738 42.4336 68.7738 41.6454 68.1352 41.0068 67.347 41.0068" fill="#FFFFFF" transform="matrix(1 0 0 1.00001 379.904 440.501)"/><path d="M63.0867 45.337C63.0867 46.1252 63.7252 46.7638 64.5134 46.7638 65.3016 46.7638 65.9402 46.1252 65.9402 45.337 65.9402 44.5488 65.3016 43.9102 64.5134 43.9102 63.7252 43.9102 63.0867 44.5488 63.0867 45.337" fill="#FFFFFF" transform="matrix(1 0 0 1.00001 379.904 440.501)"/><path d="M62.3184 40.3683C61.5302 40.3683 60.8917 41.0068 60.8917 41.795 60.8917 42.5833 61.5302 43.2218 62.3184 43.2218 63.1066 43.2218 63.7452 42.5833 63.7452 41.795 63.7452 41.0168 63.1066 40.3683 62.3184 40.3683" fill="#FFFFFF" transform="matrix(1 0 0 1.00001 379.904 440.501)"/><path d="M60.0536 36.6867C59.2654 36.6867 58.6268 37.3252 58.6268 38.1134 58.6268 38.9016 59.2654 39.5402 60.0536 39.5402 60.8418 39.5402 61.4803 38.9016 61.4803 38.1134 61.4803 37.3252 60.8418 36.6867 60.0536 36.6867" fill="#FFFFFF" transform="matrix(1 0 0 1.00001 379.904 440.501)"/><path d="M57.3896 39.9892C56.6014 39.9892 55.9629 40.6277 55.9629 41.4159 55.9629 42.2041 56.6014 42.8427 57.3896 42.8427 58.1778 42.8427 58.8164 42.2041 58.8164 41.4159 58.8164 40.6277 58.1778 39.9892 57.3896 39.9892" fill="#FFFFFF" transform="matrix(1 0 0 1.00001 379.904 440.501)"/><path d="M52.3112 40.0191C51.5229 40.0191 50.8844 40.6576 50.8844 41.4458 50.8844 42.2341 51.5229 42.8726 52.3112 42.8726 53.0994 42.8726 53.7379 42.2341 53.7379 41.4458 53.7379 40.6576 53.0994 40.0191 52.3112 40.0191" fill="#FFFFFF" transform="matrix(1 0 0 1.00001 379.904 440.501)"/><path d="M50.166 43.3715C49.3778 43.3715 48.7393 44.01 48.7393 44.7982 48.7393 45.5864 49.3778 46.225 50.166 46.225 50.9542 46.225 51.5928 45.5864 51.5928 44.7982 51.5928 44.01 50.9542 43.3715 50.166 43.3715" fill="#FFFFFF" transform="matrix(1 0 0 1.00001 379.904 440.501)"/><path d="M51.1338 47.6617C51.1338 48.4499 51.7724 49.0885 52.5606 49.0885 53.3488 49.0885 53.9874 48.4499 53.9874 47.6617 53.9874 46.8735 53.3488 46.235 52.5606 46.235 51.7724 46.235 51.1338 46.8735 51.1338 47.6617" fill="#FFFFFF" transform="matrix(1 0 0 1.00001 379.904 440.501)"/><path d="M46.5044 47.9411C46.5044 48.7293 47.1429 49.3678 47.9311 49.3678 48.7193 49.3678 49.3579 48.7293 49.3579 47.9411 49.3579 47.1529 48.7193 46.5143 47.9311 46.5143 47.1429 46.5143 46.5044 47.1629 46.5044 47.9411" fill="#FFFFFF" transform="matrix(1 0 0 1.00001 379.904 440.501)"/><path d="M44.7483 48.7592C43.9601 48.7592 43.3216 49.3978 43.3216 50.186 43.3216 50.9742 43.9601 51.6127 44.7483 51.6127 45.5365 51.6127 46.1751 50.9742 46.1751 50.186 46.1751 49.3978 45.5365 48.7592 44.7483 48.7592" fill="#FFFFFF" transform="matrix(1 0 0 1.00001 379.904 440.501)"/><path d="M41.4059 53.8277C42.1941 53.8277 42.8327 53.1892 42.8327 52.401 42.8327 51.6127 42.1941 50.9742 41.4059 50.9742 40.6177 50.9742 39.9792 51.6227 39.9792 52.401 39.9792 53.1892 40.6177 53.8277 41.4059 53.8277" fill="#FFFFFF" transform="matrix(1 0 0 1.00001 379.904 440.501)"/><path d="M40.3384 47.4821C40.3384 48.2703 40.9769 48.9089 41.7651 48.9089 42.5533 48.9089 43.1919 48.2703 43.1919 47.4821 43.1919 46.6939 42.5533 46.0554 41.7651 46.0554 40.9869 46.0554 40.3384 46.6939 40.3384 47.4821" fill="#FFFFFF" transform="matrix(1 0 0 1.00001 379.904 440.501)"/><path d="M36.6268 49.6971C36.6268 50.4853 37.2653 51.1239 38.0536 51.1239 38.8418 51.1239 39.4803 50.4853 39.4803 49.6971 39.4803 48.9089 38.8418 48.2703 38.0536 48.2703 37.2653 48.2703 36.6268 48.9089 36.6268 49.6971" fill="#FFFFFF" transform="matrix(1 0 0 1.00001 379.904 440.501)"/><path d="M34.1424 53.6781C34.9306 53.6781 35.5692 53.0395 35.5692 52.2513 35.5692 51.4631 34.9306 50.8245 34.1424 50.8245 33.3542 50.8245 32.7157 51.4631 32.7157 52.2513 32.7157 53.0395 33.3542 53.6781 34.1424 53.6781" fill="#FFFFFF" transform="matrix(1 0 0 1.00001 379.904 440.501)"/><path d="M30.1914 50.7647C30.9796 50.7647 31.6182 50.1261 31.6182 49.3379 31.6182 48.5497 30.9796 47.9112 30.1914 47.9112 29.4032 47.9112 28.7647 48.5497 28.7647 49.3379 28.7647 50.1261 29.4032 50.7647 30.1914 50.7647" fill="#FFFFFF" transform="matrix(1 0 0 1.00001 379.904 440.501)"/><path d="M34.5116 48.3302C35.2998 48.3302 35.9384 47.6917 35.9384 46.9034 35.9384 46.1152 35.2998 45.4767 34.5116 45.4767 33.7234 45.4767 33.0848 46.1152 33.0848 46.9034 33.0848 47.6817 33.7234 48.3302 34.5116 48.3302" fill="#FFFFFF" transform="matrix(1 0 0 1.00001 379.904 440.501)"/><path d="M30.9397 42.4136C30.1515 42.4136 29.513 43.0522 29.513 43.8404 29.513 44.6286 30.1515 45.2672 30.9397 45.2672 31.7279 45.2672 32.3665 44.6286 32.3665 43.8404 32.3665 43.0522 31.7179 42.4136 30.9397 42.4136" fill="#FFFFFF" transform="matrix(1 0 0 1.00001 379.904 440.501)"/><path d="M35.1302 42.9624C35.9184 42.9624 36.5569 42.3238 36.5569 41.5356 36.5569 40.7474 35.9184 40.1089 35.1302 40.1089 34.342 40.1089 33.7034 40.7474 33.7034 41.5356 33.7134 42.3238 34.342 42.9624 35.1302 42.9624" fill="#FFFFFF" transform="matrix(1 0 0 1.00001 379.904 440.501)"/><path d="M38.5923 43.1021C37.8041 43.1021 37.1656 43.7406 37.1656 44.5288 37.1656 45.317 37.8041 45.9556 38.5923 45.9556 39.3805 45.9556 40.0191 45.317 40.0191 44.5288 40.0191 43.7406 39.3805 43.1021 38.5923 43.1021" fill="#FFFFFF" transform="matrix(1 0 0 1.00001 379.904 440.501)"/><path d="M41.0168 42.4136C41.0168 43.2019 41.6554 43.8404 42.4436 43.8404 43.2318 43.8404 43.8703 43.2019 43.8703 42.4136 43.8703 41.6254 43.2318 40.9869 42.4436 40.9869 41.6554 40.9869 41.0168 41.6254 41.0168 42.4136" fill="#FFFFFF" transform="matrix(1 0 0 1.00001 379.904 440.501)"/><path d="M43.8105 45.337C43.8105 46.1252 44.449 46.7638 45.2372 46.7638 46.0254 46.7638 46.664 46.1252 46.664 45.337 46.664 44.5488 46.0254 43.9102 45.2372 43.9102 44.449 43.9102 43.8105 44.5588 43.8105 45.337" fill="#FFFFFF" transform="matrix(1 0 0 1.00001 379.904 440.501)"/><path d="M37.874 56.2722C38.6622 56.2722 39.3007 55.6336 39.3007 54.8454 39.3007 54.0572 38.6622 53.4186 37.874 53.4186 37.0857 53.4186 36.4472 54.0572 36.4472 54.8454 36.4472 55.6236 37.0857 56.2722 37.874 56.2722" fill="#FFFFFF" transform="matrix(1 0 0 1.00001 379.904 440.501)"/><path d="M54.9452 43.2019C54.157 43.2019 53.5184 43.8404 53.5184 44.6286 53.5184 45.4168 54.157 46.0554 54.9452 46.0554 55.7334 46.0554 56.3719 45.4168 56.3719 44.6286 56.3719 43.8404 55.7334 43.2019 54.9452 43.2019" fill="#FFFFFF" transform="matrix(1 0 0 1.00001 379.904 440.501)"/><path d="M65.2418 37.1656C64.4536 37.1656 63.815 37.8041 63.815 38.5923 63.815 39.3805 64.4536 40.0191 65.2418 40.0191 66.03 40.0191 66.6685 39.3805 66.6685 38.5923 66.6685 37.8041 66.03 37.1656 65.2418 37.1656" fill="#FFFFFF" transform="matrix(1 0 0 1.00001 379.904 440.501)"/><path d="M66.8481 35.0803C66.8481 35.8685 67.4867 36.5071 68.2749 36.5071 69.0631 36.5071 69.7017 35.8685 69.7017 35.0803 69.7017 34.2921 69.0631 33.6535 68.2749 33.6535 67.4867 33.6535 66.8481 34.2921 66.8481 35.0803" fill="#FFFFFF" transform="matrix(1 0 0 1.00001 379.904 440.501)"/><path d="M62.8971 35.9483C63.6853 35.9483 64.3239 35.3098 64.3239 34.5216 64.3239 33.7334 63.6853 33.0948 62.8971 33.0948 62.1089 33.0948 61.4704 33.7334 61.4704 34.5216 61.4704 35.3098 62.1089 35.9483 62.8971 35.9483" fill="#FFFFFF" transform="matrix(1 0 0 1.00001 379.904 440.501)"/><path d="M65.9402 32.3665C66.7284 32.3665 67.367 31.7279 67.367 30.9397 67.367 30.1515 66.7284 29.513 65.9402 29.513 65.152 29.513 64.5134 30.1515 64.5134 30.9397 64.5134 31.7279 65.152 32.3665 65.9402 32.3665" fill="#FFFFFF" transform="matrix(1 0 0 1.00001 379.904 440.501)"/><path d="M60.4227 31.678C61.2109 31.678 61.8495 31.0395 61.8495 30.2513 61.8495 29.4631 61.2109 28.8245 60.4227 28.8245 59.6345 28.8245 58.996 29.4631 58.996 30.2513 58.986 31.0395 59.6345 31.678 60.4227 31.678" fill="#FFFFFF" transform="matrix(1 0 0 1.00001 379.904 440.501)"/><path d="M54.9252 31.3887C55.7134 31.3887 56.352 30.7501 56.352 29.9619 56.352 29.1737 55.7134 28.5352 54.9252 28.5352 54.147 28.5352 53.4985 29.1737 53.4985 29.9619 53.4985 30.7501 54.137 31.3887 54.9252 31.3887" fill="#FFFFFF" transform="matrix(1 0 0 1.00001 379.904 440.501)"/><path d="M49.3279 31.6581C50.1161 31.6581 50.7547 31.0195 50.7547 30.2313 50.7547 29.4431 50.1161 28.8046 49.3279 28.8046 48.5397 28.8046 47.9012 29.4431 47.9012 30.2313 47.9012 31.0195 48.5397 31.6581 49.3279 31.6581" fill="#FFFFFF" transform="matrix(1 0 0 1.00001 379.904 440.501)"/><path d="M43.9502 32.3864C44.7384 32.3864 45.3769 31.7479 45.3769 30.9597 45.3769 30.1715 44.7384 29.5329 43.9502 29.5329 43.1619 29.5329 42.5234 30.1715 42.5234 30.9597 42.5234 31.7479 43.1619 32.3864 43.9502 32.3864" fill="#FFFFFF" transform="matrix(1 0 0 1.00001 379.904 440.501)"/><path d="M52.1615 35.6091C52.9497 35.6091 53.5883 34.9706 53.5883 34.1823 53.5883 33.3941 52.9497 32.7556 52.1615 32.7556 51.3733 32.7556 50.7347 33.3941 50.7347 34.1823 50.7347 34.9706 51.3733 35.6091 52.1615 35.6091" fill="#FFFFFF" transform="matrix(1 0 0 1.00001 379.904 440.501)"/><path d="M46.8735 35.9583C47.6617 35.9583 48.3003 35.3198 48.3003 34.5316 48.3003 33.7433 47.6617 33.1048 46.8735 33.1048 46.0853 33.1048 45.4468 33.7433 45.4468 34.5316 45.4468 35.3198 46.0853 35.9583 46.8735 35.9583" fill="#FFFFFF" transform="matrix(1 0 0 1.00001 379.904 440.501)"/><path d="M44.5288 37.1855C43.7406 37.1855 43.1021 37.8241 43.1021 38.6123 43.1021 39.4005 43.7406 40.039 44.5288 40.039 45.317 40.039 45.9556 39.4005 45.9556 38.6123 45.9556 37.8241 45.317 37.1855 44.5288 37.1855" fill="#FFFFFF" transform="matrix(1 0 0 1.00001 379.904 440.501)"/><path d="M39.3706 40.927C40.1588 40.927 40.7973 40.2885 40.7973 39.5003 40.7973 38.7121 40.1588 38.0735 39.3706 38.0735 38.5823 38.0735 37.9438 38.7121 37.9438 39.5003 37.9538 40.2885 38.5823 40.927 39.3706 40.927" fill="#FFFFFF" transform="matrix(1 0 0 1.00001 379.904 440.501)"/><path d="M36.3574 37.5846C37.1456 37.5846 37.7842 36.9461 37.7842 36.1579 37.7842 35.3696 37.1456 34.7311 36.3574 34.7311 35.5692 34.7311 34.9306 35.3696 34.9306 36.1579 34.9306 36.9461 35.5692 37.5846 36.3574 37.5846" fill="#FFFFFF" transform="matrix(1 0 0 1.00001 379.904 440.501)"/><path d="M41.5257 36.527C42.3139 36.527 42.9524 35.8885 42.9524 35.1003 42.9524 34.312 42.3139 33.6735 41.5257 33.6735 40.7375 33.6735 40.0989 34.312 40.0989 35.1003 40.0989 35.8885 40.7375 36.527 41.5257 36.527" fill="#FFFFFF" transform="matrix(1 0 0 1.00001 379.904 440.501)"/><path d="M46.0354 41.7851C46.0354 42.5733 46.674 43.2118 47.4622 43.2118 48.2504 43.2118 48.8889 42.5733 48.8889 41.7851 48.8889 40.9969 48.2504 40.3583 47.4622 40.3583 46.674 40.3583 46.0354 40.9969 46.0354 41.7851" fill="#FFFFFF" transform="matrix(1 0 0 1.00001 379.904 440.501)"/><path d="M49.6672 36.6667C48.879 36.6667 48.2404 37.3052 48.2404 38.0935 48.2404 38.8817 48.879 39.5202 49.6672 39.5202 50.4554 39.5202 51.0939 38.8817 51.0939 38.0935 51.1039 37.3052 50.4554 36.6667 49.6672 36.6667" fill="#FFFFFF" transform="matrix(1 0 0 1.00001 379.904 440.501)"/><path d="M57.4894 35.6091C58.2776 35.6091 58.9162 34.9706 58.9162 34.1823 58.9162 33.3941 58.2776 32.7456 57.4894 32.7456 56.7012 32.7456 56.0626 33.3842 56.0626 34.1823 56.0626 34.9706 56.7012 35.6091 57.4894 35.6091" fill="#FFFFFF" transform="matrix(1 0 0 1.00001 379.904 440.501)"/><path d="M54.9352 36.4472C54.147 36.4472 53.5084 37.0857 53.5084 37.874 53.5084 38.6622 54.147 39.3007 54.9352 39.3007 55.7234 39.3007 56.362 38.6622 56.362 37.874 56.362 37.0857 55.7234 36.4472 54.9352 36.4472" fill="#FFFFFF" transform="matrix(1 0 0 1.00001 379.904 440.501)"/><path d="M63.2264 47.9311C63.2264 47.1429 62.5878 46.5044 61.7996 46.5044 61.0114 46.5044 60.3728 47.1429 60.3728 47.9311 60.3728 48.7193 61.0114 49.3579 61.7996 49.3579 62.5878 49.3579 63.2264 48.7193 63.2264 47.9311" fill="#FFFFFF" transform="matrix(1 0 0 1.00001 379.904 440.501)"/><path d="M59.415 48.9588C58.6268 48.9588 57.9883 49.5973 57.9883 50.3855 57.9883 51.1737 58.6268 51.8123 59.415 51.8123 60.2032 51.8123 60.8418 51.1737 60.8418 50.3855 60.8418 49.5973 60.2032 48.9588 59.415 48.9588" fill="#FFFFFF" transform="matrix(1 0 0 1.00001 379.904 440.501)"/><path d="M55.7533 47.6019C55.7533 48.3901 56.3919 49.0286 57.1801 49.0286 57.9683 49.0286 58.6069 48.3901 58.6069 47.6019 58.6069 46.8136 57.9683 46.1751 57.1801 46.1751 56.3919 46.1751 55.7533 46.8136 55.7533 47.6019" fill="#FFFFFF" transform="matrix(1 0 0 1.00001 379.904 440.501)"/><path d="M54.9252 48.869C54.137 48.869 53.4985 49.5075 53.4985 50.2957 53.4985 51.084 54.137 51.7225 54.9252 51.7225 55.7134 51.7225 56.352 51.084 56.352 50.2957 56.352 49.5075 55.7035 48.869 54.9252 48.869" fill="#FFFFFF" transform="matrix(1 0 0 1.00001 379.904 440.501)"/><path d="M51.2536 52.6903C51.2536 53.4785 51.8921 54.1171 52.6803 54.1171 53.4685 54.1171 54.1071 53.4785 54.1071 52.6903 54.1071 51.9021 53.4685 51.2635 52.6803 51.2635 51.8921 51.2635 51.2536 51.9021 51.2536 52.6903" fill="#FFFFFF" transform="matrix(1 0 0 1.00001 379.904 440.501)"/><path d="M50.3955 48.9887C49.6073 48.9887 48.9688 49.6273 48.9688 50.4155 48.9688 51.2037 49.6073 51.8422 50.3955 51.8422 51.1837 51.8422 51.8223 51.2037 51.8223 50.4155 51.8223 49.6273 51.1837 48.9887 50.3955 48.9887" fill="#FFFFFF" transform="matrix(1 0 0 1.00001 379.904 440.501)"/><path d="M50.2658 56.3021C51.054 56.3021 51.6926 55.6635 51.6926 54.8753 51.6926 54.0871 51.044 53.4486 50.2658 53.4486 49.4776 53.4486 48.8391 54.0871 48.8391 54.8753 48.8391 55.6536 49.4776 56.3021 50.2658 56.3021" fill="#FFFFFF" transform="matrix(1 0 0 1.00001 379.904 440.501)"/><path d="M47.6019 54.0672C48.3901 54.0672 49.0286 53.4286 49.0286 52.6404 49.0286 51.8522 48.3901 51.2137 47.6019 51.2137 46.8136 51.2137 46.1751 51.8522 46.1751 52.6404 46.1751 53.4286 46.8136 54.0672 47.6019 54.0672" fill="#FFFFFF" transform="matrix(1 0 0 1.00001 379.904 440.501)"/><path d="M47.6118 58.6468C48.4 58.6468 49.0386 58.0082 49.0386 57.22 49.0386 56.4318 48.4 55.7932 47.6118 55.7932 46.8236 55.7932 46.1851 56.4318 46.1851 57.22 46.1851 58.0082 46.8236 58.6468 47.6118 58.6468" fill="#FFFFFF" transform="matrix(1 0 0 1.00001 379.904 440.501)"/><path d="M44.5987 56.2622C45.3869 56.2622 46.0254 55.6236 46.0254 54.8354 46.0254 54.0472 45.3869 53.4087 44.5987 53.4087 43.8105 53.4087 43.1719 54.0472 43.1719 54.8354 43.1719 55.6236 43.8105 56.2622 44.5987 56.2622" fill="#FFFFFF" transform="matrix(1 0 0 1.00001 379.904 440.501)"/><path d="M44.8282 61.0713C45.6164 61.0713 46.2549 60.4327 46.2549 59.6445 46.2549 58.8563 45.6164 58.2177 44.8282 58.2177 44.04 58.2177 43.4014 58.8563 43.4014 59.6445 43.4014 60.4327 44.03 61.0713 44.8282 61.0713" fill="#FFFFFF" transform="matrix(1 0 0 1.00001 379.904 440.501)"/><path d="M41.4059 58.8862C42.1941 58.8862 42.8327 58.2477 42.8327 57.4595 42.8327 56.6713 42.1941 56.0327 41.4059 56.0327 40.6177 56.0327 39.9792 56.6713 39.9792 57.4595 39.9892 58.2477 40.6277 58.8862 41.4059 58.8862" fill="#FFFFFF" transform="matrix(1 0 0 1.00001 379.904 440.501)"/><path d="M41.805 63.7751C42.5932 63.7751 43.2318 63.1366 43.2318 62.3484 43.2318 61.5602 42.5932 60.9116 41.805 60.9116 41.0168 60.9116 40.3783 61.5502 40.3783 62.3484 40.3783 63.1366 41.0168 63.7751 41.805 63.7751" fill="#FFFFFF" transform="matrix(1 0 0 1.00001 379.904 440.501)"/><path d="M38.5923 66.6885C39.3805 66.6885 40.0191 66.0499 40.0191 65.2617 40.0191 64.4735 39.3805 63.835 38.5923 63.835 37.8041 63.835 37.1656 64.4735 37.1656 65.2617 37.1656 66.0499 37.8141 66.6885 38.5923 66.6885" fill="#FFFFFF" transform="matrix(1 0 0 1.00001 379.904 440.501)"/><path d="M35.9184 62.9071C35.9184 62.1189 35.2799 61.4803 34.4916 61.4803 33.7034 61.4803 33.0649 62.1189 33.0649 62.9071 33.0649 63.6953 33.7034 64.3338 34.4916 64.3338 35.2799 64.3239 35.9184 63.6853 35.9184 62.9071" fill="#FFFFFF" transform="matrix(1 0 0 1.00001 379.904 440.501)"/><path d="M31.6381 60.4227C31.6381 59.6345 30.9996 58.996 30.2114 58.996 29.4232 58.996 28.7846 59.6345 28.7846 60.4227 28.7846 61.2109 29.4232 61.8495 30.2114 61.8495 30.9896 61.8495 31.6381 61.2109 31.6381 60.4227" fill="#FFFFFF" transform="matrix(1 0 0 1.00001 379.904 440.501)"/><path d="M34.1424 59.006C34.9306 59.006 35.5692 58.3674 35.5692 57.5792 35.5692 56.791 34.9306 56.1524 34.1424 56.1524 33.3542 56.1524 32.7157 56.791 32.7157 57.5792 32.7157 58.3674 33.3542 59.006 34.1424 59.006" fill="#FFFFFF" transform="matrix(1 0 0 1.00001 379.904 440.501)"/><path d="M29.952 56.2722C30.7402 56.2722 31.3787 55.6336 31.3787 54.8454 31.3787 54.0572 30.7402 53.4186 29.952 53.4186 29.1637 53.4186 28.5252 54.0572 28.5252 54.8454 28.5252 55.6336 29.1637 56.2722 29.952 56.2722" fill="#FFFFFF" transform="matrix(1 0 0 1.00001 379.904 440.501)"/><path d="M38.0536 61.4903C38.8418 61.4903 39.4803 60.8518 39.4803 60.0635 39.4803 59.2753 38.8418 58.6368 38.0536 58.6368 37.2653 58.6368 36.6268 59.2753 36.6268 60.0635 36.6368 60.8518 37.2753 61.4903 38.0536 61.4903" fill="#FFFFFF" transform="matrix(1 0 0 1.00001 379.904 440.501)"/><path d="M30.9198 64.3837C30.1315 64.3837 29.493 65.0223 29.493 65.8105 29.493 66.5987 30.1315 67.2373 30.9198 67.2373 31.708 67.2373 32.3465 66.5987 32.3465 65.8105 32.3465 65.0223 31.708 64.3837 30.9198 64.3837" fill="#FFFFFF" transform="matrix(1 0 0 1.00001 379.904 440.501)"/><path d="M36.517 68.2948C36.517 67.5066 35.8785 66.8681 35.0903 66.8681 34.3021 66.8681 33.6635 67.5066 33.6635 68.2948 33.6635 69.0831 34.3021 69.7216 35.0903 69.7216 35.8785 69.7216 36.517 69.0831 36.517 68.2948" fill="#FFFFFF" transform="matrix(1 0 0 1.00001 379.904 440.501)"/><path d="M54.1071 57.1402C54.1071 56.352 53.4685 55.7134 52.6803 55.7134 51.8921 55.7134 51.2536 56.352 51.2536 57.1402 51.2536 57.9284 51.8921 58.5669 52.6803 58.5669 53.4685 58.5669 54.1071 57.9284 54.1071 57.1402" fill="#FFFFFF" transform="matrix(1 0 0 1.00001 379.904 440.501)"/><path d="M54.9152 60.8917C55.7035 60.8917 56.342 60.2531 56.342 59.4649 56.342 58.6767 55.7035 58.0381 54.9152 58.0381 54.127 58.0381 53.4885 58.6767 53.4885 59.4649 53.4885 60.2531 54.127 60.8917 54.9152 60.8917" fill="#FFFFFF" transform="matrix(1 0 0 1.00001 379.904 440.501)"/><path d="M53.9774 62.1688C53.9774 61.3806 53.3388 60.742 52.5506 60.742 51.7624 60.742 51.1239 61.3806 51.1239 62.1688 51.1239 62.957 51.7624 63.5955 52.5506 63.5955 53.3388 63.5955 53.9774 62.957 53.9774 62.1688" fill="#FFFFFF" transform="matrix(1 0 0 1.00001 379.904 440.501)"/><path d="M50.176 66.4391C50.9642 66.4391 51.6028 65.8005 51.6028 65.0123 51.6028 64.2241 50.9642 63.5855 50.176 63.5855 49.3878 63.5855 48.7493 64.2241 48.7493 65.0123 48.7493 65.8005 49.3878 66.4391 50.176 66.4391" fill="#FFFFFF" transform="matrix(1 0 0 1.00001 379.904 440.501)"/><path d="M52.3411 69.7914C53.1293 69.7914 53.7678 69.1529 53.7678 68.3647 53.7678 67.5765 53.1293 66.928 52.3411 66.928 51.5529 66.928 50.9143 67.5665 50.9143 68.3647 50.9143 69.1529 51.5529 69.7914 52.3411 69.7914" fill="#FFFFFF" transform="matrix(1 0 0 1.00001 379.904 440.501)"/><path d="M49.6871 73.1139C50.4753 73.1139 51.1139 72.4753 51.1139 71.6871 51.1139 70.8989 50.4753 70.2604 49.6871 70.2604 48.8989 70.2604 48.2604 70.8989 48.2604 71.6871 48.2604 72.4753 48.8989 73.1139 49.6871 73.1139" fill="#FFFFFF" transform="matrix(1 0 0 1.00001 379.904 440.501)"/><path d="M44.4989 72.5751C45.2871 72.5751 45.9257 71.9366 45.9257 71.1484 45.9257 70.3602 45.2871 69.7216 44.4989 69.7216 43.7107 69.7216 43.0721 70.3602 43.0721 71.1484 43.0721 71.9366 43.7107 72.5751 44.4989 72.5751" fill="#FFFFFF" transform="matrix(1 0 0 1.00001 379.904 440.501)"/><path d="M42.4635 68.7837C43.2517 68.7837 43.8903 68.1452 43.8903 67.357 43.8903 66.5688 43.2517 65.9302 42.4635 65.9302 41.6753 65.9302 41.0368 66.5688 41.0368 67.357 41.0368 68.1452 41.6753 68.7837 42.4635 68.7837" fill="#FFFFFF" transform="matrix(1 0 0 1.00001 379.904 440.501)"/><path d="M47.4622 69.4023C48.2504 69.4023 48.8889 68.7638 48.8889 67.9756 48.8889 67.1874 48.2504 66.5488 47.4622 66.5488 46.674 66.5488 46.0354 67.1874 46.0354 67.9756 46.0354 68.7638 46.674 69.4023 47.4622 69.4023" fill="#FFFFFF" transform="matrix(1 0 0 1.00001 379.904 440.501)"/><path d="M46.674 64.4236C46.674 63.6354 46.0354 62.9969 45.2472 62.9969 44.459 62.9969 43.8204 63.6354 43.8204 64.4236 43.8204 65.2119 44.459 65.8504 45.2472 65.8504 46.0354 65.8504 46.674 65.2119 46.674 64.4236" fill="#FFFFFF" transform="matrix(1 0 0 1.00001 379.904 440.501)"/><path d="M47.9012 63.2663C48.6894 63.2663 49.3279 62.6277 49.3279 61.8395 49.3279 61.0513 48.6894 60.4128 47.9012 60.4128 47.113 60.4128 46.4744 61.0513 46.4744 61.8395 46.4744 62.6277 47.113 63.2663 47.9012 63.2663" fill="#FFFFFF" transform="matrix(1 0 0 1.00001 379.904 440.501)"/><path d="M50.3955 60.8019C51.1837 60.8019 51.8223 60.1633 51.8223 59.3751 51.8223 58.5869 51.1837 57.9484 50.3955 57.9484 49.6073 57.9484 48.9688 58.5869 48.9688 59.3751 48.9688 60.1633 49.6073 60.8019 50.3955 60.8019" fill="#FFFFFF" transform="matrix(1 0 0 1.00001 379.904 440.501)"/><path d="M40.7873 70.3003C40.7873 69.5121 40.1488 68.8735 39.3606 68.8735 38.5724 68.8735 37.9338 69.5121 37.9338 70.3003 37.9338 71.0885 38.5724 71.7271 39.3606 71.7271 40.1488 71.7271 40.7873 71.0885 40.7873 70.3003" fill="#FFFFFF" transform="matrix(1 0 0 1.00001 379.904 440.501)"/><path d="M41.4858 73.2336C40.6975 73.2336 40.059 73.8722 40.059 74.6704 40.059 75.4586 40.6975 76.0971 41.4858 76.0971 42.274 76.0971 42.9125 75.4586 42.9125 74.6704 42.9125 73.8822 42.274 73.2336 41.4858 73.2336" fill="#FFFFFF" transform="matrix(1 0 0 1.00001 379.904 440.501)"/><path d="M36.3175 72.206C35.5293 72.206 34.8907 72.8445 34.8907 73.6327 34.8907 74.4209 35.5293 75.0595 36.3175 75.0595 37.1057 75.0595 37.7443 74.4209 37.7443 73.6327 37.7443 72.8445 37.1057 72.206 36.3175 72.206" fill="#FFFFFF" transform="matrix(1 0 0 1.00001 379.904 440.501)"/><path d="M46.8536 73.8323C46.0653 73.8323 45.4268 74.4708 45.4268 75.259 45.4268 76.0472 46.0653 76.6858 46.8536 76.6858 47.6418 76.6858 48.2803 76.0472 48.2803 75.259 48.2803 74.4708 47.6418 73.8323 46.8536 73.8323" fill="#FFFFFF" transform="matrix(1 0 0 1.00001 379.904 440.501)"/><path d="M59.6046 43.3814C58.8164 43.3814 58.1778 44.02 58.1778 44.8082 58.1778 45.5964 58.8164 46.235 59.6046 46.235 60.3928 46.235 61.0313 45.5964 61.0313 44.8082 61.0413 44.02 60.3928 43.3814 59.6046 43.3814" fill="#FFFFFF" transform="matrix(1 0 0 1.00001 379.904 440.501)"/><path d="M69.7116 44.5687C69.7116 45.357 70.3502 45.9955 71.1384 45.9955 71.9266 45.9955 72.5651 45.357 72.5651 44.5687 72.5651 43.7805 71.9266 43.142 71.1384 43.142 70.3502 43.142 69.7116 43.7805 69.7116 44.5687" fill="#FFFFFF" transform="matrix(1 0 0 1.00001 379.904 440.501)"/><path d="M67.9855 46.0653C67.1973 46.0653 66.5588 46.7039 66.5588 47.4921 66.5588 48.2803 67.1973 48.9189 67.9855 48.9189 68.7738 48.9189 69.4123 48.2803 69.4123 47.4921 69.4123 46.7039 68.7638 46.0653 67.9855 46.0653" fill="#FFFFFF" transform="matrix(1 0 0 1.00001 379.904 440.501)"/><path d="M71.6772 51.1239C72.4654 51.1239 73.1039 50.4853 73.1039 49.6971 73.1039 48.9089 72.4654 48.2703 71.6772 48.2703 70.889 48.2703 70.2504 48.9089 70.2504 49.6971 70.2504 50.4853 70.889 51.1239 71.6772 51.1239" fill="#FFFFFF" transform="matrix(1 0 0 1.00001 379.904 440.501)"/><path d="M71.8967 53.4087C71.1085 53.4087 70.4699 54.0572 70.4699 54.8354 70.4699 55.6236 71.1085 56.2622 71.8967 56.2622 72.6849 56.2622 73.3234 55.6236 73.3234 54.8354 73.3234 54.0572 72.6849 53.4087 71.8967 53.4087" fill="#FFFFFF" transform="matrix(1 0 0 1.00001 379.904 440.501)"/><path d="M66.888 52.371C66.888 53.1592 67.5266 53.7978 68.3148 53.7978 69.103 53.7978 69.7416 53.1592 69.7416 52.371 69.7416 51.5828 69.103 50.9443 68.3148 50.9443 67.5266 50.9443 66.888 51.5828 66.888 52.371" fill="#FFFFFF" transform="matrix(1 0 0 1.00001 379.904 440.501)"/><path d="M65.0123 51.6028C65.8005 51.6028 66.4391 50.9642 66.4391 50.176 66.4391 49.3878 65.8005 48.7493 65.0123 48.7493 64.2241 48.7493 63.5855 49.3878 63.5855 50.176 63.5855 50.9542 64.2241 51.6028 65.0123 51.6028" fill="#FFFFFF" transform="matrix(1 0 0 1.00001 379.904 440.501)"/><path d="M104.353 56.1923C104.353 57.5493 104.203 58.0681 103.924 58.4772 103.186 59.6345 101.789 59.6545 101.32 59.6545 98.5162 59.6545 98.4064 57.8087 98.4064 56.342L98.4064 47.9112 95.523 47.9112 95.523 56.1923C95.523 57.4395 95.5629 58.4772 96.2114 59.4948 97.4785 61.5302 99.933 61.8196 101.27 61.8196 103.984 61.8196 107.157 60.5425 107.157 56.5415L107.157 47.9012 104.353 47.9012 104.353 56.1923 104.353 56.1923Z" fill="#FFFFFF" transform="matrix(1 0 0 1.00001 379.904 440.501)"/><path d="M114.899 51.7225C112.854 51.7225 112.115 52.9397 111.846 53.3588L111.766 51.942 109.132 51.942C109.192 52.6005 109.192 53.6182 109.192 53.6581L109.192 61.3706 111.966 61.3706 111.966 55.8731C111.966 55.1447 112.135 54.6858 112.295 54.4363 112.594 53.9874 113.133 53.708 113.722 53.708 114.43 53.708 114.859 54.0971 115.069 54.5062 115.218 54.8055 115.218 55.1447 115.218 55.5338L115.218 61.3706 118.032 61.3706 118.032 56.2921C118.032 54.5461 117.972 54.0572 117.772 53.4885 117.523 52.84 116.735 51.7225 114.899 51.7225L114.899 51.7225Z" fill="#FFFFFF" transform="matrix(1 0 0 1.00001 379.904 440.501)"/><path d="M120.117 61.3706 122.861 61.3706 122.861 51.9719 120.117 51.9719 120.117 61.3706Z" fill="#FFFFFF" transform="matrix(1 0 0 1.00001 379.904 440.501)"/><path d="M129.236 58.3574 127.121 51.9819 124.178 51.9819 127.62 61.3806 130.673 61.3806 134.055 51.9819 131.392 51.9819 129.236 58.3574Z" fill="#FFFFFF" transform="matrix(1 0 0 1.00001 379.904 440.501)"/><path d="M139.154 51.6726C138.136 51.6726 137.238 51.9719 136.52 52.4608 134.943 53.5583 134.564 55.3742 134.564 56.9007 134.564 58.4073 134.913 59.6744 135.772 60.5624 136.749 61.5801 138.276 61.7298 139.084 61.7298 140.461 61.7298 141.678 61.3606 142.367 60.6323 143.135 59.8341 143.225 59.0359 143.265 58.5869L140.75 58.5869C140.491 59.6345 139.802 59.8939 139.114 59.8939 137.198 59.8939 137.198 57.9982 137.198 57.3796L143.504 57.3796C143.544 56.6014 143.574 55.2245 142.945 53.9375 142.097 52.1914 140.501 51.6726 139.154 51.6726L139.154 51.6726ZM137.298 55.6436C137.358 54.5461 137.857 53.5384 139.064 53.5384 140.66 53.5384 140.7 55.2146 140.7 55.6436L137.298 55.6436 137.298 55.6436Z" fill="#FFFFFF" transform="matrix(1 0 0 1.00001 379.904 440.501)"/><path d="M147.784 53.7579 147.724 51.952 145.14 51.952C145.2 52.4908 145.27 53.8477 145.27 54.2966L145.27 61.3806 148.024 61.3806 148.024 56.7511C148.024 55.5837 148.193 54.147 150.977 54.4064L150.977 51.932C148.752 51.8223 148.143 52.9497 147.784 53.7579L147.784 53.7579Z" fill="#FFFFFF" transform="matrix(1 0 0 1.00001 379.904 440.501)"/><path d="M157.542 55.8032 155.856 55.3443C155.038 55.1148 154.579 54.9851 154.579 54.3565 154.579 53.7778 155.128 53.4286 155.876 53.4286 156.305 53.4286 157.143 53.5084 157.213 54.5461L159.717 54.5461C159.647 52.6703 158.081 51.7824 156.145 51.7824 153.711 51.7824 152.035 52.8998 152.035 54.7157 152.035 56.6313 153.651 57.0903 154.409 57.3198L156.115 57.7887C157.193 58.088 157.412 58.4173 157.412 58.8463 157.412 59.405 156.943 59.9638 155.956 59.9638 154.808 59.9638 154.439 59.2753 154.399 58.6767L151.815 58.6767C151.835 59.1257 151.895 59.864 152.504 60.5125 153.362 61.4105 154.509 61.6699 155.726 61.6699 158.65 61.6699 160.036 60.0536 160.036 58.4372 160.046 57.1302 159.248 56.2622 157.542 55.8032L157.542 55.8032Z" fill="#FFFFFF" transform="matrix(1 0 0 1.00001 379.904 440.501)"/><path d="M161.802 61.3706 164.546 61.3706 164.546 51.9719 161.802 51.9719 161.802 61.3706Z" fill="#FFFFFF" transform="matrix(1 0 0 1.00001 379.904 440.501)"/><path d="M170.612 48.6994 167.879 49.1982 167.879 52.0418 166.073 52.0418 166.073 53.8576 167.879 53.8576 167.879 59.006C167.879 59.7842 167.879 61.5302 170.652 61.5302 171.101 61.5302 171.899 61.4704 172.787 61.2309L172.787 59.425C172.458 59.4649 172.269 59.4849 171.86 59.4849 170.632 59.4849 170.632 58.9461 170.612 58.088L170.612 53.8477 172.847 53.8477 172.847 52.0318 170.612 52.0318 170.612 48.6994 170.612 48.6994Z" fill="#FFFFFF" transform="matrix(1 0 0 1.00001 379.904 440.501)"/><path d="M182.635 55.2245C182.635 54.7955 182.615 53.6781 181.987 52.9198 181.049 51.8422 179.422 51.7125 178.634 51.7125 177.746 51.7125 176.649 51.8622 175.791 52.4808 174.803 53.1892 174.753 54.1869 174.733 54.6957L177.437 54.6957C177.437 54.4762 177.437 54.1769 177.636 53.8576 177.876 53.5084 178.285 53.3388 178.674 53.3388 178.934 53.3388 179.652 53.4286 179.901 54.1171 180.011 54.4463 180.031 54.7456 180.031 55.3642 179.123 55.3642 177.467 55.3642 176.309 55.883 174.583 56.6812 174.324 58.0581 174.324 58.7964 174.324 59.5347 174.583 60.303 175.142 60.8617 175.511 61.2109 176.13 61.6001 177.487 61.6001 178.006 61.6001 179.253 61.6001 180.29 60.0935 180.29 60.3728 180.29 60.8019 180.38 61.3806L182.875 61.3806C182.705 60.5923 182.645 59.8041 182.645 59.006L182.635 55.2245 182.635 55.2245ZM179.512 59.2753C179.253 59.5647 178.844 59.8141 178.345 59.8141 177.437 59.8141 177.008 59.1057 177.008 58.4772 177.008 57.3597 178.275 56.801 180.041 56.9506 180.031 57.9484 180.001 58.6767 179.512 59.2753L179.512 59.2753Z" fill="#FFFFFF" transform="matrix(1 0 0 1.00001 379.904 440.501)"/><path d="M188.562 49.1982 185.828 50.2059 185.828 52.0517 184.022 52.0517 184.022 53.8676 185.828 53.8676 185.828 59.0159C185.828 59.7942 185.828 61.5402 188.602 61.5402 189.051 61.5402 189.839 61.4803 190.737 61.2409L190.737 59.435C190.397 59.4749 190.218 59.4849 189.809 59.4849 188.582 59.4849 188.582 58.9461 188.562 58.088L188.562 53.8477 190.797 53.8477 190.797 52.0318 188.562 52.0318 188.562 49.1982 188.562 49.1982Z" fill="#FFFFFF" transform="matrix(1 0 0 1.00001 379.904 440.501)"/><path d="M203.907 53.5084C201.971 53.0196 200.993 52.8 200.993 51.5529 200.993 50.4554 201.871 49.737 203.208 49.737 205.194 49.737 205.344 51.3234 205.383 51.7824L208.157 51.7824C208.157 51.3334 208.157 50.2558 207.399 49.288 206.401 48.0209 204.745 47.7116 203.348 47.7116 199.617 47.7116 198.03 49.6672 198.03 51.8821 198.03 54.2069 199.776 55.1547 202.979 55.9529 204.685 56.362 205.523 56.5715 205.523 57.7588 205.523 58.8962 204.535 59.6345 202.979 59.6345 200.505 59.6345 200.544 57.7189 200.544 57.0803L197.611 57.0803C197.631 58.3874 197.671 61.6998 202.819 61.6998 206.541 61.6998 208.546 59.7443 208.546 57.3298 208.516 54.6957 206.231 54.0672 203.907 53.5084L203.907 53.5084Z" fill="#FFFFFF" transform="matrix(1 0 0 1.00001 379.904 440.501)"/><path d="M214.014 49.1982 211.28 50.2059 211.28 52.0517 209.484 52.0517 209.484 53.8676 211.28 53.8676 211.28 59.0159C211.28 59.7942 211.28 61.5402 214.054 61.5402 214.493 61.5402 215.301 61.4803 216.189 61.2409L216.189 59.435C215.86 59.4749 215.67 59.4849 215.261 59.4849 214.034 59.4849 214.034 58.9461 214.014 58.088L214.014 53.8477 216.239 53.8477 216.239 52.0318 214.014 52.0318 214.014 49.1982 214.014 49.1982Z" fill="#FFFFFF" transform="matrix(1 0 0 1.00001 379.904 440.501)"/><path d="M226.505 58.1778 226.505 51.9819 223.682 51.9819 223.682 56.7211C223.682 58.3175 223.682 59.6445 221.916 59.6445 220.449 59.6445 220.449 58.3973 220.449 57.5792L220.449 51.9819 217.656 51.9819 217.656 57.8186C217.656 58.2776 217.656 59.5846 218.274 60.3429 218.793 61.0313 219.831 61.6001 221.098 61.6001 222.884 61.6001 223.592 60.5225 223.871 60.1134L223.961 61.3606 226.635 61.3606C226.595 61.1012 226.575 60.9316 226.555 60.6722 226.555 60.4427 226.535 60.2032 226.505 58.1778L226.505 58.1778Z" fill="#FFFFFF" transform="matrix(1 0 0 1.00001 379.904 440.501)"/><path d="M239.346 49.1982 236.612 50.2059 236.612 52.0517 232.582 52.0517 232.582 49.2082 229.858 50.2159 229.858 52.0617 228.052 52.0617 228.052 53.8776 229.858 53.8776 229.858 59.0259C229.858 59.8041 229.858 61.5502 232.632 61.5502 233.071 61.5502 233.879 61.4903 234.767 61.2509L234.767 59.445C234.437 59.4849 234.248 59.5048 233.839 59.5048 232.622 59.5048 232.622 58.966 232.592 58.108L232.592 53.8676 236.622 53.8676 236.622 59.0159C236.622 59.7942 236.622 61.5402 239.386 61.5402 239.835 61.5402 240.633 61.4803 241.531 61.2409L241.531 59.435C241.202 59.4749 241.012 59.4948 240.603 59.4948 239.376 59.4948 239.376 58.9561 239.356 58.098L239.356 53.8576 241.591 53.8576 241.591 52.0418 239.356 52.0418 239.356 49.1982 239.346 49.1982Z" fill="#FFFFFF" transform="matrix(1 0 0 1.00001 379.904 440.501)"/><path d="M249.453 53.269C249.174 52.8599 248.545 51.932 246.829 51.932 244.135 51.932 242.818 54.1969 242.818 56.5815 242.818 58.8463 244.085 61.191 246.779 61.191 247.448 61.191 248.436 61.0713 249.304 59.9139 249.284 61.3506 249.284 61.6799 249.174 62.1488 248.984 62.9869 248.276 63.376 247.458 63.376 245.991 63.376 245.861 62.3583 245.832 62.079L243.188 62.079C243.357 64.9225 245.981 65.0921 247.318 65.0921 249.114 65.0921 251.998 64.7629 251.998 61.3007L251.998 54.3665C251.998 53.4186 252.057 52.7901 252.127 52.0418L249.543 52.0418 249.453 53.269 249.453 53.269ZM247.408 59.3053C245.572 59.3053 245.572 57.0404 245.572 56.5715 245.572 54.566 246.42 53.7678 247.468 53.7678 249.144 53.7678 249.344 55.5737 249.344 56.6313 249.344 57.0404 249.344 59.3053 247.408 59.3053L247.408 59.3053Z" fill="#FFFFFF" transform="matrix(1 0 0 1.00001 379.904 440.501)"/><path d="M261.955 55.2245C261.955 54.7955 261.935 53.6781 261.306 52.9198 260.378 51.8422 258.742 51.7125 257.964 51.7125 257.076 51.7125 255.968 51.8622 255.12 52.4808 254.133 53.1892 254.083 54.1869 254.063 54.6957L256.757 54.6957C256.757 54.4762 256.757 54.1769 256.966 53.8576 257.206 53.5084 257.615 53.3388 258.004 53.3388 258.263 53.3388 258.992 53.4286 259.231 54.1171 259.341 54.4463 259.361 54.7456 259.361 55.3642 258.453 55.3642 256.797 55.3642 255.649 55.883 253.913 56.6812 253.664 58.0581 253.664 58.7964 253.664 59.5347 253.923 60.303 254.482 60.8617 254.851 61.2109 255.47 61.6001 256.827 61.6001 257.345 61.6001 258.593 61.6001 259.63 60.0935 259.63 60.3728 259.63 60.8019 259.72 61.3806L262.214 61.3806C262.045 60.5923 261.985 59.8041 261.985 59.006L261.955 55.2245 261.955 55.2245ZM258.832 59.2753C258.573 59.5647 258.164 59.8141 257.665 59.8141 256.757 59.8141 256.328 59.1057 256.328 58.4772 256.328 57.3597 257.595 56.801 259.361 56.9506 259.351 57.9484 259.311 58.6767 258.832 59.2753L258.832 59.2753Z" fill="#FFFFFF" transform="matrix(1 0 0 1.00001 379.904 440.501)"/><path d="M276.103 53.8676 276.103 52.0517 273.868 52.0517 273.868 49.2082 271.134 50.2059 271.134 52.0517 269.328 52.0517 269.328 52.0617C267.542 52.1316 266.983 53.0295 266.674 53.7678L266.614 51.962 264.03 51.962C264.09 52.5007 264.16 53.8576 264.16 54.2966L264.16 61.3806 266.914 61.3806 266.914 56.7511C266.914 55.5737 266.874 53.8676 269.867 53.8676L271.134 53.8676 271.134 59.0159C271.134 59.7942 271.134 61.5402 273.908 61.5402 274.357 61.5402 275.155 61.4803 276.043 61.2409L276.043 59.435C275.714 59.4749 275.524 59.4948 275.115 59.4948 273.888 59.4948 273.888 58.9561 273.868 58.098L273.868 53.8576 276.103 53.8576 276.103 53.8676Z" fill="#FFFFFF" transform="matrix(1 0 0 1.00001 379.904 440.501)"/><path d="M176.888 50.6449C177.636 50.6449 178.245 50.0363 178.245 49.298 178.245 48.5497 177.636 47.9511 176.888 47.9511 176.14 47.9511 175.541 48.5597 175.541 49.298 175.541 50.0363 176.15 50.6449 176.888 50.6449L176.888 50.6449Z" fill="#FFFFFF" transform="matrix(1 0 0 1.00001 379.904 440.501)"/><path d="M180.5 50.6449C181.248 50.6449 181.857 50.0363 181.857 49.298 181.857 48.5497 181.248 47.9511 180.5 47.9511 179.762 47.9511 179.153 48.5597 179.153 49.298 179.153 50.0363 179.752 50.6449 180.5 50.6449L180.5 50.6449Z" fill="#FFFFFF" transform="matrix(1 0 0 1.00001 379.904 440.501)"/><path d="M163.199 47.8114C162.381 47.8114 161.723 48.4799 161.723 49.288 161.723 50.1062 162.381 50.7747 163.199 50.7747 164.017 50.7747 164.676 50.1062 164.676 49.288 164.686 48.4799 164.017 47.8114 163.199 47.8114L163.199 47.8114Z" fill="#FFFFFF" transform="matrix(1 0 0 1.00001 379.904 440.501)"/><path d="M121.484 47.8114C120.666 47.8114 120.007 48.4799 120.007 49.288 120.007 50.1062 120.666 50.7747 121.484 50.7747 122.302 50.7747 122.961 50.1062 122.961 49.288 122.971 48.4799 122.302 47.8114 121.484 47.8114L121.484 47.8114Z" fill="#FFFFFF" transform="matrix(1 0 0 1.00001 379.904 440.501)"/><path d="M96.86 70.9688 96.86 80.3375 95.5629 80.3375 95.5629 70.9688 96.86 70.9688Z" fill="#FFFFFF" transform="matrix(1 0 0 1.00001 379.904 440.501)"/><path d="M104.812 80.3375 103.565 80.3375 103.565 76.0672C103.565 75.5983 103.415 75.249 103.126 74.9996 102.836 74.7602 102.477 74.6404 102.058 74.6404 101.539 74.6404 101.13 74.82 100.821 75.1892 100.512 75.5583 100.362 76.0073 100.362 76.5461L100.362 80.3375 99.1448 80.3375 99.1448 74.2912C99.1448 74.1715 99.1448 74.0119 99.1348 73.8223L100.352 73.8223C100.352 74.0917 100.352 74.3112 100.362 74.4808L100.362 74.8699C100.761 74.0817 101.46 73.6926 102.447 73.6926 103.146 73.6926 103.714 73.8921 104.153 74.2812 104.592 74.6704 104.812 75.2091 104.812 75.8976L104.812 80.3375Z" fill="#FFFFFF" transform="matrix(1 0 0 1.00001 379.904 440.501)"/><path d="M111.686 75.6282 110.439 75.6282 110.439 75.5484C110.439 74.8899 110.02 74.5606 109.182 74.5606 108.763 74.5606 108.444 74.6404 108.204 74.8001 107.975 74.9597 107.855 75.1892 107.855 75.4985 107.855 75.8976 108.114 76.157 108.643 76.2867L110.15 76.6658C110.718 76.8055 111.147 77.015 111.427 77.2944 111.706 77.5738 111.846 77.9529 111.846 78.4318 111.846 79.0704 111.606 79.5792 111.118 79.9584 110.629 80.3375 109.95 80.5271 109.072 80.5271 108.244 80.5271 107.606 80.3475 107.157 79.9783 106.708 79.6091 106.488 79.0903 106.488 78.4119L107.775 78.4119C107.775 78.781 107.895 79.0704 108.144 79.2799 108.394 79.4894 108.743 79.5892 109.212 79.5892 109.651 79.5892 109.99 79.4894 110.21 79.2999 110.439 79.1103 110.549 78.8608 110.549 78.5615 110.549 78.1724 110.349 77.923 109.94 77.8033 109.531 77.6835 109.062 77.5638 108.513 77.4441 107.965 77.3243 107.506 77.1248 107.157 76.8654 106.797 76.596 106.628 76.1869 106.628 75.6481 106.628 75.0595 106.867 74.5806 107.336 74.2214 107.805 73.8622 108.424 73.6726 109.172 73.6726 109.88 73.6726 110.479 73.8123 110.958 74.1116 111.447 74.401 111.686 74.85 111.686 75.4486L111.686 75.6282Z" fill="#FFFFFF" transform="matrix(1 0 0 1.00001 379.904 440.501)"/><path d="M115.188 73.7924 116.645 73.7924 116.645 74.6903 115.188 74.6903 115.188 78.6713C115.188 78.9606 115.268 79.1701 115.418 79.2899 115.567 79.4096 115.787 79.4695 116.056 79.4695 116.276 79.4695 116.465 79.4495 116.635 79.4096L116.635 80.3574C116.535 80.3774 116.396 80.3974 116.216 80.4073 116.036 80.4273 115.847 80.4373 115.637 80.4373 115.009 80.4373 114.57 80.3275 114.33 80.098 114.091 79.8686 113.971 79.5393 113.971 79.0903L113.971 74.7103 112.814 74.7103 112.814 73.8123 113.971 73.8123 113.971 72.4354 115.178 72.0463 115.178 73.7924Z" fill="#FFFFFF" transform="matrix(1 0 0 1.00001 379.904 440.501)"/><path d="M119.479 70.9887 119.479 72.3257 118.012 72.3257 118.012 70.9887 119.479 70.9887ZM119.359 73.8223 119.359 80.3375 118.142 80.3375 118.142 73.8223 119.359 73.8223Z" fill="#FFFFFF" transform="matrix(1 0 0 1.00001 379.904 440.501)"/><path d="M123.2 73.7924 124.657 73.7924 124.657 74.6903 123.2 74.6903 123.2 78.6713C123.2 78.9606 123.28 79.1701 123.43 79.2899 123.579 79.4096 123.799 79.4695 124.068 79.4695 124.288 79.4695 124.477 79.4495 124.647 79.4096L124.647 80.3574C124.547 80.3774 124.407 80.3974 124.228 80.4073 124.048 80.4273 123.859 80.4373 123.649 80.4373 123.021 80.4373 122.582 80.3275 122.342 80.098 122.103 79.8686 121.983 79.5393 121.983 79.0903L121.983 74.7103 120.826 74.7103 120.826 73.8123 121.983 73.8123 121.983 72.4354 123.19 72.0463 123.19 73.7924Z" fill="#FFFFFF" transform="matrix(1 0 0 1.00001 379.904 440.501)"/><path d="M131.821 73.8223 131.821 79.1402C131.821 79.3597 131.831 79.7588 131.86 80.3375L130.593 80.3375C130.583 79.8686 130.573 79.4994 130.563 79.22 130.334 79.659 130.055 79.9683 129.705 80.1379 129.356 80.3076 128.957 80.3974 128.488 80.3974 127.72 80.3974 127.131 80.1978 126.732 79.8087 126.333 79.4196 126.133 78.8708 126.133 78.1724L126.133 73.8223 127.381 73.8223 127.381 78.0527C127.381 78.5416 127.49 78.9008 127.72 79.1203 127.949 79.3398 128.299 79.4495 128.767 79.4495 129.296 79.4495 129.725 79.2999 130.065 79.0005 130.404 78.7012 130.573 78.2822 130.573 77.7434L130.573 73.8223 131.821 73.8223Z" fill="#FFFFFF" transform="matrix(1 0 0 1.00001 379.904 440.501)"/><path d="M135.652 73.7924 137.109 73.7924 137.109 74.6903 135.652 74.6903 135.652 78.6713C135.652 78.9606 135.732 79.1701 135.881 79.2899 136.031 79.4096 136.25 79.4695 136.52 79.4695 136.739 79.4695 136.929 79.4495 137.109 79.4096L137.109 80.3574C137.009 80.3774 136.869 80.3974 136.689 80.4073 136.51 80.4273 136.32 80.4373 136.111 80.4373 135.482 80.4373 135.043 80.3275 134.804 80.098 134.564 79.8686 134.445 79.5393 134.445 79.0903L134.445 74.7103 133.287 74.7103 133.287 73.8123 134.445 73.8123 134.445 72.4354 135.652 72.0463 135.652 73.7924Z" fill="#FFFFFF" transform="matrix(1 0 0 1.00001 379.904 440.501)"/><path d="M145.679 71.8767C145.45 71.8568 145.22 71.8468 145.001 71.8468 144.651 71.8468 144.402 71.9066 144.232 72.0164 144.063 72.1261 143.983 72.3556 143.983 72.6949L143.983 73.8223 145.499 73.8223 145.499 74.7003 143.983 74.7003 143.983 80.3275 142.776 80.3275 142.776 74.7003 141.489 74.7003 141.489 73.8223 142.776 73.8223 142.776 72.7747C142.776 72.0463 142.945 71.5375 143.284 71.2481 143.624 70.9588 144.093 70.8091 144.681 70.8091 144.851 70.8091 145.021 70.8191 145.19 70.8391 145.36 70.859 145.519 70.879 145.679 70.8989L145.679 71.8767Z" fill="#FFFFFF" transform="matrix(1 0 0 1.00001 379.904 440.501)"/><path d="M152.414 73.8223 152.414 79.1402C152.414 79.3597 152.424 79.7588 152.454 80.3375L151.187 80.3375C151.177 79.8686 151.167 79.4994 151.157 79.22 150.927 79.659 150.648 79.9683 150.299 80.1379 149.949 80.3076 149.55 80.3974 149.081 80.3974 148.313 80.3974 147.724 80.1978 147.325 79.8087 146.926 79.4196 146.727 78.8708 146.727 78.1724L146.727 73.8223 147.974 73.8223 147.974 78.0527C147.974 78.5416 148.084 78.9008 148.313 79.1203 148.543 79.3398 148.892 79.4495 149.361 79.4495 149.889 79.4495 150.319 79.2999 150.658 79.0005 150.997 78.7012 151.167 78.2822 151.167 77.7434L151.167 73.8223 152.414 73.8223ZM149.021 71.0087 149.021 72.3357 147.824 72.3357 147.824 71.0087 149.021 71.0087ZM151.486 71.0087 151.486 72.3357 150.279 72.3357 150.279 71.0087 151.486 71.0087Z" fill="#FFFFFF" transform="matrix(1 0 0 1.00001 379.904 440.501)"/><path d="M158.091 73.7724 158.091 74.9697C157.971 74.9298 157.792 74.8998 157.542 74.8998 156.884 74.8998 156.415 75.0595 156.145 75.3887 155.866 75.718 155.726 76.1869 155.726 76.8255L155.726 80.3375 154.499 80.3375 154.499 75.0595C154.469 74.4808 154.449 74.0717 154.439 73.8223L155.666 73.8223C155.686 74.3411 155.696 74.7602 155.696 75.0794 155.806 74.6404 156.045 74.3112 156.415 74.0817 156.784 73.8622 157.223 73.7524 157.742 73.7524 157.871 73.7524 157.991 73.7624 158.091 73.7724Z" fill="#FFFFFF" transform="matrix(1 0 0 1.00001 379.904 440.501)"/><path d="M167.569 70.9688 171.361 80.3375 169.944 80.3375 168.936 77.903 164.596 77.903 163.588 80.3375 162.251 80.3375 166.192 70.9688 167.569 70.9688ZM164.995 76.8454 168.537 76.8454 166.811 72.2558 164.995 76.8454Z" fill="#FFFFFF" transform="matrix(1 0 0 1.00001 379.904 440.501)"/><path d="M176.379 73.7724 176.379 74.9697C176.26 74.9298 176.08 74.8998 175.831 74.8998 175.172 74.8998 174.703 75.0595 174.434 75.3887 174.154 75.718 174.015 76.1869 174.015 76.8255L174.015 80.3375 172.777 80.3375 172.777 75.0595C172.748 74.4808 172.728 74.0717 172.708 73.8223L173.945 73.8223C173.965 74.3411 173.975 74.7602 173.975 75.0794 174.085 74.6404 174.324 74.3112 174.693 74.0817 175.062 73.8622 175.501 73.7524 176.02 73.7524 176.16 73.7524 176.28 73.7624 176.379 73.7724Z" fill="#FFFFFF" transform="matrix(1 0 0 1.00001 379.904 440.501)"/><path d="M179.073 70.9688 179.073 74.7701C179.293 74.381 179.572 74.1017 179.931 73.9221 180.29 73.7425 180.709 73.6527 181.198 73.6527 182.116 73.6527 182.815 73.942 183.304 74.5207 183.792 75.0994 184.032 75.8976 184.032 76.9352 184.032 78.0726 183.763 78.9407 183.224 79.5393 182.685 80.128 181.987 80.4273 181.129 80.4273 180.69 80.4273 180.29 80.3375 179.921 80.1579 179.562 79.9783 179.263 79.7089 179.043 79.3298L179.013 80.3275 177.836 80.3275 177.866 79.1602 177.866 70.9588 179.073 70.9588ZM182.286 75.1692C181.977 74.7203 181.518 74.4908 180.909 74.4808 180.31 74.4808 179.851 74.7003 179.532 75.1493 179.213 75.5983 179.053 76.2368 179.053 77.0749 179.053 77.8631 179.203 78.4717 179.512 78.9008 179.821 79.3298 180.27 79.5393 180.869 79.5393 181.488 79.5393 181.947 79.3098 182.266 78.8409 182.585 78.3819 182.745 77.7633 182.745 77.0051 182.745 76.2368 182.585 75.6182 182.286 75.1692Z" fill="#FFFFFF" transform="matrix(1 0 0 1.00001 379.904 440.501)"/><path d="M191.295 77.2944 186.616 77.2944 186.616 77.3942C186.616 78.0926 186.776 78.6413 187.105 79.0404 187.434 79.4395 187.893 79.6391 188.482 79.6391 188.921 79.6391 189.28 79.5293 189.549 79.2999 189.819 79.0704 189.968 78.7311 190.018 78.2921L191.236 78.2921C191.186 78.9706 190.906 79.5094 190.407 79.9085 189.909 80.3175 189.25 80.5171 188.432 80.5171 187.424 80.5171 186.676 80.2277 186.167 79.6491 185.658 79.0704 185.409 78.2323 185.409 77.1348 185.409 76.0073 185.678 75.1393 186.217 74.5407 186.756 73.942 187.504 73.6427 188.482 73.6427 190.328 73.6427 191.265 74.6803 191.295 76.7656L191.295 77.2944ZM190.048 76.4364 190.048 76.3465C190.048 75.7679 189.919 75.3189 189.649 74.9996 189.39 74.6803 188.981 74.5207 188.432 74.5207 187.913 74.5207 187.494 74.6903 187.165 75.0295 186.846 75.3688 186.666 75.8377 186.656 76.4364L190.048 76.4364Z" fill="#FFFFFF" transform="matrix(1 0 0 1.00001 379.904 440.501)"/><path d="M194.518 70.9887 194.518 72.3257 193.051 72.3257 193.051 70.9887 194.518 70.9887ZM194.398 73.8223 194.398 80.3375 193.181 80.3375 193.181 73.8223 194.398 73.8223Z" fill="#FFFFFF" transform="matrix(1 0 0 1.00001 379.904 440.501)"/><path d="M198.23 73.7924 199.686 73.7924 199.686 74.6903 198.23 74.6903 198.23 78.6713C198.23 78.9606 198.309 79.1701 198.459 79.2899 198.609 79.4096 198.828 79.4695 199.098 79.4695 199.317 79.4695 199.507 79.4495 199.676 79.4096L199.676 80.3574C199.577 80.3774 199.427 80.3974 199.257 80.4073 199.078 80.4273 198.888 80.4373 198.679 80.4373 198.05 80.4373 197.611 80.3275 197.372 80.098 197.132 79.8686 197.012 79.5393 197.012 79.0903L197.012 74.7103 195.855 74.7103 195.855 73.8123 197.012 73.8123 197.012 72.4354 198.22 72.0463 198.22 73.7924Z" fill="#FFFFFF" transform="matrix(1 0 0 1.00001 379.904 440.501)"/><path d="M205.822 75.6282 204.575 75.6282 204.575 75.5484C204.575 74.8899 204.156 74.5606 203.318 74.5606 202.899 74.5606 202.58 74.6404 202.35 74.8001 202.121 74.9597 202.001 75.1892 202.001 75.4985 202.001 75.8976 202.261 76.157 202.789 76.2867L204.296 76.6658C204.865 76.8055 205.294 77.015 205.573 77.2944 205.852 77.5738 205.992 77.9529 205.992 78.4318 205.992 79.0704 205.753 79.5792 205.264 79.9584 204.775 80.3375 204.096 80.5271 203.218 80.5271 202.39 80.5271 201.752 80.3475 201.303 79.9783 200.854 79.6091 200.634 79.0903 200.634 78.4119L201.921 78.4119C201.921 78.781 202.041 79.0704 202.29 79.2799 202.54 79.4894 202.889 79.5892 203.358 79.5892 203.797 79.5892 204.136 79.4894 204.356 79.2999 204.575 79.1103 204.695 78.8608 204.695 78.5615 204.695 78.1724 204.495 77.923 204.086 77.8033 203.677 77.6835 203.208 77.5638 202.66 77.4441 202.111 77.3243 201.652 77.1248 201.293 76.8654 200.934 76.596 200.764 76.1869 200.764 75.6481 200.764 75.0595 201.003 74.5806 201.472 74.2214 201.941 73.8622 202.56 73.6726 203.308 73.6726 204.017 73.6726 204.615 73.8123 205.094 74.1116 205.583 74.401 205.822 74.85 205.822 75.4486L205.822 75.6282Z" fill="#FFFFFF" transform="matrix(1 0 0 1.00001 379.904 440.501)"/><path d="M208.147 73.8223 209.714 79.0105 211.36 73.8223 212.956 73.8223 214.433 78.9606 216.069 73.8223 217.326 73.8223 215.031 80.3375 213.635 80.3375 212.108 74.9797 210.412 80.3375 208.975 80.3375 206.82 73.8223 208.147 73.8223Z" fill="#FFFFFF" transform="matrix(1 0 0 1.00001 379.904 440.501)"/><path d="M220.04 70.9887 220.04 72.3257 218.573 72.3257 218.573 70.9887 220.04 70.9887ZM219.92 73.8223 219.92 80.3375 218.703 80.3375 218.703 73.8223 219.92 73.8223Z" fill="#FFFFFF" transform="matrix(1 0 0 1.00001 379.904 440.501)"/><path d="M226.994 75.6282 225.747 75.6282 225.747 75.5484C225.747 74.8899 225.328 74.5606 224.49 74.5606 224.071 74.5606 223.752 74.6404 223.522 74.8001 223.293 74.9597 223.173 75.1892 223.173 75.4985 223.173 75.8976 223.432 76.157 223.961 76.2867L225.468 76.6658C226.036 76.8055 226.466 77.015 226.745 77.2944 227.024 77.5738 227.164 77.9529 227.164 78.4318 227.164 79.0704 226.924 79.5792 226.436 79.9584 225.947 80.3375 225.268 80.5271 224.39 80.5271 223.562 80.5271 222.924 80.3475 222.475 79.9783 222.026 79.6091 221.806 79.0903 221.806 78.4119L223.093 78.4119C223.093 78.781 223.213 79.0704 223.462 79.2799 223.712 79.4894 224.061 79.5892 224.53 79.5892 224.969 79.5892 225.308 79.4894 225.528 79.2999 225.747 79.1103 225.867 78.8608 225.867 78.5615 225.867 78.1724 225.667 77.923 225.258 77.8033 224.849 77.6835 224.38 77.5638 223.831 77.4441 223.283 77.3243 222.824 77.1248 222.465 76.8654 222.105 76.596 221.936 76.1869 221.936 75.6481 221.936 75.0595 222.175 74.5806 222.644 74.2214 223.113 73.8622 223.732 73.6726 224.48 73.6726 225.188 73.6726 225.787 73.8123 226.266 74.1116 226.755 74.401 226.994 74.85 226.994 75.4486L226.994 75.6282Z" fill="#FFFFFF" transform="matrix(1 0 0 1.00001 379.904 440.501)"/><path d="M233.569 75.6282 232.322 75.6282 232.322 75.5484C232.322 74.8899 231.903 74.5606 231.065 74.5606 230.646 74.5606 230.327 74.6404 230.097 74.8001 229.868 74.9597 229.748 75.1892 229.748 75.4985 229.748 75.8976 230.007 76.157 230.536 76.2867L232.043 76.6658C232.612 76.8055 233.041 77.015 233.32 77.2944 233.599 77.5738 233.739 77.9529 233.739 78.4318 233.739 79.0704 233.5 79.5792 233.011 79.9584 232.522 80.3375 231.843 80.5271 230.965 80.5271 230.137 80.5271 229.499 80.3475 229.05 79.9783 228.601 79.6091 228.381 79.0903 228.381 78.4119L229.668 78.4119C229.668 78.781 229.788 79.0704 230.037 79.2799 230.287 79.4894 230.636 79.5892 231.105 79.5892 231.544 79.5892 231.883 79.4894 232.103 79.2999 232.332 79.1103 232.442 78.8608 232.442 78.5615 232.442 78.1724 232.242 77.923 231.833 77.8033 231.424 77.6835 230.955 77.5638 230.407 77.4441 229.858 77.3243 229.399 77.1248 229.04 76.8654 228.68 76.596 228.511 76.1869 228.511 75.6481 228.511 75.0595 228.75 74.5806 229.219 74.2214 229.688 73.8622 230.307 73.6726 231.055 73.6726 231.763 73.6726 232.362 73.8123 232.841 74.1116 233.33 74.401 233.569 74.85 233.569 75.4486L233.569 75.6282Z" fill="#FFFFFF" transform="matrix(1 0 0 1.00001 379.904 440.501)"/><path d="M240.963 77.2944 236.283 77.2944 236.283 77.3942C236.283 78.0926 236.443 78.6413 236.772 79.0404 237.101 79.4395 237.56 79.6391 238.149 79.6391 238.588 79.6391 238.947 79.5293 239.217 79.2999 239.486 79.0704 239.636 78.7311 239.685 78.2921L240.903 78.2921C240.853 78.9706 240.573 79.5094 240.075 79.9085 239.576 80.3175 238.917 80.5171 238.099 80.5171 237.091 80.5171 236.343 80.2277 235.834 79.6491 235.325 79.0704 235.076 78.2323 235.076 77.1348 235.076 76.0073 235.345 75.1393 235.884 74.5407 236.423 73.942 237.171 73.6427 238.149 73.6427 239.995 73.6427 240.933 74.6803 240.963 76.7656L240.963 77.2944ZM239.715 76.4364 239.715 76.3465C239.715 75.7679 239.586 75.3189 239.316 74.9996 239.057 74.6803 238.648 74.5207 238.099 74.5207 237.58 74.5207 237.161 74.6903 236.832 75.0295 236.513 75.3688 236.333 75.8377 236.323 76.4364L239.715 76.4364Z" fill="#FFFFFF" transform="matrix(1 0 0 1.00001 379.904 440.501)"/><path d="M248.555 80.3375 247.308 80.3375 247.308 76.0672C247.308 75.5983 247.159 75.249 246.869 74.9996 246.58 74.7602 246.221 74.6404 245.802 74.6404 245.283 74.6404 244.874 74.82 244.564 75.1892 244.255 75.5583 244.105 76.0073 244.105 76.5461L244.105 80.3375 242.888 80.3375 242.888 74.2912C242.888 74.1715 242.888 74.0119 242.878 73.8223L244.095 73.8223C244.095 74.0917 244.095 74.3112 244.105 74.4808L244.105 74.8699C244.505 74.0817 245.203 73.6926 246.191 73.6926 246.889 73.6926 247.458 73.8921 247.897 74.2812 248.336 74.6704 248.555 75.2091 248.555 75.8976L248.555 80.3375Z" fill="#FFFFFF" transform="matrix(1 0 0 1.00001 379.904 440.501)"/><path d="M255.46 75.6282 254.212 75.6282 254.212 75.5484C254.212 74.8899 253.793 74.5606 252.955 74.5606 252.536 74.5606 252.217 74.6404 251.988 74.8001 251.758 74.9597 251.638 75.1892 251.638 75.4985 251.638 75.8976 251.898 76.157 252.427 76.2867L253.933 76.6658C254.502 76.8055 254.931 77.015 255.21 77.2944 255.49 77.5738 255.629 77.9529 255.629 78.4318 255.629 79.0704 255.39 79.5792 254.901 79.9584 254.412 80.3375 253.734 80.5271 252.856 80.5271 252.027 80.5271 251.389 80.3475 250.94 79.9783 250.491 79.6091 250.271 79.0903 250.271 78.4119L251.559 78.4119C251.559 78.781 251.678 79.0704 251.928 79.2799 252.177 79.4894 252.526 79.5892 252.995 79.5892 253.434 79.5892 253.773 79.4894 253.993 79.2999 254.212 79.1103 254.332 78.8608 254.332 78.5615 254.332 78.1724 254.133 77.923 253.724 77.8033 253.315 77.6835 252.846 77.5638 252.297 77.4441 251.748 77.3243 251.289 77.1248 250.93 76.8654 250.571 76.596 250.401 76.1869 250.401 75.6481 250.401 75.0595 250.641 74.5806 251.11 74.2214 251.578 73.8622 252.197 73.6726 252.945 73.6726 253.654 73.6726 254.252 73.8123 254.731 74.1116 255.22 74.401 255.46 74.85 255.46 75.4486L255.46 75.6282Z" fill="#FFFFFF" transform="matrix(1 0 0 1.00001 379.904 440.501)"/><path d="M261.147 75.9076C261.117 75.4586 260.997 75.1193 260.768 74.8899 260.538 74.6604 260.239 74.5506 259.85 74.5506 259.321 74.5506 258.912 74.7502 258.612 75.1393 258.313 75.5284 258.164 76.157 258.164 77.015 258.164 78.7311 258.702 79.5792 259.78 79.5792 260.199 79.5792 260.528 79.4595 260.778 79.2101 261.027 78.9606 261.167 78.6114 261.197 78.1624L262.434 78.1624C262.384 78.8409 262.115 79.4096 261.646 79.8386 261.167 80.2776 260.558 80.4971 259.82 80.4971 258.912 80.4971 258.193 80.2178 257.675 79.669 257.156 79.1203 256.886 78.2822 256.886 77.1647 256.886 76.0572 257.166 75.1992 257.715 74.5806 258.263 73.962 258.972 73.6527 259.84 73.6527 260.588 73.6527 261.197 73.8522 261.666 74.2513 262.125 74.6504 262.374 75.2091 262.394 75.9076L261.147 75.9076Z" fill="#FFFFFF" transform="matrix(1 0 0 1.00001 379.904 440.501)"/><path d="M265.247 70.9788 265.247 74.7801C265.457 74.4309 265.746 74.1715 266.105 73.9819 266.475 73.7924 266.894 73.7026 267.353 73.7026 267.991 73.7026 268.53 73.8722 268.969 74.2014 269.408 74.5307 269.627 75.1493 269.627 76.0373L269.627 80.3275 268.38 80.3275 268.38 76.3865C268.38 75.7679 268.261 75.3189 268.031 75.0395 267.802 74.7701 267.452 74.6305 266.983 74.6305 266.544 74.6305 266.145 74.7801 265.786 75.0695 265.427 75.3588 265.247 75.8976 265.247 76.6758L265.247 80.3175 264.01 80.3175 264.01 70.9688 265.247 70.9688Z" fill="#FFFFFF" transform="matrix(1 0 0 1.00001 379.904 440.501)"/><path d="M276.931 78.7112C276.941 79.1103 276.951 79.4096 276.971 79.6091 276.991 79.8087 277.011 80.0481 277.031 80.3275L275.933 80.3275C275.893 80.1779 275.863 80.0382 275.843 79.8885 275.823 79.7388 275.813 79.5692 275.813 79.3597 275.614 79.7289 275.354 80.0182 275.035 80.2277 274.716 80.4373 274.297 80.537 273.788 80.537 273.09 80.537 272.531 80.3574 272.122 80.0082 271.713 79.6491 271.503 79.1901 271.503 78.6214 271.503 77.9429 271.773 77.3742 272.311 76.9452 272.85 76.5062 273.678 76.2867 274.806 76.2867 275.255 76.2867 275.584 76.2967 275.793 76.3266L275.793 75.7778C275.793 75.249 275.664 74.8998 275.404 74.7203 275.145 74.5407 274.806 74.4509 274.377 74.4509 273.998 74.4509 273.698 74.5407 273.479 74.7302 273.259 74.9198 273.139 75.1892 273.12 75.5583L271.902 75.5583C271.942 74.8899 272.192 74.401 272.631 74.0917 273.07 73.7824 273.678 73.6227 274.456 73.6227 275.175 73.6227 275.773 73.7724 276.262 74.0717 276.751 74.371 276.991 74.8599 276.991 75.5284L276.931 78.7112ZM275.764 77.8432 275.793 77.1647C275.724 77.1547 275.634 77.1447 275.514 77.1348 275.394 77.1248 275.255 77.1248 275.095 77.1248 273.529 77.1248 272.75 77.5638 272.75 78.4318 272.75 78.7611 272.87 79.0305 273.09 79.25 273.319 79.4695 273.658 79.5792 274.097 79.5792 274.616 79.5792 275.015 79.4196 275.305 79.1103 275.584 78.801 275.744 78.3819 275.764 77.8432Z" fill="#FFFFFF" transform="matrix(1 0 0 1.00001 379.904 440.501)"/><path d="M282.488 71.8767C282.259 71.8568 282.029 71.8468 281.81 71.8468 281.461 71.8468 281.211 71.9066 281.042 72.0164 280.872 72.1261 280.792 72.3556 280.792 72.6949L280.792 73.8223 282.309 73.8223 282.309 74.7003 280.792 74.7003 280.792 80.3275 279.585 80.3275 279.585 74.7003 278.298 74.7003 278.298 73.8223 279.585 73.8223 279.585 72.7747C279.585 72.0463 279.754 71.5375 280.094 71.2481 280.433 70.9588 280.902 70.8091 281.491 70.8091 281.66 70.8091 281.83 70.8191 281.999 70.8391 282.169 70.859 282.329 70.879 282.488 70.8989L282.488 71.8767Z" fill="#FFFFFF" transform="matrix(1 0 0 1.00001 379.904 440.501)"/><path d="M285.541 73.7924 286.998 73.7924 286.998 74.6903 285.541 74.6903 285.541 78.6713C285.541 78.9606 285.621 79.1701 285.771 79.2899 285.92 79.4096 286.14 79.4695 286.409 79.4695 286.629 79.4695 286.818 79.4495 286.988 79.4096L286.988 80.3574C286.888 80.3774 286.739 80.3974 286.569 80.4073 286.389 80.4273 286.2 80.4373 285.99 80.4373 285.362 80.4373 284.923 80.3275 284.683 80.098 284.444 79.8686 284.324 79.5393 284.324 79.0903L284.324 74.7103 283.167 74.7103 283.167 73.8123 284.324 73.8123 284.324 72.4354 285.531 72.0463 285.531 73.7924Z" fill="#FFFFFF" transform="matrix(1 0 0 1.00001 379.904 440.501)"/><path d="M297.744 73.8223 297.744 79.1402C297.744 79.3597 297.754 79.7588 297.783 80.3375L296.516 80.3375C296.506 79.8686 296.496 79.4994 296.486 79.22 296.257 79.659 295.978 79.9683 295.628 80.1379 295.279 80.3076 294.88 80.3974 294.411 80.3974 293.643 80.3974 293.054 80.1978 292.655 79.8087 292.256 79.4196 292.057 78.8708 292.057 78.1724L292.057 73.8223 293.304 73.8223 293.304 78.0527C293.304 78.5416 293.423 78.9008 293.643 79.1203 293.872 79.3398 294.222 79.4495 294.691 79.4495 295.219 79.4495 295.648 79.2999 295.988 79.0005 296.327 78.7012 296.496 78.2822 296.496 77.7434L296.496 73.8223 297.744 73.8223Z" fill="#FFFFFF" transform="matrix(1 0 0 1.00001 379.904 440.501)"/><path d="M305.676 80.3375 304.428 80.3375 304.428 76.0672C304.428 75.5983 304.279 75.249 303.989 74.9996 303.7 74.7602 303.341 74.6404 302.922 74.6404 302.403 74.6404 301.994 74.82 301.685 75.1892 301.375 75.5583 301.226 76.0073 301.226 76.5461L301.226 80.3375 300.008 80.3375 300.008 74.2912C300.008 74.1715 300.008 74.0119 299.998 73.8223L301.216 73.8223C301.216 74.0917 301.216 74.3112 301.226 74.4808L301.226 74.8699C301.625 74.0817 302.323 73.6926 303.311 73.6926 304.009 73.6926 304.578 73.8921 305.017 74.2812 305.456 74.6704 305.676 75.2091 305.676 75.8976L305.676 80.3375Z" fill="#FFFFFF" transform="matrix(1 0 0 1.00001 379.904 440.501)"/><path d="M313.647 70.9788 313.647 79.3198C313.657 79.5493 313.677 79.8885 313.697 80.3275L312.48 80.3275C312.48 80.0581 312.47 79.7089 312.45 79.2899 312.271 79.6491 311.981 79.9384 311.582 80.1479 311.193 80.3574 310.754 80.4572 310.265 80.4572 309.437 80.4572 308.759 80.1679 308.24 79.5892 307.721 79.0105 307.452 78.1924 307.452 77.1547 307.452 76.0472 307.721 75.1792 308.26 74.5506 308.798 73.9221 309.507 73.6028 310.395 73.6028 310.844 73.6028 311.243 73.6926 311.592 73.8622 311.941 74.0318 312.211 74.3212 312.42 74.7103L312.42 70.9887 313.647 70.9887ZM311.921 75.1094C311.562 74.7103 311.103 74.5107 310.535 74.5107 309.966 74.5107 309.527 74.7302 309.218 75.1692 308.908 75.6082 308.759 76.2568 308.759 77.1248 308.759 78.781 309.357 79.6191 310.544 79.6191 311.163 79.6191 311.642 79.3996 311.971 78.9606 312.301 78.5216 312.46 77.8631 312.46 76.9851 312.46 76.137 312.281 75.5184 311.921 75.1094Z" fill="#FFFFFF" transform="matrix(1 0 0 1.00001 379.904 440.501)"/><path d="M102.258 89.9257 102.258 91.0232 99.1148 91.0232 99.1148 99.2844 97.8278 99.2844 97.8278 91.0232 94.6849 91.0232 94.6849 89.9257 102.258 89.9257Z" fill="#FFFFFF" transform="matrix(1 0 0 1.00001 379.904 440.501)"/><path d="M107.885 96.2513 103.206 96.2513 103.206 96.3511C103.206 97.0495 103.365 97.5983 103.694 97.9974 104.014 98.3965 104.483 98.596 105.071 98.596 105.51 98.596 105.869 98.4863 106.139 98.2568 106.408 98.0273 106.558 97.6881 106.608 97.2491L107.825 97.2491C107.775 97.9275 107.496 98.4663 106.997 98.8654 106.498 99.2745 105.84 99.474 105.021 99.474 104.014 99.474 103.265 99.1847 102.757 98.606 102.248 98.0273 101.998 97.1892 101.998 96.0917 101.998 94.9643 102.268 94.0962 102.806 93.4976 103.345 92.899 104.103 92.5996 105.071 92.5996 106.917 92.5996 107.855 93.6373 107.885 95.7225L107.885 96.2513ZM106.638 95.3933 106.638 95.3035C106.638 94.7248 106.508 94.2758 106.239 93.9566 105.979 93.6373 105.57 93.4776 105.021 93.4776 104.503 93.4776 104.084 93.6473 103.754 93.9865 103.425 94.3257 103.255 94.7946 103.245 95.3933L106.638 95.3933Z" fill="#FFFFFF" transform="matrix(1 0 0 1.00001 379.904 440.501)"/><path d="M113.572 94.8645C113.542 94.4155 113.422 94.0763 113.193 93.8468 112.963 93.6173 112.664 93.5076 112.275 93.5076 111.746 93.5076 111.337 93.7071 111.038 94.0962 110.738 94.4853 110.589 95.1139 110.589 95.972 110.589 97.6881 111.128 98.5361 112.205 98.5361 112.624 98.5361 112.953 98.4164 113.203 98.167 113.452 97.9175 113.592 97.5683 113.622 97.1194L114.849 97.1194C114.799 97.7978 114.53 98.3665 114.061 98.7956 113.592 99.2246 112.973 99.4541 112.235 99.4541 111.327 99.4541 110.609 99.1747 110.09 98.6259 109.571 98.0772 109.302 97.2391 109.302 96.1216 109.302 95.0142 109.571 94.1561 110.13 93.5375 110.679 92.9189 111.387 92.6096 112.255 92.6096 113.003 92.6096 113.612 92.8092 114.081 93.2083 114.54 93.6073 114.789 94.1661 114.809 94.8645L113.572 94.8645Z" fill="#FFFFFF" transform="matrix(1 0 0 1.00001 379.904 440.501)"/><path d="M117.713 89.9357 117.713 93.737C117.922 93.3878 118.211 93.1284 118.571 92.9389 118.94 92.7493 119.359 92.6595 119.818 92.6595 120.456 92.6595 120.995 92.8291 121.434 93.1584 121.873 93.4876 122.093 94.1062 122.093 94.9942L122.093 99.2844 120.845 99.2844 120.845 95.3434C120.845 94.7248 120.726 94.2758 120.496 93.9965 120.267 93.7271 119.918 93.5874 119.449 93.5874 119.01 93.5874 118.611 93.737 118.251 94.0264 117.892 94.3157 117.713 94.8545 117.713 95.6327L117.713 99.2745 116.485 99.2745 116.485 89.9257 117.713 89.9257Z" fill="#FFFFFF" transform="matrix(1 0 0 1.00001 379.904 440.501)"/><path d="M129.965 99.2944 128.718 99.2944 128.718 95.0241C128.718 94.5552 128.568 94.206 128.279 93.9566 127.989 93.7171 127.63 93.5974 127.211 93.5974 126.692 93.5974 126.283 93.777 125.974 94.1461 125.665 94.5153 125.515 94.9643 125.515 95.503L125.515 99.2944 124.298 99.2944 124.298 93.2482C124.298 93.1284 124.298 92.9688 124.288 92.7792L125.505 92.7792C125.505 93.0486 125.505 93.2681 125.515 93.4377L125.515 93.8268C125.914 93.0386 126.612 92.6495 127.6 92.6495 128.299 92.6495 128.867 92.8491 129.306 93.2382 129.745 93.6273 129.965 94.1661 129.965 94.8545L129.965 99.2944Z" fill="#FFFFFF" transform="matrix(1 0 0 1.00001 379.904 440.501)"/><path d="M132.559 98.586C131.98 97.9674 131.701 97.1493 131.701 96.1117 131.701 95.0241 131.99 94.1661 132.579 93.5475 133.167 92.9289 133.976 92.6096 135.003 92.6096 136.011 92.6096 136.789 92.9089 137.348 93.5175 137.907 94.1262 138.186 94.9643 138.186 96.0318 138.186 97.0994 137.887 97.9375 137.278 98.5661 136.67 99.1946 135.881 99.504 134.894 99.504 133.916 99.5139 133.138 99.2046 132.559 98.586ZM136.4 94.1561C136.071 93.7171 135.602 93.4976 135.003 93.4976 134.405 93.4976 133.916 93.7171 133.537 94.1661 133.158 94.6151 132.968 95.2237 132.968 96.0019 132.968 96.7801 133.138 97.4087 133.477 97.8776 133.816 98.3566 134.295 98.586 134.913 98.586 135.512 98.586 135.991 98.3566 136.35 97.9076 136.709 97.4486 136.899 96.8101 136.899 95.972 136.899 95.2037 136.739 94.5951 136.4 94.1561Z" fill="#FFFFFF" transform="matrix(1 0 0 1.00001 379.904 440.501)"/><path d="M141.349 89.9357 141.349 99.2844 140.132 99.2844 140.132 89.9357 141.349 89.9357Z" fill="#FFFFFF" transform="matrix(1 0 0 1.00001 379.904 440.501)"/><path d="M144.093 98.586C143.514 97.9674 143.235 97.1493 143.235 96.1117 143.235 95.0241 143.524 94.1661 144.113 93.5475 144.701 92.9289 145.509 92.6096 146.537 92.6096 147.545 92.6096 148.323 92.9089 148.882 93.5175 149.441 94.1262 149.72 94.9643 149.72 96.0318 149.72 97.0994 149.421 97.9375 148.812 98.5661 148.203 99.1946 147.415 99.504 146.427 99.504 145.45 99.5139 144.671 99.2046 144.093 98.586ZM147.934 94.1561C147.605 93.7171 147.136 93.4976 146.537 93.4976 145.938 93.4976 145.45 93.7171 145.07 94.1661 144.691 94.6151 144.502 95.2237 144.502 96.0019 144.502 96.7801 144.671 97.4087 145.011 97.8776 145.35 98.3566 145.829 98.586 146.447 98.586 147.046 98.586 147.525 98.3566 147.884 97.9076 148.243 97.4486 148.433 96.8101 148.433 95.972 148.433 95.2037 148.263 94.5951 147.934 94.1561Z" fill="#FFFFFF" transform="matrix(1 0 0 1.00001 379.904 440.501)"/><path d="M157.303 92.7792C157.293 93.2282 157.283 93.7171 157.273 94.2359L157.263 97.9575C157.263 98.8854 157.233 99.6037 157.163 100.113 157.093 100.621 156.834 101.05 156.375 101.39 155.916 101.729 155.197 101.899 154.24 101.899 153.362 101.899 152.693 101.759 152.244 101.479 151.795 101.2 151.546 100.641 151.506 99.8033L152.803 99.8033C152.833 100.272 152.972 100.601 153.222 100.791 153.461 100.981 153.831 101.08 154.319 101.08 154.768 101.08 155.108 101.001 155.347 100.841 155.577 100.681 155.756 100.452 155.876 100.143 155.996 99.8332 156.055 99.1448 156.055 98.0872 155.906 98.4264 155.646 98.6958 155.287 98.8953 154.918 99.0949 154.459 99.1946 153.92 99.1946 152.992 99.1946 152.304 98.9053 151.855 98.3166 151.406 97.728 151.177 96.9497 151.177 95.9919 151.177 94.9842 151.446 94.176 151.975 93.5874 152.504 92.9987 153.202 92.7094 154.07 92.7094 154.978 92.7094 155.656 93.0386 156.115 93.6971L156.125 92.7992 157.303 92.7992ZM155.527 94.0763C155.158 93.7271 154.699 93.5575 154.17 93.5575 153.611 93.5575 153.192 93.767 152.883 94.176 152.583 94.5951 152.424 95.1838 152.424 95.942 152.424 96.6903 152.573 97.269 152.873 97.6681 153.172 98.0672 153.621 98.2668 154.22 98.2668 154.768 98.2668 155.227 98.0872 155.567 97.738 155.916 97.3788 156.085 96.7302 156.085 95.7625 156.085 94.9842 155.896 94.4255 155.527 94.0763Z" fill="#FFFFFF" transform="matrix(1 0 0 1.00001 379.904 440.501)"/><path d="M160.914 89.9457 160.914 91.2826 159.448 91.2826 159.448 89.9457 160.914 89.9457ZM160.795 92.7792 160.795 99.2944 159.577 99.2944 159.577 92.7792 160.795 92.7792Z" fill="#FFFFFF" transform="matrix(1 0 0 1.00001 379.904 440.501)"/><path d="M168.587 96.2513 163.908 96.2513 163.908 96.3511C163.908 97.0495 164.067 97.5983 164.397 97.9974 164.726 98.3965 165.185 98.596 165.773 98.596 166.212 98.596 166.572 98.4863 166.841 98.2568 167.11 98.0273 167.26 97.6881 167.31 97.2491L168.527 97.2491C168.477 97.9275 168.198 98.4663 167.699 98.8654 167.2 99.2745 166.542 99.474 165.724 99.474 164.726 99.474 163.967 99.1847 163.459 98.606 162.95 98.0273 162.7 97.1892 162.7 96.0917 162.7 94.9643 162.97 94.0962 163.509 93.4976 164.047 92.899 164.806 92.5996 165.783 92.5996 167.629 92.5996 168.567 93.6373 168.597 95.7225L168.597 96.2513ZM167.34 95.3933 167.34 95.3035C167.34 94.7248 167.21 94.2758 166.941 93.9566 166.681 93.6373 166.272 93.4776 165.733 93.4776 165.215 93.4776 164.796 93.6473 164.466 93.9865 164.137 94.3257 163.967 94.7946 163.958 95.3933L167.34 95.3933Z" fill="#FFFFFF" transform="matrix(1 0 0 1.00001 379.904 440.501)"/><path d="M175.761 93.8268C176.23 93.0187 176.958 92.6096 177.936 92.6096 178.674 92.6096 179.253 92.8092 179.682 93.1983 180.111 93.5874 180.33 94.1561 180.33 94.8944L180.33 99.2944 179.093 99.2944 179.093 94.9842C179.093 94.5053 178.963 94.1561 178.694 93.9166 178.425 93.6772 178.075 93.5575 177.626 93.5575 177.197 93.5575 176.808 93.7071 176.469 93.9965 176.13 94.2858 175.96 94.7647 175.96 95.4332L175.96 99.2944 174.723 99.2944 174.723 94.9742C174.723 94.5552 174.603 94.216 174.364 93.9566 174.124 93.6971 173.765 93.5575 173.296 93.5575 172.837 93.5575 172.438 93.7071 172.099 94.0164 171.76 94.3157 171.59 94.7747 171.59 95.3833L171.59 99.3044 170.353 99.3044 170.353 93.6572 170.323 92.7892 171.55 92.7892 171.55 93.737C171.76 93.3978 172.019 93.1284 172.348 92.9289 172.678 92.7293 173.097 92.6196 173.616 92.6196 174.094 92.6196 174.514 92.7094 174.873 92.879 175.252 93.0386 175.541 93.3579 175.761 93.8268Z" fill="#FFFFFF" transform="matrix(1 0 0 1.00001 379.904 440.501)"/><path d="M187.594 97.6681C187.604 98.0672 187.614 98.3665 187.634 98.5661 187.654 98.7656 187.674 99.0051 187.694 99.2844L186.596 99.2844C186.556 99.1348 186.526 98.9951 186.506 98.8454 186.486 98.6958 186.476 98.5262 186.476 98.3166 186.277 98.6858 186.017 98.9751 185.698 99.1847 185.379 99.3942 184.96 99.494 184.451 99.494 183.753 99.494 183.194 99.3144 182.785 98.9652 182.376 98.606 182.166 98.147 182.166 97.5783 182.166 96.8999 182.436 96.3312 182.974 95.9021 183.513 95.4631 184.341 95.2436 185.469 95.2436 185.918 95.2436 186.247 95.2536 186.456 95.2835L186.456 94.7348C186.456 94.206 186.327 93.8568 186.067 93.6772 185.808 93.4976 185.469 93.4078 185.04 93.4078 184.66 93.4078 184.361 93.4976 184.142 93.6872 183.922 93.8767 183.802 94.1461 183.782 94.5153L182.565 94.5153C182.605 93.8468 182.855 93.3579 183.294 93.0486 183.733 92.7393 184.341 92.5797 185.119 92.5797 185.838 92.5797 186.436 92.7293 186.925 93.0287 187.414 93.328 187.654 93.8169 187.654 94.4853L187.594 97.6681ZM186.426 96.8001 186.456 96.1216C186.387 96.1117 186.297 96.1017 186.177 96.0917 186.057 96.0817 185.918 96.0817 185.758 96.0817 184.192 96.0817 183.413 96.5207 183.413 97.3888 183.413 97.718 183.533 97.9874 183.753 98.2069 183.982 98.4264 184.321 98.5361 184.76 98.5361 185.279 98.5361 185.678 98.3765 185.968 98.0672 186.247 97.7579 186.407 97.3389 186.426 96.8001Z" fill="#FFFFFF" transform="matrix(1 0 0 1.00001 379.904 440.501)"/><path d="M195.546 99.2944 194.299 99.2944 194.299 95.0241C194.299 94.5552 194.149 94.206 193.86 93.9566 193.57 93.7171 193.211 93.5974 192.792 93.5974 192.273 93.5974 191.864 93.777 191.555 94.1461 191.246 94.5153 191.096 94.9643 191.096 95.503L191.096 99.2944 189.879 99.2944 189.879 93.2482C189.879 93.1284 189.879 92.9688 189.869 92.7792L191.086 92.7792C191.086 93.0486 191.086 93.2681 191.096 93.4377L191.096 93.8268C191.495 93.0386 192.193 92.6495 193.181 92.6495 193.88 92.6495 194.448 92.8491 194.887 93.2382 195.326 93.6273 195.546 94.1661 195.546 94.8545L195.546 99.2944Z" fill="#FFFFFF" transform="matrix(1 0 0 1.00001 379.904 440.501)"/><path d="M202.729 97.6681C202.739 98.0672 202.749 98.3665 202.769 98.5661 202.789 98.7656 202.809 99.0051 202.829 99.2844L201.732 99.2844C201.692 99.1348 201.662 98.9951 201.642 98.8454 201.622 98.6958 201.612 98.5262 201.612 98.3166 201.412 98.6858 201.153 98.9751 200.834 99.1847 200.514 99.3942 200.095 99.494 199.587 99.494 198.888 99.494 198.329 99.3144 197.92 98.9652 197.511 98.606 197.302 98.147 197.302 97.5783 197.302 96.8999 197.571 96.3312 198.11 95.9021 198.649 95.4631 199.477 95.2436 200.604 95.2436 201.053 95.2436 201.382 95.2536 201.592 95.2835L201.592 94.7348C201.592 94.206 201.462 93.8568 201.203 93.6772 200.943 93.4976 200.604 93.4078 200.175 93.4078 199.796 93.4078 199.497 93.4976 199.277 93.6872 199.058 93.8767 198.938 94.1461 198.918 94.5153L197.701 94.5153C197.741 93.8468 197.99 93.3579 198.429 93.0486 198.868 92.7393 199.477 92.5797 200.255 92.5797 200.973 92.5797 201.572 92.7293 202.061 93.0287 202.55 93.328 202.789 93.8169 202.789 94.4853L202.729 97.6681ZM201.562 96.8001 201.592 96.1216C201.522 96.1117 201.432 96.1017 201.313 96.0917 201.193 96.0817 201.053 96.0817 200.894 96.0817 199.327 96.0817 198.549 96.5207 198.549 97.3888 198.549 97.718 198.669 97.9874 198.888 98.2069 199.118 98.4264 199.457 98.5361 199.896 98.5361 200.415 98.5361 200.814 98.3765 201.103 98.0672 201.392 97.7579 201.542 97.3389 201.562 96.8001Z" fill="#FFFFFF" transform="matrix(1 0 0 1.00001 379.904 440.501)"/><path d="M210.641 92.7792C210.631 93.2282 210.622 93.7171 210.612 94.2359L210.602 97.9575C210.602 98.8854 210.572 99.6037 210.502 100.113 210.432 100.621 210.173 101.05 209.714 101.39 209.255 101.729 208.536 101.899 207.578 101.899 206.7 101.899 206.032 101.759 205.583 101.479 205.134 101.2 204.885 100.641 204.845 99.8033L206.142 99.8033C206.172 100.272 206.311 100.601 206.561 100.791 206.8 100.981 207.169 101.08 207.658 101.08 208.107 101.08 208.446 101.001 208.686 100.841 208.915 100.681 209.095 100.452 209.215 100.143 209.334 99.8332 209.394 99.1448 209.394 98.0872 209.245 98.4264 208.985 98.6958 208.626 98.8953 208.257 99.0949 207.798 99.1946 207.259 99.1946 206.331 99.1946 205.643 98.9053 205.194 98.3166 204.745 97.728 204.515 96.9497 204.515 95.9919 204.515 94.9842 204.785 94.176 205.314 93.5874 205.842 92.9987 206.541 92.7094 207.409 92.7094 208.317 92.7094 208.995 93.0386 209.454 93.6971L209.464 92.7992 210.641 92.7992ZM208.865 94.0763C208.496 93.7271 208.037 93.5575 207.499 93.5575 206.95 93.5575 206.521 93.767 206.212 94.176 205.912 94.5951 205.753 95.1838 205.753 95.942 205.753 96.6903 205.902 97.269 206.202 97.6681 206.501 98.0672 206.95 98.2668 207.548 98.2668 208.097 98.2668 208.546 98.0872 208.895 97.738 209.245 97.3788 209.414 96.7302 209.414 95.7625 209.414 94.9842 209.235 94.4255 208.865 94.0763Z" fill="#FFFFFF" transform="matrix(1 0 0 1.00001 379.904 440.501)"/><path d="M218.314 96.2513 213.635 96.2513 213.635 96.3511C213.635 97.0495 213.794 97.5983 214.124 97.9974 214.453 98.3965 214.912 98.596 215.5 98.596 215.939 98.596 216.299 98.4863 216.568 98.2568 216.837 98.0273 216.987 97.6881 217.037 97.2491L218.254 97.2491C218.204 97.9275 217.925 98.4663 217.426 98.8654 216.927 99.2745 216.269 99.474 215.451 99.474 214.443 99.474 213.695 99.1847 213.186 98.606 212.677 98.0273 212.427 97.1892 212.427 96.0917 212.427 94.9643 212.697 94.0962 213.236 93.4976 213.774 92.899 214.523 92.5996 215.5 92.5996 217.346 92.5996 218.284 93.6373 218.314 95.7225L218.314 96.2513ZM217.067 95.3933 217.067 95.3035C217.067 94.7248 216.937 94.2758 216.668 93.9566 216.408 93.6373 215.999 93.4776 215.451 93.4776 214.932 93.4776 214.513 93.6473 214.183 93.9865 213.864 94.3257 213.685 94.7946 213.675 95.3933L217.067 95.3933Z" fill="#FFFFFF" transform="matrix(1 0 0 1.00001 379.904 440.501)"/><path d="M225.488 93.8268C225.957 93.0187 226.685 92.6096 227.663 92.6096 228.401 92.6096 228.98 92.8092 229.409 93.1983 229.838 93.5874 230.057 94.1561 230.057 94.8944L230.057 99.2944 228.82 99.2944 228.82 94.9842C228.82 94.5053 228.69 94.1561 228.421 93.9166 228.152 93.6772 227.802 93.5575 227.354 93.5575 226.924 93.5575 226.535 93.7071 226.196 93.9965 225.857 94.2858 225.687 94.7647 225.687 95.4332L225.687 99.2944 224.45 99.2944 224.45 94.9742C224.45 94.5552 224.33 94.216 224.091 93.9566 223.851 93.6971 223.492 93.5575 223.023 93.5575 222.564 93.5575 222.165 93.7071 221.826 94.0164 221.487 94.3157 221.317 94.7747 221.317 95.3833L221.317 99.3044 220.08 99.3044 220.08 93.6572 220.05 92.7892 221.277 92.7892 221.277 93.737C221.487 93.3978 221.746 93.1284 222.075 92.9289 222.405 92.7293 222.824 92.6196 223.343 92.6196 223.822 92.6196 224.241 92.7094 224.6 92.879 224.979 93.0386 225.268 93.3579 225.488 93.8268Z" fill="#FFFFFF" transform="matrix(1 0 0 1.00001 379.904 440.501)"/><path d="M237.77 96.2513 233.09 96.2513 233.09 96.3511C233.09 97.0495 233.25 97.5983 233.579 97.9974 233.909 98.3965 234.368 98.596 234.956 98.596 235.395 98.596 235.754 98.4863 236.024 98.2568 236.293 98.0273 236.443 97.6881 236.493 97.2491L237.71 97.2491C237.66 97.9275 237.381 98.4663 236.882 98.8654 236.383 99.2745 235.724 99.474 234.906 99.474 233.899 99.474 233.15 99.1847 232.641 98.606 232.133 98.0273 231.883 97.1892 231.883 96.0917 231.883 94.9643 232.153 94.0962 232.691 93.4976 233.23 92.899 233.978 92.5996 234.956 92.5996 236.802 92.5996 237.74 93.6373 237.77 95.7225L237.77 96.2513ZM236.523 95.3933 236.523 95.3035C236.523 94.7248 236.393 94.2758 236.124 93.9566 235.864 93.6373 235.455 93.4776 234.906 93.4776 234.388 93.4776 233.968 93.6473 233.639 93.9865 233.32 94.3257 233.14 94.7946 233.13 95.3933L236.523 95.3933Z" fill="#FFFFFF" transform="matrix(1 0 0 1.00001 379.904 440.501)"/><path d="M245.273 99.2944 244.026 99.2944 244.026 95.0241C244.026 94.5552 243.876 94.206 243.587 93.9566 243.297 93.7171 242.938 93.5974 242.519 93.5974 242 93.5974 241.591 93.777 241.282 94.1461 240.973 94.5153 240.823 94.9643 240.823 95.503L240.823 99.2944 239.606 99.2944 239.606 93.2482C239.606 93.1284 239.606 92.9688 239.596 92.7792L240.813 92.7792C240.813 93.0486 240.813 93.2681 240.823 93.4377L240.823 93.8268C241.222 93.0386 241.92 92.6495 242.908 92.6495 243.607 92.6495 244.175 92.8491 244.614 93.2382 245.053 93.6273 245.273 94.1661 245.273 94.8545L245.273 99.2944Z" fill="#FFFFFF" transform="matrix(1 0 0 1.00001 379.904 440.501)"/><path d="M248.845 92.7493 250.301 92.7493 250.301 93.6473 248.845 93.6473 248.845 97.6282C248.845 97.9175 248.924 98.1271 249.074 98.2468 249.224 98.3665 249.443 98.4264 249.713 98.4264 249.932 98.4264 250.122 98.4064 250.291 98.3665L250.291 99.3144C250.192 99.3343 250.042 99.3543 249.872 99.3643 249.693 99.3842 249.503 99.3942 249.294 99.3942 248.665 99.3942 248.226 99.2844 247.987 99.055 247.747 98.8255 247.627 98.4962 247.627 98.0473L247.627 93.6672 246.47 93.6672 246.47 92.7692 247.627 92.7692 247.627 91.3924 248.835 91.0033 248.835 92.7493Z" fill="#FFFFFF" transform="matrix(1 0 0 1.00001 379.904 440.501)"/><path d="M256.637 89.9257 256.637 99.2944 255.34 99.2944 255.34 89.9257 256.637 89.9257Z" fill="#FFFFFF" transform="matrix(1 0 0 1.00001 379.904 440.501)"/><path d="M263.412 89.9257 267.203 99.2944 265.786 99.2944 264.778 96.86 260.428 96.86 259.411 99.2944 258.074 99.2944 262.015 89.9257 263.412 89.9257ZM260.837 95.8024 264.379 95.8024 262.653 91.2128 260.837 95.8024Z" fill="#FFFFFF" transform="matrix(1 0 0 1.00001 379.904 440.501)"/><path d="M274.177 89.9257 274.177 91.0232 271.034 91.0232 271.034 99.2844 269.747 99.2844 269.747 91.0232 266.604 91.0232 266.604 89.9257 274.177 89.9257Z" fill="#FFFFFF" transform="matrix(1 0 0 1.00001 379.904 440.501)"/></g></svg>