<svg width="333" height="71" xmlns="http://www.w3.org/2000/svg" xmlns:xlink="http://www.w3.org/1999/xlink" xml:space="preserve" overflow="hidden"><g transform="translate(-767 -462)"><path d="M301.096 65.0023 302.041 65.0931 304.791 68.6182 304.5 65.6901 304.248 65.5186 304.27 65.2714 305.332 65.2646 305.316 65.4496 305.164 65.7103 305.536 70.305 304.86 70.3084 301.972 66.642 301.787 69.5129 302.024 69.7702 302.001 70.1587 300.625 70.1419 300.625 69.8627 300.975 69.7029 301.308 65.5354 301.126 65.2899 301.096 65.004ZM298.529 64.5684 300.151 64.8627 300.124 65.2192 299.727 65.2377 298.896 69.4036 299.285 69.6945 299.266 69.8964 297.5 69.5062 297.615 69.2859 298.043 69.1631 298.867 65.1435 298.46 64.8459 298.529 64.5684ZM310.03 64.417 310.311 65.5119 310.089 65.6531C309.722 65.2075 309.159 65.0729 308.604 65.189 307.788 65.4025 307.277 66.373 307.564 67.1684L310.013 66.6118 310.215 66.1695 310.455 66.1055 310.726 67.2492 310.472 67.3047 310.22 67.1466 307.808 67.7201C307.852 68.6384 308.785 69.3313 309.729 69.1395 310.339 69.0386 311.03 68.3709 310.973 67.594L311.155 67.604 311.515 68.704C311.044 69.3145 310.6 69.6088 309.833 69.7736 308.35 70.0931 307.007 69.7568 306.564 67.895 305.924 65.865 307.219 65.0594 308.745 64.6154 309.216 64.4859 309.532 64.4792 310.03 64.4153ZM293.175 62.3114 294.027 62.6746 293.893 65.791 295.65 63.7443 295.561 63.5862 295.711 63.4735 296.945 63.9713 296.928 64.2909 296.71 64.3951 296.155 68.63 296.459 68.9764 296.377 69.2287 294.929 68.5862 295.013 68.2801 295.275 68.2162 295.674 64.8761 293.102 67.9455 292.584 67.7773 292.937 63.9259 290.852 66.4251 291.037 66.7749 290.958 66.9633 289.818 66.2855 289.947 66.0046 290.346 66.0349 293.092 62.9034 292.958 62.5687 293.176 62.3114ZM317.334 60.8028C317.334 60.8028 317.082 61.1862 316.992 61.4536 316.937 61.6084 316.92 61.8791 316.92 61.8791 316.92 61.8791 316.532 61.9582 316.33 62.0137 315.812 62.1701 315.057 62.6746 314.82 62.8378L314.746 62.8882 315.432 64.3279C315.432 64.3279 316.419 63.9915 316.809 63.6181 316.984 63.4533 317.218 63.1422 317.218 63.1422L317.712 64.1462C317.712 64.1462 317.304 64.1429 317.046 64.2 316.532 64.3144 315.718 64.893 315.718 64.893L316.693 66.8691 317.05 66.9229 317.188 67.0877 315.825 67.8277 315.654 67.5956 315.746 67.2626 313.817 63.4365 313.419 63.4399 313.335 63.1422ZM313.308 65.9744C313.424 66.2771 313.308 66.6303 312.998 66.78 312.7 66.9145 312.351 66.7699 312.191 66.4722 312.061 66.1671 312.203 65.8144 312.509 65.6848 312.51 65.6837 312.514 65.6827 312.515 65.6817 312.813 65.5428 313.166 65.6711 313.304 65.9681 313.306 65.9702 313.306 65.9722 313.308 65.9744ZM288.674 59.8223C289.394 59.7466 290.003 59.8879 290.516 60.3335L290.583 60.384 290.608 60.4059 290.638 60.426 290.672 60.4614 290.736 60.5387C291.202 61.0197 291.348 61.6319 291.311 62.3467L291.277 62.6275C291.166 63.2767 290.823 63.8839 290.302 64.3211 289.298 65.1587 287.947 65.199 286.911 64.3346L286.881 64.3144C285.911 63.3507 285.901 62.017 286.723 60.9844 287.172 60.3298 287.885 59.905 288.674 59.8223ZM320.06 58.5609 320.839 59.385 320.726 59.6154C320.168 59.4102 319.616 59.5616 319.196 59.9417 318.548 60.5034 318.57 61.5781 319.221 62.1196L321.138 60.4799 321.086 60.0039 321.251 59.829 322.05 60.6211 321.868 60.7893 321.565 60.7893 319.636 62.5788C320.119 63.3945 321.31 63.5761 322.033 62.8798 322.502 62.4795 322.732 61.5344 322.447 60.7994L322.615 60.7204 323.36 61.5983C323.276 62.3803 323.017 62.8462 322.433 63.3743 321.288 64.454 319.924 64.7702 318.57 63.3373 317.139 61.8068 317.88 60.453 319.036 59.3615 319.369 59.0301 319.65 58.862 320.06 58.5626ZM290.053 60.7658C289.209 60.0005 288.139 61.129 287.841 61.4284 287.488 61.8018 287.017 62.5384 287.022 63.09 287.021 63.3437 287.147 63.581 287.357 63.7224L287.419 63.8031C287.655 64.0235 287.905 64.1126 288.185 64.1092 288.846 64.0924 289.483 63.492 289.651 63.3205 289.888 63.0665 290.995 61.6807 290.179 60.8818ZM306.131 0.00168182 306.131 2.65895 308.829 2.65895 308.829 6.60955C310.585 7.33155 312.14 8.46838 313.361 9.92273 314.959 10.4105 315.56 11.6718 315.56 12.8659L315.56 17.1949 320.264 17.1949 320.487 17.8306C321.069 19.5579 321.289 21.4465 321.289 23.5051 321.289 29.8725 318.943 37.3229 316.619 43.1353 313.118 51.911 308.459 59.8626 305.993 62.5098 305.433 63.085 304.964 63.5862 304.177 63.6198 304.162 63.6265 304.148 63.6198 304.127 63.6198 304.113 63.6198 304.09 63.6265 304.073 63.6198 303.314 63.5862 302.852 63.085 302.277 62.5098 299.872 59.8626 295.25 51.911 291.755 43.1353 289.451 37.3229 287.093 29.8725 287.093 23.5051 287.093 21.4465 287.345 19.5579 287.912 17.8306L288.114 17.1949 292.801 17.1949 292.801 12.8659C292.801 11.6718 293.407 10.4105 294.982 9.92105 296.098 8.51841 297.707 7.34955 299.49 6.60786L299.49 2.65727 302.132 2.65727 302.132 0 306.133 0ZM285.477 55.024 286.065 55.8313 285.134 60.0729 287.223 57.9504 287.192 57.6611 287.391 57.4997 288.087 58.3204 287.936 58.4213 287.651 58.4718 284.325 61.785 283.872 61.272 284.833 56.7597 282.478 58.4465 282.446 58.8098 282.147 59.0503 281.267 57.9084 281.472 57.7267 281.802 57.8983 285.216 55.5269 285.267 55.2275 285.477 55.024ZM306.427 35.5637 301.839 35.5637 301.839 41.7259 293.195 41.7259C293.287 41.963 293.386 42.1951 293.479 42.4356 293.955 43.6566 294.476 44.8457 295.009 46.0398L301.839 46.0398 301.839 58.9023C302.524 59.8895 303.134 60.6884 303.635 61.2333 303.783 61.3813 303.992 61.61 304.123 61.7177 304.273 61.61 304.5 61.3813 304.643 61.2333 305.141 60.6884 305.744 59.8895 306.427 58.9023L306.427 46.0398 313.343 46.0398C313.881 44.8457 314.396 43.6566 314.89 42.4356 314.986 42.1951 315.085 41.9647 315.171 41.7259L306.427 41.7259 306.427 35.5637ZM321.786 56.4687 322.078 56.6689 321.94 57.0153 325.208 59.7314C325.208 59.7314 326.172 58.8922 326.281 58.1926 326.327 57.8394 326.202 57.2625 326.202 57.2625L326.562 56.8993 327.104 58.2885 324.581 61.1745 324.44 60.9726 324.507 60.5993 321.328 57.942 320.96 58.1035 320.66 57.8932 321.786 56.4704ZM323.777 53.1993 324.103 53.3422 324.031 53.6483 327.909 55.7708 328.289 55.5504 328.486 55.5572 327.585 57.1549 327.416 56.9817 327.388 56.5932 323.78 54.5666 323.414 54.7869 323.166 54.6625 323.777 53.1993ZM300.046 47.9015 295.807 47.9015C297.095 50.6597 298.511 53.3569 300.048 55.9844L300.048 47.9015ZM312.517 47.9015 308.282 47.9015 308.282 55.9844C309.633 53.7005 311.091 50.9154 312.517 47.9015ZM283.486 54.4842C283.617 54.7842 283.482 55.1335 283.185 55.2696 282.889 55.4048 282.537 55.274 282.402 54.9773 282.401 54.9721 282.397 54.967 282.396 54.9618 282.258 54.6557 282.379 54.3093 282.598 54.173 282.865 54.0351 283.259 54.1764 283.486 54.4842ZM283.254 50.9019 283.987 52.4071 283.644 52.5686 283.442 52.3214 279.506 54.0637 279.604 54.506 279.422 54.612 278.583 52.9352 278.819 52.8982 279.163 53.1555 283.023 51.4687 283.02 51.0045 283.255 50.9019ZM325.901 48.4851 326.986 48.9005 326.903 49.1949C326.332 49.2251 325.92 49.4858 325.669 49.9971 325.264 50.8094 325.901 51.5376 326.649 52.1296 327.403 52.7015 329.039 52.4525 329.465 51.6083 329.729 51.0398 329.577 50.1955 329.028 49.6305L329.207 49.4354 330.195 49.8911C330.397 50.6967 330.363 51.2702 330.016 52.0136 329.307 53.3927 328.274 54.3143 326.32 53.5104 324.414 52.651 324.626 51.0802 325.264 49.6103 325.462 49.1579 325.655 48.9106 325.901 48.4851ZM282.804 48.7879C282.929 49.2369 282.936 49.5615 283.011 50.0492L281.945 50.3469 281.8 50.1316C282.206 49.7544 282.366 49.1826 282.216 48.65 281.995 47.8647 281.181 47.4066 280.396 47.6267 280.354 47.6382 280.315 47.6513 280.275 47.6661L280.837 50.1047 281.272 50.283 281.348 50.5185 280.209 50.8111 280.137 50.574 280.302 50.32 279.681 47.8679C278.731 47.92 278.031 48.9005 278.235 49.8255 278.369 50.4192 279.081 51.092 279.863 51.171L279.863 51.356 278.736 51.5881C278.1 51.1542 277.799 50.6967 277.609 49.9433 277.246 48.4851 277.609 47.1178 279.52 46.5864 281.536 45.9557 282.372 47.2641 282.804 48.7895ZM326.113 46.1844 326.469 46.213 326.51 46.5275 330.704 47.2675 331.012 46.9059 331.216 46.9227 330.879 48.7055 330.649 48.6096 330.506 48.2295 326.414 47.5265 326.15 47.846 325.886 47.8175 326.113 46.1844ZM326.009 39.9129 327.364 40.7757C327.243 40.7984 327.13 40.8478 327.031 40.9203 326.89 41.065 326.89 41.657 326.863 42.5416L331.217 42.4844 331.301 42.2927 331.523 42.3028 331.53 43.8618 331.409 43.8618 331.214 43.4952 326.9 43.5675C326.907 44.0367 326.833 44.7364 326.966 44.8423 327.018 44.8844 327.1 44.9399 327.213 44.9769L326.078 45.7337 326.315 44.9466 326.338 40.9893 326.009 39.9129ZM277.063 40.3435 277.349 40.7034 281.644 40.8211 281.794 40.473 282.137 40.4696 281.972 42.7501C281.869 44.1006 281.123 45.5554 279.582 45.6429 277.937 45.6445 276.72 44.1864 276.782 42.9805L276.782 40.3468 277.063 40.3435ZM277.406 41.8235C277.406 41.8235 277.347 42.0169 277.396 42.7821 277.453 43.5944 278.433 44.5564 279.607 44.5295 280.443 44.4437 281.15 43.6718 281.266 43.0966 281.373 42.6122 281.333 42.3869 281.345 41.953ZM300.048 35.5637 291.086 35.5637C291.501 36.9529 291.95 38.3959 292.498 39.8742L300.048 39.8742 300.048 35.5637ZM317.317 35.5637 308.282 35.5637 308.282 39.8742 315.871 39.8742C316.412 38.3942 316.892 36.9529 317.317 35.5637ZM329.604 34.5647C330.237 35.0356 330.518 35.4729 330.689 36.2297 331.059 37.7097 330.661 39.0703 328.789 39.5749 326.821 40.1854 325.926 38.8853 325.518 37.3549 325.385 36.9075 325.378 36.5812 325.302 36.0817L326.382 35.7925 326.522 36.0161C326.094 36.3794 325.953 36.9512 326.091 37.5012 326.293 38.3337 327.235 38.813 328.029 38.5052L327.485 36.0531 327.03 35.8648 326.969 35.6243 328.129 35.3098 328.178 35.5183 328.017 35.8345 328.634 38.3C329.584 38.2748 330.297 37.2842 330.095 36.3424 329.978 35.742 329.251 35.0895 328.471 35.0003L328.471 34.8086 329.604 34.5647ZM280.1 38.7743C280.26 39.077 280.1 39.4302 279.821 39.6455 279.518 39.7757 279.167 39.6445 279.022 39.3478 278.887 39.0518 279.022 38.6919 279.328 38.5574 279.626 38.4346 279.982 38.517 280.102 38.7743ZM279.034 32.0285 279.315 32.1126 279.342 32.481 283.168 34.003 283.44 33.8802 283.741 33.9525 283.368 34.8893 279.301 36.4366 282.143 37.0488 282.369 36.8806 282.604 36.9495 282.315 37.9822 282.15 37.9031 281.952 37.6895 277.414 36.6855 277.608 36.033 281.952 34.3646 279.236 33.305 278.906 33.4732 278.556 33.3454 279.034 32.0285ZM326.897 28.3168C327.531 28.8449 327.778 29.0517 327.966 29.8472 328.067 30.4022 327.812 31.4971 327.815 32.4742L329.091 31.8452 329.643 32.972 329.431 33.036 329.157 32.8577 325.348 34.822 325.259 35.0575 324.894 35.2105 323.827 32.7383C323.348 31.7325 323.959 30.6158 325.032 30.3333 325.896 30.081 326.708 30.3585 327.075 31.0531 327.24 30.3753 327.26 29.9397 327.092 29.2636 326.969 28.7776 326.897 28.7843 326.708 28.4564ZM327.257 32.7854C327.102 31.9445 326.449 30.8967 325.356 31.191 324.038 31.524 324.308 33.0124 324.794 34.0265ZM307.84 29.1392 317.838 33.7087 318.094 32.7198C318.257 32.0723 318.405 31.4433 318.541 30.8092 316.456 30.4863 311.355 29.6824 307.84 29.1392ZM306.886 30.7235 308.868 33.7087 313.213 33.7087 306.886 30.7235ZM305.07 31.3625 305.07 33.7087 306.629 33.7087 305.072 31.3609ZM303.2 31.3625 301.644 33.7087 303.2 33.7087 303.2 31.3609ZM301.421 30.7235 295.147 33.7087 299.443 33.7087 301.421 30.7235ZM300.487 29.1392C296.962 29.6807 291.905 30.4863 289.845 30.8092 290.046 31.7611 290.277 32.7013 290.551 33.7087ZM280.243 29.5899 280.428 29.7581 280.468 30.155 284.104 32.1025 284.451 31.8503 284.703 31.968 284.014 33.4396 283.669 33.305 283.748 32.9838 279.947 31.0295 279.589 31.3323 279.385 31.2667 280.243 29.5899ZM304.125 21.6938 304.047 21.6938C304.012 21.6938 303.985 21.7039 303.947 21.7123 302.998 21.7863 302.843 22.4455 302.843 22.4455 302.843 22.4455 303.149 22.5885 303.41 23.0628 303.484 23.2125 303.561 23.3773 303.605 23.5623 303.625 23.6867 303.649 23.8263 303.649 24.0046 303.649 25.387 302.45 26.1893 301.883 26.4819L301.55 26.6736C301.55 26.6736 299.929 26.0345 299.466 25.8596 297.862 25.2189 297.189 24.938 297.189 24.1761L297.189 24.119C297.189 23.1755 297.84 22.861 298.259 22.5969 298.437 22.4657 298.403 22.1495 298.275 22.0301 298.19 21.9376 298.023 21.7358 296.086 21.7358L289.042 21.7358C289.004 22.3043 288.975 22.8593 288.975 23.4597 288.975 25.1247 289.145 26.9881 289.485 28.9945L301.266 27.1328C301.116 27.5102 301.037 27.9123 301.034 28.3185 301.034 30.012 302.342 31.3777 304.026 31.3777L304.12 31.3743 304.229 31.3777C305.916 31.3853 307.292 30.0233 307.298 28.3356 307.3 27.9226 307.219 27.5134 307.058 27.1328L318.898 28.9945C319.244 26.9881 319.429 25.1264 319.429 23.4597 319.429 22.8593 319.389 22.3043 319.347 21.7358L312.139 21.7358C310.457 21.7358 310.129 21.8922 310.011 21.9931L309.973 22.0301C309.825 22.1479 309.788 22.4657 309.999 22.5969 310.411 22.861 311.046 23.1755 311.046 24.119L311.046 24.1761C311.046 24.938 310.39 25.2189 308.768 25.858L306.663 26.6736 306.299 26.4819C305.744 26.1893 304.537 25.387 304.547 24.0046 304.547 23.2478 304.919 23.13 304.919 22.5515 304.919 22.089 304.599 21.6938 304.123 21.6938ZM318.898 19.0567 289.485 19.0567C289.402 19.3325 289.35 19.6302 289.286 19.9346L296.086 19.9346C299.051 19.9346 300.324 20.651 300.324 22.3699 300.324 22.898 300.011 23.4731 299.525 23.8751 299.87 24.0096 301.286 24.5142 301.489 24.6084 301.912 24.3931 302.09 23.717 301.883 23.4193 301.799 23.3134 301.708 23.1839 301.457 23.0762 301.286 23.0229 301.109 22.9862 300.929 22.9669L300.929 22.2353C300.929 21.5475 301.41 21.016 302.182 20.8024 302.204 20.7726 302.229 20.7446 302.256 20.7183 302.689 20.3735 303.23 20.123 304.088 20.0893 305.936 20.1398 306.661 21.2161 306.661 22.2706 306.661 22.9501 306.358 23.4193 306.22 23.648 306.262 24.1122 306.584 24.4166 306.749 24.6067 306.952 24.5159 308.365 24.0096 308.703 23.8751 308.227 23.4715 307.929 22.8996 307.929 22.3699 307.929 20.651 309.194 19.9346 312.139 19.9346L319.093 19.9346C319.043 19.6391 318.977 19.3461 318.898 19.0567ZM296.499 11.5558C294.855 11.5558 294.67 12.2958 294.67 12.8676L294.67 17.1949 298.866 17.1949 298.866 12.6759C298.866 12.1074 298.711 11.9964 298.605 11.9258 298.375 11.7576 297.837 11.5558 296.499 11.5558ZM304.123 9.88068C301.572 9.88068 300.711 11.3775 300.711 12.6759L300.717 17.1949 307.606 17.1949 307.606 12.6759C307.606 11.3792 306.722 9.88068 304.125 9.88068ZM311.834 11.5575C310.494 11.5575 309.941 11.7593 309.708 11.9275 309.613 11.9947 309.458 12.1074 309.458 12.6759L309.458 17.1949 313.696 17.1949 313.696 12.8659C313.696 12.2941 313.498 11.5541 311.834 11.5541ZM302.13 7.72795C300.511 8.04145 298.99 8.74513 297.704 9.77809 298.351 9.84032 298.985 9.98159 299.49 10.2894 300.115 9.3533 301.051 8.66648 302.13 8.34855ZM306.131 7.72795 306.131 8.34855C307.295 8.68155 308.22 9.34923 308.827 10.2894 309.345 9.98159 309.966 9.84032 310.617 9.77809 309.362 8.74377 307.801 8.04582 306.131 7.72627ZM304.695 1.45309 303.583 1.45309 303.583 4.10364 300.936 4.10364 300.936 5.27923 303.583 5.27923 303.583 7.97518 304.693 7.97518 304.693 5.28091 307.394 5.28091 307.394 4.10364 304.695 4.10364 304.695 1.45477Z" fill="#FFFFFF" fill-rule="evenodd" transform="matrix(1 0 0 1.00515 767 462)"/><path d="M42.9049 28.041C43.1319 28.041 43.2681 28.199 43.2681 28.5152L43.0831 36.5274 43.0831 42.0135C43.0899 44.738 43.1302 45.4949 43.2883 45.8094 43.5255 46.3105 43.7071 46.4199 44.8154 46.5191 45.0475 46.5191 45.1787 46.6234 45.1787 46.8117L45.1787 47.3146C45.1787 47.5719 45.103 47.6543 44.6371 47.7334L41.3071 48.3825C41.102 48.4095 40.9439 48.4364 40.8446 48.4364 40.6378 48.4364 40.5587 48.3035 40.5318 47.9671L40.4561 46.8386C40.4057 46.2046 40.4057 46.1777 40.224 46.1777 40.1347 46.2085 40.0552 46.2624 39.9936 46.3341 39.5723 46.727 39.1293 47.096 38.6667 47.439 37.893 47.9671 37.2203 48.1757 36.3727 48.1757 33.527 48.1757 31.5005 45.5487 31.5005 41.8773 31.5005 37.6038 33.9206 34.6892 37.4322 34.6892 38.1251 34.6892 39.4622 34.9785 39.7868 35.1904 39.8658 35.2694 39.9415 35.2963 39.9667 35.2963 40.0693 35.2963 40.1786 35.0878 40.1786 34.8691L40.1484 34.3949 40.1231 31.5829C40.1231 30.2055 40.0458 30.1029 38.9543 29.9179 38.4581 29.8674 38.3606 29.7867 38.3606 29.42L38.3606 28.9575C38.3606 28.6969 38.4581 28.6145 38.8719 28.569L42.5988 28.0695C42.7266 28.041 42.8494 28.041 42.9049 28.041ZM103.701 28.041C103.931 28.041 104.062 28.199 104.062 28.5152L103.876 36.5274 103.876 41.2197C103.876 44.5968 103.904 45.4646 104.083 45.8094 104.315 46.3105 104.493 46.4199 105.611 46.5191 105.838 46.5191 105.965 46.6234 105.965 46.8117L105.965 47.3146C105.965 47.5719 105.889 47.6543 105.426 47.7334L102.096 48.3825C101.888 48.4095 101.737 48.4364 101.631 48.4364 101.425 48.4364 101.35 48.3035 101.323 47.9671L101.244 46.8386C101.192 46.2046 101.192 46.1777 101.013 46.1777 100.983 46.1777 100.881 46.2315 100.778 46.3341 100.34 46.7285 99.8793 47.0975 99.3988 47.439 98.6201 47.9671 97.9508 48.1757 97.0981 48.1757 94.2625 48.1757 92.2629 45.5487 92.2629 41.8773 92.2629 37.6038 94.6494 34.6892 98.1576 34.6892 98.8539 34.6892 100.235 34.9785 100.568 35.1904 100.616 35.2444 100.681 35.2815 100.753 35.2963 100.852 35.2963 100.958 35.0878 100.958 34.8691L100.958 34.8523 100.934 34.3949 100.909 31.5829C100.909 30.2055 100.83 30.1029 99.678 29.9179 99.1869 29.8674 99.0843 29.7867 99.0843 29.42L99.0843 28.9575C99.0843 28.6969 99.1852 28.6145 99.599 28.569L103.383 28.0695C103.518 28.041 103.645 28.041 103.699 28.041ZM23.6901 34.6858C26.9478 34.6858 28.4732 35.8749 28.4732 38.4161L28.3975 43.221 28.3975 43.8534C28.3992 45.8665 28.4244 45.917 28.7036 46.1794 28.939 46.361 29.1913 46.44 29.817 46.4922 30.3316 46.546 30.4863 46.625 30.4863 46.9412L30.4863 47.365C30.4863 47.6543 30.4073 47.7115 29.9448 47.8124L26.8755 48.3321C26.6866 48.3649 26.4954 48.3824 26.3036 48.3842 26.0631 48.3842 25.9168 48.2749 25.868 47.994 25.7924 47.8124 25.72 47.1498 25.7503 46.9412 25.7503 46.4703 25.6965 46.2517 25.5754 46.2517 25.5485 46.2517 25.4728 46.3105 25.3971 46.361 24.8939 46.7705 24.366 47.1484 23.8162 47.4929 23.0421 47.9401 22.164 48.1755 21.27 48.1757 19.6403 48.1757 18.3503 46.7377 18.3503 44.8591 18.3503 43.9644 18.6396 42.8292 18.9995 42.3196 19.2013 42.037 19.235 42.0068 20.5972 41.7427L24.0012 41.0599C25.4728 40.7404 25.6477 40.6142 25.6477 39.8221L25.6477 39.3697C25.6477 37.5735 24.98 36.8974 23.2511 36.8974 22.1411 36.8974 20.678 37.3195 19.6924 37.8981 19.4889 38.0326 19.383 38.0595 19.3056 38.0595 19.1811 38.0595 19.1256 37.9469 19.1256 37.7434L19.1256 37.5752 19.3073 36.2129C19.383 35.5049 19.5646 35.2963 20.3702 35.0861 21.4607 34.8422 22.5729 34.708 23.6901 34.6858ZM88.6469 34.6892C88.9043 34.6892 88.9766 34.7649 88.9766 35.002L88.9497 35.6949C88.9278 36.3744 88.9278 36.3744 88.9043 37.5281 88.8839 37.9707 88.875 38.4137 88.8774 38.8567L88.8774 41.0851C88.9043 43.5187 88.9278 44.9634 88.9783 45.4158 89.0825 46.1222 89.3432 46.3105 90.3204 46.4384 90.7324 46.4955 90.8148 46.5729 90.8148 46.8874L90.8148 47.2574C90.8148 47.5719 90.7324 47.6543 90.3775 47.7115L86.8642 48.1757C86.7416 48.1979 86.6182 48.2152 86.4942 48.2278 86.1949 48.2278 86.1949 48.2278 86.0099 46.4199 85.9829 46.0162 85.909 45.8346 85.7492 45.8346 85.6752 45.8346 85.5541 45.9136 85.2144 46.255 83.4585 47.8948 82.9456 48.1757 81.5497 48.1757 80.5658 48.1757 79.5735 47.915 78.9059 47.4693 78.0818 46.9446 77.7252 46.0465 77.7252 44.5968 77.7252 44.3899 77.7252 43.9409 77.7505 43.4615L77.7505 39.8204C77.7505 36.7444 77.668 36.5106 76.6388 36.4063 76.0451 36.3525 75.9156 36.2701 75.9156 35.9825L75.9156 35.5335C75.9156 35.2173 75.9913 35.1668 76.3545 35.1113L80.1302 34.7413C80.3909 34.7178 80.5675 34.6892 80.5994 34.6892 80.7744 34.6892 80.8467 34.7968 80.8467 35.002 80.8467 35.1365 80.8467 35.3485 80.8265 35.5789 80.7256 36.8234 80.6751 38.5052 80.6751 39.7716L80.6751 41.8235C80.6751 44.178 80.7256 44.5715 81.1292 45.145 81.4437 45.5991 82.0155 45.8346 82.7387 45.8346 83.9496 45.8346 85.0395 45.2544 85.5003 44.3596 85.8097 43.7929 85.8989 43.1756 85.909 41.4467L85.909 39.7985C85.909 38.7895 85.8602 37.3935 85.798 37.1446 85.6987 36.662 85.4515 36.4551 84.8057 36.3744 84.207 36.3222 84.0791 36.2432 84.0791 35.9825L84.0791 35.5065C84.0791 35.2173 84.1548 35.1365 84.5215 35.1113L88.2315 34.7178C88.3863 34.6892 88.5376 34.6892 88.6469 34.6892ZM255.369 29.8859C255.52 29.8859 255.63 30.0776 255.63 30.2845 255.63 30.4443 255.596 30.7386 255.551 31.0548 255.468 31.7107 255.293 33.9256 255.293 34.4251 255.293 34.896 255.426 34.9751 256.161 34.9751L258.28 34.9751C258.902 34.9751 259.235 34.9499 259.617 34.896L259.775 34.896C259.905 34.896 259.987 34.9751 259.987 35.1113 259.987 35.266 259.905 35.5301 259.671 36.3222 259.52 36.8739 259.394 36.9781 258.975 36.9781L258.914 36.9781C258.677 36.9652 258.438 36.9484 258.201 36.9277 258.02 36.9277 257.713 36.8991 257.221 36.8739 256.661 36.8537 256.479 36.8537 256.25 36.8537 255.48 36.8537 255.429 36.8537 255.426 37.772L255.426 42.0354C255.426 44.099 255.468 44.7784 255.725 45.2846 255.964 45.7791 256.479 46.0465 257.271 46.0465 257.835 46.0465 258.455 45.9456 259.363 45.7 259.491 45.6656 259.619 45.6403 259.75 45.6244 259.878 45.6244 259.928 45.7 259.928 45.8346 259.928 46.2046 259.727 47.4693 259.644 47.5753 259.42 47.8444 257.638 48.179 256.425 48.179 253.495 48.179 252.422 47.3146 252.422 45.0172L252.443 43.4649C252.468 42.8258 252.493 42.3751 252.493 42.0354L252.493 38.4817C252.468 36.9512 252.468 36.926 251.851 36.926 251.741 36.926 251.741 36.926 251.383 36.9529L250.712 36.9529C250.584 36.9701 250.456 36.979 250.329 36.9798 250.17 36.9798 250.068 36.8991 250.068 36.8234 250.068 36.7679 250.095 36.6334 250.17 36.4837L250.485 35.6125C250.688 35.0356 250.736 34.9751 250.996 34.9751 251.079 34.9751 251.312 35.002 251.617 35.0356 251.719 35.0563 251.822 35.0647 251.926 35.0609 252.397 35.0609 252.574 34.896 252.574 34.5042 252.574 34.3713 252.557 33.527 252.495 32.7601 252.468 32.3414 252.468 31.9495 252.468 31.6585 252.468 31.08 252.619 30.8597 253.188 30.6545L254.775 30.0776C255.293 29.8859 255.293 29.8859 255.369 29.8859ZM203.115 34.6875C204.09 34.6875 205.143 34.8691 205.767 35.1332 206.179 35.2913 206.285 35.4275 206.285 35.7437L206.285 35.8177 206.103 37.3986C206.077 37.819 206.028 37.8695 205.74 37.8695L205.331 37.8695C205.074 37.8695 205.074 37.8695 204.813 37.1934 204.526 36.5106 203.724 36.1103 202.599 36.1103 201.361 36.1103 200.532 36.7965 200.532 37.8207 200.532 38.5271 200.895 38.998 201.902 39.5799 202.491 39.9264 202.491 39.9264 204.218 40.7185 205.9 41.4804 206.869 42.7215 206.869 44.1814 206.869 46.5695 204.736 48.179 201.489 48.179 200.251 48.179 198.999 47.9184 198.155 47.4727 197.785 47.3163 197.709 47.1481 197.735 46.7327L197.891 44.9331C197.915 44.6203 198.049 44.4875 198.333 44.4875L198.766 44.4875C199.052 44.4875 199.077 44.4875 199.237 45.172 199.469 46.0801 200.558 46.763 201.773 46.763 203.093 46.763 204.008 46.0431 204.008 45.0189 204.008 44.2285 203.598 43.8046 202.185 43.1454 198.875 41.6401 198.049 40.7454 198.049 38.7895 198.049 36.2163 199.928 34.6875 203.117 34.6875ZM50.7842 28.0073C50.9625 28.0073 51.092 28.2024 51.092 28.4631 51.092 28.5388 51.092 28.675 51.065 28.8297 51.0415 29.447 51.0129 30.2055 50.986 32.3447 50.986 33.9761 50.9625 35.2173 50.9389 35.9825L50.9103 36.4282 50.9103 36.6165C50.9103 36.7158 50.9625 36.7679 51.0415 36.7679 51.171 36.7679 51.4788 36.4837 52.0674 35.8463 52.8646 34.9532 53.4953 34.6892 54.7617 34.6892 57.7267 34.6892 59.6104 37.032 59.6104 40.7908 59.6104 45.172 56.8253 48.179 52.7183 48.179 51.3526 48.179 49.4892 47.7098 48.3792 47.0505 48.0428 46.8353 47.9133 46.6267 47.9133 46.1777L47.9133 45.8884C47.9638 43.6196 47.989 40.9001 48.0193 37.6324L48.0176 35.4679C48.0125 33.3925 47.984 31.2381 47.9352 30.816 47.8898 30.2055 47.6055 29.9717 46.8857 29.8893 46.2365 29.8422 46.0818 29.7345 46.0818 29.4234L46.0818 29.0181C46.0818 28.7742 46.1794 28.6935 46.5191 28.6481L50.2864 28.0931 50.7842 28.009ZM178.254 34.6875C181.302 34.6875 182.968 36.4231 182.968 39.553 182.968 40.2661 182.684 40.478 181.71 40.478L175.693 40.478C174.739 40.478 174.637 40.5604 174.637 41.4535 174.637 43.9594 176.261 45.8346 178.486 45.8346 179.776 45.8346 181.635 45.2005 182.479 44.4891 182.536 44.442 182.558 44.4151 182.582 44.4151 182.666 44.4151 182.736 44.516 182.736 44.6523 182.736 45.0425 182.496 46.7848 182.447 46.9698 182.376 47.1245 182.097 47.2826 181.377 47.5753 180.338 47.9661 179.236 48.17 178.126 48.1774 174.352 48.1774 171.788 45.5773 171.788 41.8235 171.788 37.745 174.502 34.6875 178.254 34.6875ZM222.536 29.8859C222.691 29.8859 222.794 30.0776 222.794 30.2845 222.794 30.4443 222.769 30.7386 222.718 31.0548 222.634 31.7107 222.457 33.9256 222.457 34.4251 222.457 34.896 222.584 34.9751 223.335 34.9751L225.448 34.9751C226.062 34.9751 226.406 34.9499 226.739 34.896L226.897 34.896C227.025 34.896 227.108 34.9751 227.108 35.1113 227.108 35.266 227.025 35.5301 226.795 36.3222 226.677 36.8739 226.558 36.9781 226.141 36.9781L226.08 36.9781C225.845 36.9659 225.609 36.949 225.374 36.9277 225.189 36.9277 224.891 36.8991 224.395 36.8739 223.902 36.857 223.705 36.8537 223.512 36.8537L223.414 36.8537C222.636 36.8537 222.587 36.8537 222.584 37.7837L222.584 42.0354C222.584 44.099 222.634 44.7784 222.893 45.2846 223.128 45.7791 223.646 46.0465 224.452 46.0465 225.015 46.0465 225.626 45.9456 226.531 45.7 226.64 45.6625 226.753 45.6371 226.867 45.6244 227.002 45.6244 227.056 45.7 227.056 45.8346 227.056 46.2046 226.847 47.4693 226.778 47.5753 226.58 47.8444 224.805 48.179 223.593 48.179 220.646 48.179 219.539 47.3146 219.539 45.0172L219.566 43.4649C219.593 42.8258 219.617 42.3751 219.617 42.0354L219.617 38.4817C219.593 36.9512 219.593 36.926 218.973 36.926 218.867 36.926 218.867 36.926 218.502 36.9529L217.836 36.9529C217.622 36.9798 217.481 36.9798 217.449 36.9798 217.289 36.9798 217.19 36.8991 217.19 36.8234 217.19 36.7679 217.214 36.6334 217.289 36.4837L217.602 35.6125C217.814 35.0356 217.863 34.9751 218.12 34.9751 218.192 34.9751 218.431 35.002 218.737 35.0356 218.843 35.0609 218.949 35.0609 219.048 35.0609 219.516 35.0609 219.688 34.896 219.688 34.5042 219.688 34.3713 219.669 33.527 219.615 32.7601 219.593 32.3414 219.593 31.9495 219.593 31.6585 219.593 31.08 219.738 30.8597 220.311 30.6545L221.939 30.0776C222.457 29.8859 222.457 29.8859 222.536 29.8859ZM235.073 34.6875C238.11 34.6875 239.79 36.4231 239.79 39.553 239.79 40.2661 239.504 40.478 238.529 40.478L232.506 40.478C231.548 40.478 231.447 40.5604 231.447 41.4535 231.447 43.9594 233.07 45.8346 235.305 45.8346 236.588 45.8346 238.447 45.2005 239.299 44.4891 239.355 44.442 239.378 44.4151 239.403 44.4151 239.477 44.4151 239.56 44.516 239.56 44.6523 239.56 45.0425 239.328 46.7848 239.272 46.9698 239.2 47.1245 238.912 47.2826 238.189 47.5753 237.151 47.9655 236.052 48.1693 234.943 48.1774 231.163 48.1774 228.552 45.5773 228.552 41.8235 228.552 37.745 231.311 34.6875 235.073 34.6875ZM131.73 29.2889C131.992 29.2889 132.066 29.3948 132.066 29.706L132.066 30.2374C132.066 30.6326 131.969 30.7083 131.372 30.8429 130.497 31.0531 130.312 31.2381 130.285 31.9024 130.255 33.3133 130.237 34.7243 130.233 36.1355L130.233 39.0283C130.233 42.1396 130.183 42.8864 129.978 43.7777 129.308 46.6705 126.856 48.1774 122.753 48.1774 119.601 48.1774 117.382 47.1515 116.426 45.256 115.881 44.1494 115.733 42.9116 115.733 39.1426L115.733 36.482C115.733 34.849 115.702 32.9468 115.679 31.9007 115.654 31.2381 115.448 31.0531 114.597 30.8412 113.999 30.71 113.896 30.6326 113.896 30.2357L113.896 29.706C113.896 29.3948 113.973 29.2905 114.232 29.2905 114.382 29.2905 114.855 29.3124 115.292 29.341 116.665 29.4157 118.04 29.4157 119.412 29.341 119.808 29.3124 120.248 29.2905 120.403 29.2905 120.66 29.2905 120.739 29.3948 120.739 29.706L120.739 30.2374C120.739 30.6326 120.63 30.7083 120.07 30.8429 119.238 31.0531 119.049 31.2381 119.029 31.9024 119.009 32.6929 118.979 34.7598 118.973 36.1507L118.973 39.262C118.973 42.2893 119.101 43.4363 119.562 44.2823 120.225 45.547 121.669 46.2836 123.476 46.2836 125.645 46.2836 127.166 45.3872 127.734 43.7777 128.042 42.8662 128.092 42.4962 128.099 39.9365L128.099 36.482C128.099 34.9246 128.07 32.8947 128.044 31.9007 128.023 31.2381 127.842 31.0531 126.964 30.8412 126.37 30.71 126.264 30.6326 126.264 30.2357L126.264 29.706C126.264 29.3948 126.348 29.2905 126.601 29.2905 126.784 29.2905 127.219 29.3124 127.66 29.341 128.149 29.3662 128.661 29.3948 129.123 29.3948 129.695 29.3948 130.156 29.3662 130.674 29.3393 131.113 29.3124 131.548 29.2889 131.73 29.2889ZM68.2751 34.6875C70.7339 34.6875 72.6697 35.668 73.6737 37.4238 74.2725 38.48 74.6071 39.77 74.6071 41.1104 74.6071 42.8864 74.0151 44.6792 72.9724 45.9422 71.7918 47.4155 70.0343 48.179 67.8143 48.179 64.126 48.179 61.721 45.6748 61.721 41.7932 61.721 39.7414 62.3904 37.8964 63.6047 36.6149 64.8139 35.2946 66.2653 34.6875 68.2751 34.6875ZM159.675 34.743C159.924 34.7665 160.392 34.7665 161.004 34.7665 162.215 34.7665 162.96 34.743 163.735 34.6875L164.05 34.6875C164.307 34.6875 164.403 34.7665 164.403 35.0306L164.403 35.5049C164.403 35.8496 164.383 35.8496 163.683 36.033 162.94 36.2146 162.654 36.3996 162.654 36.7696 162.654 36.9025 162.676 37.0875 162.758 37.2977 162.884 37.6845 163.014 38.0831 163.114 38.48L163.765 40.5587C164.568 43.1437 165.109 44.807 165.158 44.807 165.185 44.807 165.212 44.6792 165.264 44.516L165.37 44.1511 165.597 43.438C165.726 43.0108 165.908 42.513 166.059 41.9782L166.813 39.9264C167.613 37.6307 167.822 36.9277 167.822 36.6384 167.822 36.3239 167.406 36.033 166.759 35.9018 166.45 35.816 166.372 35.7437 166.372 35.5049L166.372 35.0306C166.372 34.7951 166.475 34.6875 166.683 34.6875 166.759 34.6875 166.835 34.6875 166.964 34.7161 167.274 34.743 168.337 34.7665 168.858 34.7665 169.337 34.7665 169.934 34.743 170.479 34.6875L170.71 34.6875C170.918 34.6875 170.995 34.7665 170.995 35.0306L170.995 35.5049C170.995 35.8749 170.995 35.8749 170.506 36.0077 170.166 36.1625 170.01 36.3996 169.574 37.5264 169.29 38.2664 169.29 38.2664 167.074 43.6987 166.244 45.7505 166.059 46.2332 165.881 46.7344 165.657 47.365 165.657 47.3886 165.551 47.5416 165.467 47.6762 165.37 47.735 165.01 47.7838 164.769 47.8107 164.697 47.8107 163.789 47.9621 163.723 47.9797 163.655 47.9893 163.587 47.9907L163.501 47.9924C163.249 47.9924 163.224 47.9621 162.94 47.1279 162.596 46.2029 162.373 45.6193 161.177 42.3751 159.949 38.9745 159.482 37.6324 159.039 36.6149 158.858 36.1625 158.807 36.1288 158.207 35.9287 158.056 35.8749 157.983 35.71 157.983 35.5049L157.983 35.0306C157.983 34.7665 158.088 34.6875 158.421 34.6875L158.474 34.6875C158.555 34.6892 158.752 34.6993 159.675 34.743ZM9.03136 29.2872C10.8309 29.2872 12.0452 29.6807 12.881 30.6091 13.6816 31.4164 14.1676 32.6357 14.1676 33.813 14.1676 35.848 12.9298 37.7114 11.243 38.184 10.6762 38.3421 10.6291 38.369 10.6291 38.5035 10.6291 38.5271 10.6594 38.5826 10.725 38.6549 10.91 38.9728 11.068 39.2469 11.1404 39.474 11.6853 40.7151 13.394 43.7592 14.2971 44.9937 15.022 45.996 15.3567 46.2803 16.1303 46.4686 16.5676 46.583 16.6349 46.6166 16.645 46.9395L16.645 47.5181C16.645 47.7586 16.4919 47.8982 16.2346 47.8982L16.026 47.8982C15.4643 47.8679 14.5292 47.841 13.9137 47.841 13.5235 47.841 12.9853 47.8679 12.3916 47.8982L11.9914 47.8982C11.4986 47.8982 11.4986 47.8982 10.8814 46.2803 10.6577 45.7034 8.89514 41.9799 7.97182 40.029 7.52782 39.0821 7.42523 39.003 6.80464 39.003L6.62636 39.003C6.52714 39.0283 6.44473 39.0283 6.44473 39.0283L6.03268 39.0014C5.87795 39.0014 5.74677 39.1864 5.74677 39.474L5.74677 40.7454C5.74677 42.111 5.77536 44.4118 5.80227 45.283 5.83086 45.9136 6.03268 46.1239 6.88368 46.3324 7.45214 46.467 7.56145 46.5443 7.56145 46.9463L7.56145 47.4727C7.56145 47.7821 7.48241 47.8982 7.21836 47.8982 7.04009 47.8982 6.62636 47.8679 6.19245 47.841 4.81457 47.7594 3.43306 47.7594 2.05518 47.841 1.61286 47.8679 1.17727 47.8982 1.02255 47.8982 0.741682 47.8982 0.659273 47.7821 0.659273 47.4727L0.659273 46.9463C0.659273 46.5443 0.760182 46.4686 1.35555 46.3324 2.20991 46.1255 2.41845 45.9136 2.442 45.283 2.46723 44.2537 2.49414 42.3751 2.49414 40.7454L2.49414 36.4837C2.49414 34.8473 2.46723 32.9485 2.442 31.899 2.41845 31.2381 2.20991 31.0514 1.35555 30.8429 0.761864 30.7134 0.659273 30.631 0.659273 30.2357L0.659273 29.7043C0.659273 29.3898 0.741682 29.2872 0.968727 29.2872 1.22773 29.2872 1.61286 29.3141 2.05518 29.341 2.52441 29.3679 3.11473 29.3915 3.93882 29.3915L4.34918 29.3915C5.26745 29.3898 5.51636 29.3814 7.63041 29.3141 8.15514 29.2872 8.61427 29.2872 9.02968 29.2872ZM246.556 34.6858C246.787 34.6858 246.893 34.8708 246.893 35.1887L246.893 35.229 246.869 36.2146C246.83 37.502 246.812 38.7898 246.812 40.0777L246.812 41.9782C246.812 43.517 246.84 44.913 246.869 45.547 246.923 46.102 247.074 46.2534 247.824 46.4939 248.531 46.7125 248.613 46.7545 248.621 47.0354L248.621 47.5467C248.621 47.7838 248.544 47.8931 248.342 47.8931L248.157 47.8931C247.222 47.8354 246.285 47.8075 245.349 47.809 244.368 47.809 243.134 47.8427 242.483 47.8931L242.305 47.8931C242.069 47.8931 242.02 47.809 242.02 47.5467L242.02 47.1262C242.02 46.7613 242.02 46.7613 242.828 46.4939 243.621 46.2332 243.748 46.1003 243.8 45.547 243.827 44.9214 243.845 43.8652 243.85 42.4222L243.85 39.8187C243.85 36.7107 243.8 36.5291 242.744 36.4063 242.15 36.3508 242.02 36.2751 242.02 36.0077L242.02 35.5318C242.02 35.2408 242.094 35.1685 242.458 35.1349L246.154 34.7396 246.358 34.7161C246.437 34.6875 246.504 34.6875 246.556 34.6875ZM154.88 34.6858C155.104 34.6858 155.213 34.8708 155.213 35.1887L155.183 36.2146C155.163 36.6636 155.131 39.215 155.131 40.668L155.131 41.9782C155.131 43.517 155.165 44.913 155.183 45.547 155.234 46.102 155.388 46.2534 156.143 46.4939 156.917 46.7344 156.942 46.7613 156.942 47.1279L156.942 47.5467C156.942 47.7838 156.86 47.8931 156.663 47.8931L156.475 47.8931C155.802 47.8427 154.645 47.809 153.656 47.809 152.679 47.809 151.444 47.8427 150.794 47.8931L150.615 47.8931C150.378 47.8931 150.329 47.809 150.329 47.5467L150.329 47.1262C150.329 46.7613 150.329 46.7613 151.133 46.4939 151.932 46.2332 152.065 46.1003 152.11 45.547 152.134 44.9214 152.156 43.8652 152.161 42.4222L152.161 39.8187C152.161 36.7107 152.11 36.5291 151.054 36.4063 150.457 36.3508 150.328 36.2751 150.328 36.0077L150.328 35.5318C150.328 35.2408 150.407 35.1685 150.77 35.1349L154.463 34.7396 154.672 34.7161C154.747 34.6875 154.82 34.6875 154.88 34.6875ZM213.687 34.6858C213.919 34.6858 214.021 34.8708 214.021 35.1887L214.021 35.2526 213.998 36.2146C213.979 36.635 213.954 38.9055 213.951 40.3838L213.951 41.9782C213.951 43.517 213.978 44.913 213.998 45.547 214.048 46.102 214.2 46.2534 214.945 46.4939 215.72 46.7344 215.744 46.7613 215.744 47.1279L215.744 47.5467C215.744 47.7838 215.665 47.8931 215.459 47.8931L215.278 47.8931C214.608 47.8427 213.453 47.809 212.516 47.809 211.536 47.809 210.296 47.8427 209.65 47.8931L209.469 47.8931C209.238 47.8931 209.185 47.809 209.185 47.5467L209.185 47.1262C209.185 46.7915 209.185 46.763 209.807 46.5544L209.993 46.4939C210.792 46.2332 210.915 46.1003 210.971 45.547 210.987 44.9214 211.013 43.8652 211.016 42.4222L211.016 39.8187C211.016 36.7107 210.971 36.5291 209.908 36.4063 209.317 36.3508 209.185 36.2751 209.185 36.0077L209.185 35.5318C209.185 35.2408 209.26 35.1685 209.623 35.1349L213.298 34.7396 213.483 34.7161C213.559 34.6875 213.635 34.6875 213.687 34.6875ZM194.719 34.6858C195.392 34.6858 195.673 34.8708 195.648 35.266L195.648 35.3199 195.545 37.1699C195.518 37.6324 195.41 37.8207 195.182 37.8207 195.131 37.8207 195.052 37.7921 194.945 37.7619 194.637 37.661 194.043 37.6038 193.448 37.6038 192.501 37.6038 191.756 37.8678 191.263 38.3387 190.701 38.919 190.57 39.4252 190.557 41.7125L190.557 43.221 190.621 44.9113C190.643 45.7791 190.696 45.9977 191.056 46.1794 191.263 46.2803 191.292 46.2803 192.398 46.5443 193.184 46.736 193.217 46.736 193.217 47.0993L193.217 47.4693C193.217 47.7367 193.09 47.8915 192.878 47.8915L192.76 47.8915C192.013 47.8713 189.946 47.809 188.907 47.809 188.084 47.809 186.88 47.846 186.27 47.8931L186.091 47.8931C185.886 47.8931 185.807 47.7821 185.807 47.5416L185.807 47.1262C185.807 46.763 185.807 46.763 186.569 46.4955 187.361 46.2315 187.494 46.0986 187.536 45.5453 187.565 44.9449 187.592 43.887 187.595 42.4272L187.595 41.112C187.595 39.7952 187.415 38.2933 187.158 37.5769 186.922 36.926 186.551 36.6855 185.758 36.662 185.187 36.6367 185.111 36.5896 185.111 36.297L185.111 35.848C185.111 35.4578 185.187 35.3754 185.577 35.3199L189.322 34.7413 189.538 34.7144C189.637 34.6858 189.716 34.6858 189.736 34.6858 189.923 34.6858 190.045 34.8708 190.045 35.1349L190.025 36.2953C190.025 37.4255 190.045 37.6038 190.254 37.6038 190.336 37.6038 190.557 37.4255 190.745 37.1934 191.135 36.741 191.135 36.741 191.754 36.0346 192.476 35.2173 192.74 35.0323 193.475 34.8473 193.868 34.7413 194.25 34.6858 194.719 34.6858ZM142.48 34.6858C144.339 34.6858 145.709 35.4023 146.2 36.6367 146.411 37.227 146.426 37.2708 146.428 40.3468L146.428 41.9731C146.428 43.5187 146.451 45.0206 146.471 45.5487 146.517 46.0986 146.668 46.255 147.445 46.4955 148.217 46.736 148.242 46.7596 148.242 47.1296L148.242 47.545C148.242 47.8141 148.166 47.8915 147.963 47.8915L147.778 47.8915C146.849 47.8363 145.919 47.8099 144.988 47.8124 144.002 47.8124 142.79 47.8427 142.12 47.8915L141.932 47.8915C141.727 47.8915 141.651 47.7855 141.651 47.545L141.651 47.1296C141.651 46.7596 141.678 46.736 142.45 46.4955 143.229 46.255 143.382 46.0986 143.434 45.5487 143.456 44.9886 143.479 43.7222 143.484 42.3499L143.484 41.112C143.484 39.4555 143.407 38.739 143.198 38.1874 142.919 37.4743 142.223 37.0858 141.271 37.0858 140.208 37.0858 139.233 37.5735 138.637 38.4178 138.2 39.03 138.089 39.6068 138.089 41.2903L138.089 41.9731C138.089 43.5675 138.119 44.9382 138.146 45.5487 138.198 46.0986 138.353 46.255 139.103 46.4955 139.868 46.7596 139.899 46.7596 139.899 47.1296L139.899 47.545C139.899 47.7855 139.82 47.8915 139.608 47.8915L139.429 47.8915C138.495 47.8356 137.56 47.8092 136.624 47.8124 135.649 47.8124 134.377 47.8427 133.757 47.8915L133.575 47.8915C133.37 47.8915 133.294 47.7855 133.294 47.545L133.294 47.1296C133.294 46.7596 133.319 46.736 134.093 46.4955 134.865 46.255 135.023 46.0986 135.077 45.5487 135.099 44.9937 135.129 43.5675 135.129 41.9731L135.129 41.0599C135.129 39.7716 134.971 37.7097 134.821 37.2472 134.683 36.7982 134.429 36.6367 133.627 36.5913 133.03 36.5274 132.917 36.4803 132.917 36.2432L132.917 35.7151C132.917 35.3199 132.965 35.2375 133.267 35.1904L136.934 34.7413C137.169 34.7178 137.347 34.6858 137.374 34.6858 137.581 34.6858 137.711 34.8708 137.736 35.1904 137.763 35.4023 137.813 36.6367 137.813 36.7713 137.838 37.0858 137.941 37.3229 138.071 37.3229 138.146 37.3229 138.252 37.2472 138.353 37.1446L138.612 36.8503 139.103 36.3525C140.338 35.002 140.982 34.6858 142.48 34.6858ZM53.6971 36.8722C52.7216 36.8722 51.763 37.6593 51.3005 38.8971 51.0146 39.6102 50.8851 40.6664 50.8851 42.3196 50.8851 44.3075 50.9641 45.0172 51.171 45.4949 51.4569 46.0465 52.3113 46.4955 53.0597 46.4955 55.0678 46.4955 56.5663 44.3327 56.5663 41.4501 56.5663 38.6885 55.4277 36.8739 53.6971 36.8739ZM68.043 36.6367C66.1291 36.6367 64.7635 38.5826 64.7635 41.2685 64.7635 44.0687 66.225 46.1541 68.2785 46.1541 70.1167 46.1541 71.5345 44.1999 71.5345 41.7141 71.5345 38.7373 70.083 36.6384 68.043 36.6384ZM25.451 42.1396C25.3988 42.1396 25.345 42.1396 25.266 42.1649L24.9817 42.2187C23.564 42.4878 23.0947 42.5954 22.5565 42.9116 21.8031 43.332 21.4667 43.882 21.4667 44.5985 21.4667 45.4932 22.0621 46.0734 22.94 46.0734 23.6918 46.0734 24.573 45.6748 25.1381 45.098 25.525 44.6809 25.6494 44.257 25.6494 43.3085L25.6494 42.5685C25.6494 42.2187 25.6292 42.1396 25.451 42.1396ZM37.6155 36.5274C35.8059 36.5274 34.5378 38.3942 34.5378 41.0851 34.5378 43.9409 35.7807 45.9675 37.5886 45.9675 39.4218 45.9675 40.3065 44.4118 40.3065 41.2903 40.3065 39.659 40.1248 38.5826 39.7346 37.8409 39.2923 37.0286 38.517 36.5274 37.6155 36.5274ZM98.3376 36.5274C96.5364 36.5274 95.2716 38.3942 95.2716 41.0851 95.2716 43.9409 96.5061 45.9675 98.3124 45.9675 100.189 45.9675 101.091 44.4118 101.091 41.2903 101.091 39.659 100.912 38.5826 100.524 37.8409 100.058 37.0286 99.2424 36.5274 98.3376 36.5274ZM178.042 36.2163C177.213 36.2163 176.394 36.6149 175.93 37.217 175.516 37.7114 175.2 38.4783 175.2 38.9257 175.2 39.1376 175.309 39.22 175.567 39.22L176.133 39.1897 177.322 39.0804C177.787 39.0552 179.055 38.9526 179.511 38.8702 179.909 38.8466 180.059 38.6885 180.059 38.3421 180.059 37.8712 179.877 37.2994 179.566 36.8755 179.257 36.4568 178.742 36.2163 178.042 36.2163ZM234.864 36.2163C234.04 36.2163 233.204 36.6149 232.738 37.217 232.33 37.7114 232.019 38.4783 232.019 38.9257 232.019 39.1376 232.118 39.22 232.375 39.22L232.944 39.1897 234.144 39.0804C234.607 39.0552 235.87 38.9526 236.326 38.8702 236.723 38.8466 236.874 38.6885 236.874 38.3421 236.874 37.8712 236.692 37.2994 236.38 36.8755 236.077 36.4568 235.564 36.2163 234.864 36.2163ZM6.44473 31.0514C5.87795 31.0514 5.77536 31.1069 5.77536 31.4719L5.77536 32.0269 5.74509 35.1668 5.74509 36.1339 5.77536 36.8503C5.74509 37.375 5.85441 37.4709 6.31691 37.4709 7.99368 37.4709 8.97418 37.2725 9.56786 36.7982 10.2978 36.1927 10.7233 35.2122 10.7233 34.1897 10.7233 32.708 9.93282 31.5795 8.66304 31.2381 8.15514 31.1069 7.42523 31.0514 6.44473 31.0514ZM153.449 29.0164C154.591 29.0164 155.387 29.7329 155.387 30.8412 155.387 31.9243 154.488 32.7921 153.353 32.7921 152.243 32.7921 151.33 31.9478 151.33 30.8614 151.33 29.7329 152.184 29.0164 153.449 29.0164ZM212.306 29.0164C213.399 29.0164 214.196 29.7329 214.196 30.8412 214.188 31.9278 213.298 32.8013 212.212 32.7923 212.208 32.7921 212.207 32.7921 212.203 32.7921 211.098 32.7921 210.19 31.9478 210.19 30.8614 210.19 29.7329 211.038 29.0164 212.306 29.0164ZM245.145 29.0164C246.277 29.0164 247.073 29.7329 247.073 30.8412 247.073 31.9243 246.174 32.7921 245.038 32.7921 243.931 32.7921 243.023 31.9478 243.023 30.8614 243.023 29.7329 243.87 29.0164 245.145 29.0164Z" fill="#FFFFFF" fill-rule="evenodd" transform="matrix(1 0 0 1.00515 767 462)"/></g></svg>